<?xml version="1.0" encoding="utf-8"?>
<!-- Generator: Adobe Illustrator 28.0.0, SVG Export Plug-In . SVG Version: 6.00 Build 0)  -->
<svg version="1.1" id="Layer_1" xmlns="http://www.w3.org/2000/svg" xmlns:xlink="http://www.w3.org/1999/xlink" x="0px" y="0px"
	 viewBox="0 0 262.5 499.4" style="enable-background:new 0 0 262.5 499.4;" xml:space="preserve">
<style type="text/css">
	.st0{fill-rule:evenodd;clip-rule:evenodd;fill:#213648;}
	.st1{opacity:0.596;fill-rule:evenodd;clip-rule:evenodd;fill:url(#SVGID_1_);fill-opacity:0.65;enable-background:new    ;}
	
		.st2{opacity:0.75;fill-rule:evenodd;clip-rule:evenodd;fill:url(#SVGID_00000179643325439383084700000016262811324918391983_);enable-background:new    ;}
	
		.st3{opacity:0.75;fill-rule:evenodd;clip-rule:evenodd;fill:url(#SVGID_00000103954857335806680110000008096361829885126276_);enable-background:new    ;}
	.st4{fill-rule:evenodd;clip-rule:evenodd;fill:#2E423C;}
	.st5{fill-rule:evenodd;clip-rule:evenodd;fill:#FFFFFF;}
	.st6{filter:url(#Adobe_OpacityMaskFilter);}
	
		.st7{mask:url(#h_00000044877112401470006050000001898210866289284524_);fill-rule:evenodd;clip-rule:evenodd;fill:url(#SVGID_00000176042162891917627650000017761993578222544568_);}
	.st8{filter:url(#Adobe_OpacityMaskFilter_00000098925495327583479210000007340311466035636652_);}
	.st9{mask:url(#h_00000153678071809990880290000005895024937677184915_);enable-background:new    ;}
	.st10{fill:#FFFFFF;}
	.st11{filter:url(#i);}
	.st12{fill-rule:evenodd;clip-rule:evenodd;}
	.st13{fill-rule:evenodd;clip-rule:evenodd;fill:#FBFCFE;}
	.st14{enable-background:new    ;}
	.st15{fill:#BA4270;}
	.st16{fill:#36536B;}
</style>
<filter  filterUnits="objectBoundingBox" height="163.2%" id="i" width="125.2%" x="-8%" y="-20.1%">
	<feMorphology  in="SourceAlpha" operator="erode" radius="5" result="shadowSpreadOuter1"></feMorphology>
	<feOffset  dx="10" dy="10" in="shadowSpreadOuter1" result="shadowOffsetOuter1"></feOffset>
	<feGaussianBlur  in="shadowOffsetOuter1" result="shadowBlurOuter1" stdDeviation="12.5"></feGaussianBlur>
	<feColorMatrix  in="shadowBlurOuter1" values="0 0 0 0 0.212302148 0 0 0 0 0.325209598 0 0 0 0 0.419299139 0 0 0 0.25 0">
		</feColorMatrix>
</filter>
<g transform="translate(53 55)">
	<g>
		<path id="b_00000088814786076414855950000004986809026712719764_" class="st0" d="M-17.2-54.4H174c18.3,0,33.2,14.2,33.2,31.8
			v435.3c0,17.6-14.9,31.8-33.2,31.8H-17.2c-18.3,0-33.2-14.2-33.2-31.8V-22.6C-50.4-40.2-35.6-54.4-17.2-54.4L-17.2-54.4z"/>
	</g>
	
		<linearGradient id="SVGID_1_" gradientUnits="userSpaceOnUse" x1="-369.4079" y1="683.3155" x2="-369.4079" y2="682.3155" gradientTransform="matrix(242.642 0 0 -12.324 89712.1953 8366.1807)">
		<stop  offset="0" style="stop-color:#454545"/>
		<stop  offset="0.2263" style="stop-color:#999999"/>
		<stop  offset="1" style="stop-color:#FFFFFF"/>
	</linearGradient>
	<path class="st1" d="M174.7-55H-18.1c-9,0.5-17.3,4.7-24.9,12.3c4.9-4.3,13.6-10,25.1-10h192.4c11.5,0,20.2,5.7,25.1,10
		C192.1-50.3,183.8-54.5,174.7-55z"/>
	
		<linearGradient id="SVGID_00000023256164566272982350000001589381533585708213_" gradientUnits="userSpaceOnUse" x1="-350.5892" y1="694.194" x2="-351.2822" y2="694.194" gradientTransform="matrix(13.6522 0 0 -470.6551 4993.4082 326919.8125)">
		<stop  offset="0" style="stop-color:#FFFFFF;stop-opacity:0"/>
		<stop  offset="0.2222" style="stop-color:#BABABA"/>
		<stop  offset="0.5468" style="stop-color:#FFFFFF;stop-opacity:0"/>
		<stop  offset="1" style="stop-color:#FFFFFF;stop-opacity:0"/>
	</linearGradient>
	
		<path style="opacity:0.75;fill-rule:evenodd;clip-rule:evenodd;fill:url(#SVGID_00000023256164566272982350000001589381533585708213_);enable-background:new    ;" d="
		M202,407.7V-20c0-11.5-4.2-15.7-6.7-18.4c-2.5-2.7-2.6-4.1,1-2.1c3.6,2.1,10.8,8,10.8,20.5v427.7c0,12.5-7.2,18.4-10.8,20.5
		c-3.6,2.1-3.5,0.7-1-2.1S202,419.1,202,407.7L202,407.7z"/>
	
		<linearGradient id="SVGID_00000018952375254110870360000002184444405455760300_" gradientUnits="userSpaceOnUse" x1="-389.4108" y1="694.194" x2="-390.1049" y2="694.194" gradientTransform="matrix(-13.6522 0 0 -470.6551 -5366.7329 326919.8125)">
		<stop  offset="0" style="stop-color:#FFFFFF;stop-opacity:0"/>
		<stop  offset="0.2222" style="stop-color:#BABABA"/>
		<stop  offset="0.5468" style="stop-color:#FFFFFF;stop-opacity:0"/>
		<stop  offset="1" style="stop-color:#FFFFFF;stop-opacity:0"/>
	</linearGradient>
	
		<path style="opacity:0.75;fill-rule:evenodd;clip-rule:evenodd;fill:url(#SVGID_00000018952375254110870360000002184444405455760300_);enable-background:new    ;" d="
		M-45.3,407.7V-20c0-11.5,4.2-15.7,6.7-18.4c2.5-2.7,2.6-4.1-1-2.1c-3.6,2.1-10.8,8-10.8,20.5v427.7c0,12.5,7.2,18.4,10.8,20.5
		c3.6,2.1,3.5,0.7,1-2.1S-45.3,419.1-45.3,407.7L-45.3,407.7z"/>
	<path class="st4" d="M-51,46.6h1c1.1,0,2,0.9,2,2l0,0v60.3c0,1.1-0.9,2-2,2h-1c-1.1,0-2-0.9-2-2V48.6C-53,47.5-52.1,46.6-51,46.6z
		 M206.5,99h1c1.1,0,2,0.9,2,2V144c0,1.1-0.9,2-2,2h-1c-1.1,0-2-0.9-2-2V101C204.5,99.9,205.4,99,206.5,99z"/>
	<g transform="translate(15.074 12.444)">
		<g>
			<path id="f_00000018918562400573315790000013117689659810633613_" class="st5" d="M40.6-55h-74.4C-44.9-55-53-47.4-53-37.6v422.4
				c0,12.9,12.5,24.3,26.6,24.3H153c13.6,0,26.6-11.5,26.6-24.3V-36.4c0-11.8-8.8-18.5-19.2-18.6H84.8c-0.3,0-5.5,2.2-7.7,7.6
				c-2.2,5.4-6.6,9.7-11.4,9.7h-5.6c-2.3,0-8.3-2.2-11.4-9.7C45.6-54.9,40.9-55,40.6-55z"/>
		</g>
		<defs>
			<filter id="Adobe_OpacityMaskFilter" filterUnits="userSpaceOnUse" x="-53.1" y="-55" width="233" height="465">
				<feColorMatrix  type="matrix" values="1 0 0 0 0  0 1 0 0 0  0 0 1 0 0  0 0 0 1 0"/>
			</filter>
		</defs>
		
			<mask maskUnits="userSpaceOnUse" x="-53.1" y="-55" width="233" height="465" id="h_00000044877112401470006050000001898210866289284524_">
			<g class="st6">
				<path id="f_00000092414758530990318500000012169822970153320874_" class="st5" d="M40.6-55h-74.4C-44.9-55-53-47.4-53-37.6
					v422.4c0,12.9,12.5,24.3,26.6,24.3H153c13.6,0,26.6-11.5,26.6-24.3V-36.4c0-11.8-8.8-18.5-19.2-18.6H84.8
					c-0.3,0-5.5,2.2-7.7,7.6c-2.2,5.4-6.6,9.7-11.4,9.7h-5.6c-2.3,0-8.3-2.2-11.4-9.7C45.6-54.9,40.9-55,40.6-55z"/>
			</g>
		</mask>
		
			<linearGradient id="SVGID_00000164508352756501604290000005215847649937629570_" gradientUnits="userSpaceOnUse" x1="-384.4367" y1="682.2463" x2="-384.4367" y2="681.2541" gradientTransform="matrix(233 0 0 -465 89637.1719 317189.5312)">
			<stop  offset="0" style="stop-color:#9CB6CD"/>
			<stop  offset="0.4206" style="stop-color:#9AB3CA"/>
			<stop  offset="0.7166" style="stop-color:#557496"/>
			<stop  offset="1" style="stop-color:#475178"/>
		</linearGradient>
		
			<path style="mask:url(#h_00000044877112401470006050000001898210866289284524_);fill-rule:evenodd;clip-rule:evenodd;fill:url(#SVGID_00000164508352756501604290000005215847649937629570_);" d="
			M-53.1-55h233v465h-233L-53.1-55z"/>
		<defs>
			
				<filter id="Adobe_OpacityMaskFilter_00000020356467891945118430000009549563235558749113_" filterUnits="userSpaceOnUse" x="22.3" y="49.1" width="81.8" height="23.8">
				<feColorMatrix  type="matrix" values="1 0 0 0 0  0 1 0 0 0  0 0 1 0 0  0 0 0 1 0"/>
			</filter>
		</defs>
		
			<mask maskUnits="userSpaceOnUse" x="22.3" y="49.1" width="81.8" height="23.8" id="h_00000153678071809990880290000005895024937677184915_">
			<g style="filter:url(#Adobe_OpacityMaskFilter_00000020356467891945118430000009549563235558749113_);">
				<path id="f_00000152247265721524158370000010478632733314869148_" class="st5" d="M40.6-55h-74.4C-44.9-55-53-47.4-53-37.6
					v422.4c0,12.9,12.5,24.3,26.6,24.3H153c13.6,0,26.6-11.5,26.6-24.3V-36.4c0-11.8-8.8-18.5-19.2-18.6H84.8
					c-0.3,0-5.5,2.2-7.7,7.6c-2.2,5.4-6.6,9.7-11.4,9.7h-5.6c-2.3,0-8.3-2.2-11.4-9.7C45.6-54.9,40.9-55,40.6-55z"/>
			</g>
		</mask>
		<g class="st9">
			<path class="st10" d="M26.4,72.6V55.2h-4.1v-2.6c1.3,0,2.4-0.1,3.2-0.4s1.4-0.6,1.8-1.1s0.6-1,0.7-1.7h3.1v23.1H26.4z"/>
			<path class="st10" d="M36.4,72.6v-2.3v-1.2c0-1.2,0.2-2.2,0.7-3s1-1.6,1.7-2.2c0.7-0.6,1.5-1.2,2.4-1.7c0.9-0.5,1.7-0.9,2.6-1.4
				c0.9-0.4,1.7-0.9,2.4-1.3c0.7-0.4,1.3-0.9,1.7-1.4c0.4-0.5,0.7-1.2,0.7-1.9c0-0.9-0.3-1.7-1-2.3C46.9,53.3,46,53,44.9,53
				c-1.2,0-2.1,0.3-3,1c-0.8,0.7-1.3,1.7-1.5,3H36c0-1.5,0.4-2.8,1-4c0.7-1.2,1.7-2.2,3-2.9c1.3-0.7,3-1.1,5-1.1
				c1.7,0,3.2,0.3,4.5,0.9c1.3,0.6,2.2,1.4,2.9,2.4c0.7,1,1,2.3,1,3.7c0,1.2-0.2,2.2-0.6,3s-1,1.6-1.7,2.2s-1.5,1.1-2.3,1.6
				c-0.8,0.4-1.7,0.9-2.5,1.2c-0.8,0.4-1.6,0.8-2.3,1.2c-0.7,0.4-1.3,0.9-1.7,1.4c-0.4,0.5-0.6,1.1-0.6,1.8v0.2h11.8v3.9H36.4z"/>
			<path class="st10" d="M56.5,61.4v-5h5.1v5H56.5z M56.5,72.5v-5h5.1v5H56.5z"/>
			<path class="st10" d="M75.5,72.6l0-5.1H64.8v-3.8l10.5-14.2H80v14.1h3.6v3.9H80v5.1H75.5z M69.2,63.5h6.3V55L69.2,63.5z"/>
			<path class="st10" d="M94.4,72.9c-1.4,0-2.8-0.3-4-0.8c-1.2-0.6-2.3-1.3-3.1-2.3s-1.2-2.2-1.3-3.5h4.4c0.2,0.9,0.6,1.6,1.3,2.2
				c0.7,0.6,1.5,0.8,2.5,0.8c1.1,0,2.1-0.3,2.9-0.8s1.5-1.4,1.9-2.5c0.4-1.1,0.6-2.6,0.4-4.5c-0.3,0.6-0.7,1.1-1.2,1.5
				c-0.5,0.4-1.1,0.7-1.8,1c-0.7,0.2-1.5,0.3-2.4,0.3c-1.6,0-3-0.3-4.2-0.9c-1.2-0.6-2.2-1.4-2.8-2.5c-0.7-1.1-1-2.4-1-3.9
				c0-1.5,0.4-2.9,1.1-4c0.7-1.2,1.7-2.1,3-2.8c1.3-0.7,2.8-1,4.6-1c2,0,3.7,0.5,5.1,1.4s2.5,2.3,3.3,4s1.1,3.7,1.1,6
				c0,2.8-0.4,5.1-1.2,6.9c-0.8,1.8-1.9,3.2-3.4,4.1C98.1,72.5,96.4,72.9,94.4,72.9z M94.8,60.5c0.7,0,1.3-0.1,1.9-0.4
				c0.6-0.3,1.1-0.7,1.5-1.1c0.4-0.4,0.6-0.9,0.6-1.4c0-1-0.2-1.9-0.5-2.7s-0.8-1.3-1.4-1.7s-1.3-0.6-2.1-0.6c-0.7,0-1.4,0.2-2,0.5
				c-0.6,0.3-1,0.8-1.4,1.4c-0.3,0.6-0.5,1.3-0.5,2.1c0,1.2,0.4,2.1,1.1,2.8C92.7,60.2,93.6,60.5,94.8,60.5z"/>
		</g>
	</g>
	<g transform="translate(22 167)">
		<g class="st11">
			<path id="j_00000010307687582845216740000007157321749336193156_" class="st12" d="M-48-55h208c2.8,0,5,2.2,5,5v77
				c0,2.8-2.2,5-5,5H-48c-2.8,0-5-2.2-5-5v-77C-53-52.8-50.8-55-48-55z"/>
		</g>
		<g>
			<path id="j_00000178171761184318148390000006531765484969214856_" class="st13" d="M-48-55h208c2.8,0,5,2.2,5,5v77
				c0,2.8-2.2,5-5,5H-48c-2.8,0-5-2.2-5-5v-77C-53-52.8-50.8-55-48-55z"/>
		</g>
		<g>
			<g class="st14">
				<path class="st15" d="M-36.2-30v-7.2h2.7c0.5,0,1,0.1,1.4,0.3c0.4,0.2,0.7,0.4,1,0.8c0.2,0.4,0.4,0.8,0.4,1.3
					c0,0.5-0.1,0.9-0.3,1.2s-0.5,0.6-0.9,0.8c-0.4,0.2-0.8,0.3-1.4,0.3h-1.4v2.6H-36.2z M-34.7-33.7h1.4c0.4,0,0.7-0.1,0.9-0.4
					s0.4-0.5,0.4-0.9c0-0.4-0.1-0.6-0.4-0.9c-0.2-0.2-0.5-0.3-0.9-0.3h-1.3V-33.7z"/>
				<path class="st15" d="M-28.5-29.9c-0.3,0-0.6-0.1-0.9-0.2s-0.5-0.3-0.6-0.5c-0.2-0.2-0.2-0.5-0.2-0.9c0-0.6,0.2-1,0.6-1.3
					s1.1-0.4,2-0.5l0.6,0v-0.3c0-0.2-0.1-0.4-0.2-0.5c-0.1-0.1-0.4-0.2-0.6-0.2c-0.2,0-0.4,0.1-0.6,0.2c-0.2,0.1-0.3,0.3-0.4,0.5
					H-30c0-0.4,0.1-0.7,0.3-0.9c0.2-0.2,0.5-0.4,0.8-0.5c0.3-0.1,0.7-0.2,1.2-0.2c0.5,0,1,0.1,1.3,0.2s0.6,0.3,0.7,0.6
					s0.2,0.5,0.2,0.9v3.6h-1.2l-0.1-0.9c-0.2,0.4-0.4,0.6-0.7,0.8C-27.8-30-28.1-29.9-28.5-29.9z M-28-30.9c0.1,0,0.3,0,0.4-0.1
					c0.1,0,0.2-0.1,0.3-0.2c0.1-0.1,0.2-0.2,0.2-0.3c0.1-0.1,0.1-0.2,0.1-0.3v-0.8l-0.5,0c-0.2,0-0.5,0-0.7,0.1s-0.4,0.1-0.5,0.3
					c-0.1,0.1-0.2,0.3-0.2,0.5c0,0.2,0.1,0.4,0.2,0.6S-28.2-30.9-28-30.9z"/>
				<path class="st15" d="M-23.7-28.3c-0.4,0-0.7-0.1-1-0.2v-0.9l0.5,0c0.2,0,0.4,0,0.5,0s0.2-0.1,0.3-0.1c0.1-0.1,0.1-0.1,0.2-0.2
					s0.1-0.1,0.1-0.1l0.1-0.3l-2-5h1.4l1.2,3.4l1.2-3.4h1.4l-2.1,5.2c-0.2,0.4-0.4,0.8-0.6,1s-0.4,0.4-0.6,0.5
					C-23.2-28.4-23.4-28.3-23.7-28.3z"/>
				<path class="st15" d="M-19.8-30l2.6-7.2h1.5l2.6,7.2h-1.5l-0.6-1.7h-2.6l-0.6,1.7H-19.8z M-17.4-33h1.9l-1-2.9L-17.4-33z"/>
				<path class="st15" d="M-12-30v-7.2h2.7c0.5,0,1,0.1,1.4,0.3c0.4,0.2,0.7,0.4,1,0.8c0.2,0.4,0.4,0.8,0.4,1.3
					c0,0.5-0.1,0.9-0.3,1.2s-0.5,0.6-0.9,0.8c-0.4,0.2-0.8,0.3-1.4,0.3h-1.4v2.6H-12z M-10.6-33.7h1.4c0.4,0,0.7-0.1,0.9-0.4
					S-8-34.6-8-34.9c0-0.4-0.1-0.6-0.4-0.9c-0.2-0.2-0.5-0.3-0.9-0.3h-1.3V-33.7z"/>
				<path class="st15" d="M-5.5-30v-7.2h1.5v7.2H-5.5z"/>
			</g>
			<g class="st14">
				<path class="st16" d="M108.6-29.9c-0.3,0-0.5,0-0.7-0.1c-0.2-0.1-0.4-0.1-0.4-0.1l0.1-0.9c0.1,0,0.2,0.1,0.4,0.1
					c0.1,0.1,0.3,0.1,0.5,0.1c0.3,0,0.6-0.1,0.7-0.3c0.1-0.2,0.2-0.5,0.2-0.9v-5.3h0.9v5.5c0,0.4,0,0.7-0.1,1
					c-0.1,0.3-0.2,0.5-0.5,0.6C109.4-30,109-29.9,108.6-29.9z"/>
				<path class="st16" d="M113.6-29.9c-0.3,0-0.5,0-0.8-0.1s-0.4-0.2-0.6-0.3c-0.2-0.1-0.3-0.3-0.4-0.5c-0.1-0.2-0.2-0.5-0.2-0.8
					v-3.5h0.9v3.4c0,0.3,0.1,0.6,0.3,0.8c0.2,0.2,0.5,0.3,0.9,0.3c0.4,0,0.7-0.1,0.9-0.3c0.2-0.2,0.3-0.5,0.3-0.9v-3.4h0.9v5.2h-0.7
					l-0.1-1c-0.1,0.3-0.2,0.5-0.3,0.6c-0.2,0.2-0.3,0.3-0.5,0.4C114.1-29.9,113.8-29.9,113.6-29.9z"/>
				<path class="st16" d="M119.4-29.9c-0.4,0-0.7-0.1-1-0.2s-0.6-0.3-0.8-0.5s-0.3-0.5-0.4-0.9h0.8c0,0.2,0.1,0.4,0.2,0.5
					c0.1,0.1,0.3,0.2,0.5,0.3s0.4,0.1,0.6,0.1c0.3,0,0.6-0.1,0.8-0.2c0.2-0.1,0.3-0.3,0.3-0.6c0-0.2-0.1-0.3-0.2-0.5
					c-0.1-0.1-0.3-0.2-0.5-0.3l-1.1-0.3c-0.4-0.1-0.7-0.3-1-0.5c-0.2-0.2-0.4-0.5-0.4-0.9c0-0.3,0.1-0.6,0.2-0.8
					c0.1-0.2,0.4-0.4,0.7-0.5c0.3-0.1,0.7-0.2,1.1-0.2c0.6,0,1,0.1,1.4,0.4c0.3,0.3,0.5,0.6,0.5,1.1h-0.8c0-0.2-0.1-0.4-0.3-0.6
					c-0.2-0.1-0.4-0.2-0.8-0.2c-0.3,0-0.6,0.1-0.8,0.2c-0.2,0.1-0.3,0.3-0.3,0.6c0,0.2,0.1,0.3,0.2,0.4c0.1,0.1,0.4,0.2,0.6,0.3
					l1,0.3c0.2,0.1,0.4,0.1,0.6,0.2c0.2,0.1,0.3,0.2,0.4,0.3c0.1,0.1,0.2,0.3,0.2,0.4c0,0.1,0.1,0.3,0.1,0.4c0,0.3-0.1,0.6-0.2,0.8
					c-0.2,0.2-0.4,0.4-0.7,0.5C120.1-30,119.8-29.9,119.4-29.9z"/>
				<path class="st16" d="M124.3-30c-0.4,0-0.6,0-0.8-0.1c-0.2-0.1-0.3-0.2-0.4-0.4c-0.1-0.2-0.1-0.4-0.1-0.7v-3.2h-0.8v-0.7h0.9
					l0.2-1.5h0.7v1.5h1.2v0.7h-1.2v3.2c0,0.2,0,0.3,0.1,0.4c0,0.1,0.1,0.1,0.2,0.2s0.2,0,0.4,0h0.6v0.6c-0.1,0-0.2,0-0.3,0.1
					S124.5-30,124.3-30z"/>
				<path class="st16" d="M129-30v-7.2h0.9l3.8,5.6v-5.6h0.9v7.2h-0.8l-3.9-5.7v5.7H129z"/>
				<path class="st16" d="M138.3-29.9c-0.5,0-0.9-0.1-1.2-0.3c-0.4-0.2-0.6-0.5-0.8-0.9c-0.2-0.4-0.3-0.9-0.3-1.5
					c0-0.5,0.1-1,0.3-1.4c0.2-0.4,0.5-0.7,0.8-0.9c0.4-0.2,0.8-0.3,1.3-0.3c0.5,0,0.9,0.1,1.2,0.3c0.4,0.2,0.6,0.5,0.8,0.9
					c0.2,0.4,0.3,0.9,0.3,1.5c0,0.5-0.1,1-0.3,1.4c-0.2,0.4-0.4,0.7-0.8,0.9C139.3-30,138.8-29.9,138.3-29.9z M138.3-30.6
					c0.3,0,0.6-0.1,0.8-0.2c0.2-0.2,0.4-0.4,0.5-0.7c0.1-0.3,0.2-0.6,0.2-1c0-0.4,0-0.7-0.1-1c-0.1-0.3-0.3-0.5-0.5-0.7
					c-0.2-0.2-0.5-0.3-0.8-0.3c-0.3,0-0.6,0.1-0.8,0.2s-0.4,0.4-0.5,0.7c-0.1,0.3-0.2,0.6-0.2,1.1c0,0.4,0,0.7,0.1,1
					c0.1,0.3,0.3,0.5,0.5,0.7C137.7-30.7,138-30.6,138.3-30.6z"/>
				<path class="st16" d="M142.9-30l-1.6-5.2h0.9l1.2,4h0.1l1.2-4h0.7l1.2,4h0.1l1.1-4h0.9L147-30h-0.9l-1.2-3.8l-1.1,3.8H142.9z"/>
			</g>
		</g>
		<g class="st14">
			<path class="st16" d="M-34.4-15v-6.4h-2.3v-0.9h5.5v0.9h-2.2v6.4H-34.4z"/>
			<path class="st16" d="M-30.3-15v-7.4h0.9v3c0.1-0.1,0.2-0.3,0.4-0.4c0.1-0.1,0.3-0.2,0.5-0.3s0.5-0.1,0.7-0.1
				c0.3,0,0.6,0.1,0.9,0.2c0.3,0.1,0.5,0.3,0.7,0.5c0.2,0.2,0.2,0.5,0.2,0.8v3.7h-0.9v-3.5c0-0.3-0.1-0.5-0.3-0.7
				c-0.2-0.2-0.5-0.3-0.8-0.3c-0.2,0-0.4,0-0.6,0.1c-0.2,0.1-0.4,0.2-0.5,0.3s-0.2,0.3-0.2,0.6v3.5H-30.3z"/>
			<path class="st16" d="M-22.4-14.9c-0.5,0-0.9-0.1-1.3-0.3s-0.7-0.5-0.9-0.9c-0.2-0.4-0.3-0.9-0.3-1.4c0-0.5,0.1-1,0.3-1.4
				s0.5-0.7,0.8-1c0.4-0.2,0.8-0.3,1.3-0.3c0.5,0,0.9,0.1,1.2,0.3c0.3,0.2,0.6,0.5,0.8,0.9c0.2,0.4,0.3,0.8,0.3,1.4v0.3h-3.7
				c0,0.3,0.1,0.6,0.2,0.9s0.3,0.5,0.5,0.6c0.2,0.2,0.5,0.2,0.8,0.2c0.3,0,0.6-0.1,0.9-0.2s0.4-0.4,0.5-0.7h0.9
				c-0.1,0.3-0.2,0.6-0.4,0.9c-0.2,0.2-0.5,0.4-0.8,0.5C-21.7-15-22-14.9-22.4-14.9z M-23.9-18h2.8c0-0.3,0-0.6-0.1-0.8
				s-0.3-0.4-0.5-0.6c-0.2-0.1-0.5-0.2-0.8-0.2c-0.3,0-0.6,0.1-0.8,0.2c-0.2,0.2-0.4,0.4-0.5,0.6C-23.8-18.5-23.9-18.3-23.9-18z"/>
			<path class="st16" d="M-16.5-13.4v-6.8h0.9l0,0.9c0.1-0.1,0.1-0.2,0.2-0.3c0.1-0.1,0.2-0.2,0.3-0.3c0.1-0.1,0.3-0.2,0.5-0.2
				c0.2-0.1,0.4-0.1,0.6-0.1c0.4,0,0.8,0.1,1.1,0.3c0.3,0.2,0.6,0.5,0.7,0.9s0.3,0.9,0.3,1.5c0,0.6-0.1,1.1-0.3,1.5
				s-0.4,0.7-0.7,0.9c-0.3,0.2-0.7,0.3-1.2,0.3c-0.2,0-0.4,0-0.6-0.1c-0.2-0.1-0.3-0.2-0.5-0.3c-0.1-0.1-0.2-0.2-0.3-0.3
				s-0.2-0.2-0.2-0.3v2.5H-16.5z M-14.1-15.6c0.4,0,0.8-0.2,1-0.5s0.4-0.8,0.4-1.5c0-0.6-0.1-1.1-0.4-1.4s-0.6-0.5-1.1-0.5
				c-0.5,0-0.8,0.2-1.1,0.5c-0.2,0.4-0.4,0.8-0.4,1.4c0,0.4,0.1,0.7,0.2,1c0.1,0.3,0.3,0.5,0.5,0.7C-14.7-15.7-14.4-15.6-14.1-15.6z
				"/>
			<path class="st16" d="M-9.2-14.9c-0.3,0-0.6-0.1-0.9-0.2c-0.3-0.1-0.5-0.3-0.6-0.5s-0.2-0.5-0.2-0.8c0-0.6,0.2-1,0.6-1.3
				c0.4-0.3,1-0.4,1.9-0.5l0.9,0v-0.4c0-0.3-0.1-0.6-0.3-0.8s-0.5-0.3-0.9-0.3c-0.3,0-0.6,0.1-0.8,0.2s-0.4,0.4-0.4,0.7h-0.8
				c0-0.3,0.1-0.6,0.3-0.9c0.2-0.2,0.4-0.4,0.7-0.5s0.7-0.2,1.1-0.2c0.5,0,0.8,0.1,1.1,0.2s0.5,0.3,0.7,0.6c0.1,0.2,0.2,0.5,0.2,0.9
				v3.6h-0.8l-0.1-1c-0.2,0.4-0.4,0.7-0.8,0.8C-8.5-15-8.8-14.9-9.2-14.9z M-8.9-15.6c0.2,0,0.4,0,0.5-0.1c0.2-0.1,0.3-0.1,0.5-0.3
				c0.1-0.1,0.3-0.2,0.3-0.4c0.1-0.1,0.1-0.3,0.1-0.4v-0.9l-0.8,0c-0.4,0-0.7,0-1,0.1c-0.3,0.1-0.5,0.2-0.6,0.3
				c-0.1,0.2-0.2,0.4-0.2,0.6c0,0.3,0.1,0.5,0.3,0.7C-9.5-15.6-9.2-15.6-8.9-15.6z"/>
			<path class="st16" d="M-4.7-13.3c-0.3,0-0.6,0-0.8-0.1v-0.6l0.5,0c0.2,0,0.3,0,0.5,0c0.1,0,0.2-0.1,0.3-0.1s0.1-0.1,0.2-0.2
				c0-0.1,0.1-0.1,0.1-0.2l0.2-0.5l-2-5h0.9l1.5,4l1.5-4h0.9l-2.2,5.6c-0.1,0.3-0.3,0.6-0.5,0.8c-0.2,0.2-0.3,0.3-0.5,0.4
				S-4.5-13.3-4.7-13.3z"/>
			<path class="st16" d="M0.1-15v-5.2H1v0.8c0.1-0.2,0.3-0.4,0.6-0.6s0.6-0.3,1-0.3c0.2,0,0.4,0,0.6,0.1s0.4,0.2,0.5,0.3
				C3.8-19.8,4-19.6,4-19.4c0.2-0.3,0.4-0.5,0.6-0.6c0.3-0.2,0.6-0.2,0.9-0.2c0.2,0,0.4,0,0.6,0.1s0.4,0.2,0.5,0.3s0.3,0.3,0.4,0.6
				c0.1,0.2,0.2,0.6,0.2,0.9v3.4H6.4v-3.3c0-0.3,0-0.6-0.1-0.7S6-19.3,5.8-19.4s-0.3-0.1-0.5-0.1c-0.2,0-0.3,0-0.5,0.1
				c-0.2,0.1-0.3,0.2-0.5,0.3c-0.1,0.2-0.2,0.4-0.2,0.6v3.5H3.2v-3.6c0-0.2-0.1-0.4-0.2-0.5s-0.2-0.2-0.4-0.3s-0.3-0.1-0.5-0.1
				c-0.2,0-0.4,0-0.5,0.1S1.3-19.2,1.2-19C1.1-18.9,1-18.7,1-18.5v3.5H0.1z"/>
			<path class="st16" d="M10.9-14.9c-0.5,0-0.9-0.1-1.3-0.3S9-15.7,8.8-16.1c-0.2-0.4-0.3-0.9-0.3-1.4c0-0.5,0.1-1,0.3-1.4
				s0.5-0.7,0.8-1c0.4-0.2,0.8-0.3,1.3-0.3c0.5,0,0.9,0.1,1.2,0.3c0.3,0.2,0.6,0.5,0.8,0.9c0.2,0.4,0.3,0.8,0.3,1.4v0.3H9.4
				c0,0.3,0.1,0.6,0.2,0.9s0.3,0.5,0.5,0.6c0.2,0.2,0.5,0.2,0.8,0.2c0.3,0,0.6-0.1,0.9-0.2s0.4-0.4,0.5-0.7h0.9
				c-0.1,0.3-0.2,0.6-0.4,0.9c-0.2,0.2-0.5,0.4-0.8,0.5C11.6-15,11.3-14.9,10.9-14.9z M9.4-18h2.8c0-0.3,0-0.6-0.1-0.8
				s-0.3-0.4-0.5-0.6c-0.2-0.1-0.5-0.2-0.8-0.2c-0.3,0-0.6,0.1-0.8,0.2c-0.2,0.2-0.4,0.4-0.5,0.6C9.5-18.5,9.4-18.3,9.4-18z"/>
			<path class="st16" d="M14.4-15v-5.2h0.9v0.8c0.1-0.1,0.2-0.3,0.3-0.4c0.1-0.1,0.3-0.2,0.5-0.3c0.2-0.1,0.5-0.1,0.7-0.1
				c0.3,0,0.6,0.1,0.9,0.2s0.5,0.3,0.7,0.6c0.2,0.3,0.2,0.6,0.2,1.1v3.4h-0.9v-3.3c0-0.4-0.1-0.7-0.3-0.9c-0.2-0.2-0.5-0.3-0.8-0.3
				c-0.2,0-0.5,0-0.7,0.1c-0.2,0.1-0.4,0.2-0.5,0.3c-0.1,0.2-0.2,0.3-0.2,0.6v3.5H14.4z"/>
			<path class="st16" d="M21.9-15c-0.4,0-0.6,0-0.8-0.1s-0.3-0.2-0.4-0.4c-0.1-0.2-0.1-0.4-0.1-0.7v-3.2h-0.8v-0.7h0.9l0.2-1.5h0.7
				v1.5h1.2v0.7h-1.2v3.2c0,0.2,0,0.3,0.1,0.4c0,0.1,0.1,0.1,0.2,0.2s0.2,0,0.4,0h0.6v0.6c-0.1,0-0.2,0-0.3,0.1
				C22.2-15,22.1-15,21.9-15z"/>
			<path class="st16" d="M26.3-15v-7.4h0.9v3c0.1-0.1,0.2-0.3,0.4-0.4c0.1-0.1,0.3-0.2,0.5-0.3s0.5-0.1,0.7-0.1
				c0.3,0,0.6,0.1,0.9,0.2c0.3,0.1,0.5,0.3,0.7,0.5c0.2,0.2,0.2,0.5,0.2,0.8v3.7h-0.9v-3.5c0-0.3-0.1-0.5-0.3-0.7
				c-0.2-0.2-0.5-0.3-0.8-0.3c-0.2,0-0.4,0-0.6,0.1c-0.2,0.1-0.4,0.2-0.5,0.3s-0.2,0.3-0.2,0.6v3.5H26.3z"/>
			<path class="st16" d="M33.5-14.9c-0.3,0-0.6-0.1-0.9-0.2c-0.3-0.1-0.5-0.3-0.6-0.5s-0.2-0.5-0.2-0.8c0-0.6,0.2-1,0.6-1.3
				c0.4-0.3,1-0.4,1.9-0.5l0.9,0v-0.4c0-0.3-0.1-0.6-0.3-0.8s-0.5-0.3-0.9-0.3c-0.3,0-0.6,0.1-0.8,0.2s-0.4,0.4-0.4,0.7H32
				c0-0.3,0.1-0.6,0.3-0.9c0.2-0.2,0.4-0.4,0.7-0.5s0.7-0.2,1.1-0.2c0.5,0,0.8,0.1,1.1,0.2s0.5,0.3,0.7,0.6c0.1,0.2,0.2,0.5,0.2,0.9
				v3.6h-0.8l-0.1-1c-0.2,0.4-0.4,0.7-0.8,0.8C34.2-15,33.9-14.9,33.5-14.9z M33.8-15.6c0.2,0,0.4,0,0.5-0.1
				c0.2-0.1,0.3-0.1,0.5-0.3c0.1-0.1,0.3-0.2,0.3-0.4c0.1-0.1,0.1-0.3,0.1-0.4v-0.9l-0.8,0c-0.4,0-0.7,0-1,0.1
				c-0.3,0.1-0.5,0.2-0.6,0.3c-0.1,0.2-0.2,0.4-0.2,0.6c0,0.3,0.1,0.5,0.3,0.7C33.2-15.6,33.4-15.6,33.8-15.6z"/>
			<path class="st16" d="M39.4-14.9c-0.4,0-0.7-0.1-1-0.2c-0.3-0.1-0.6-0.3-0.8-0.5s-0.3-0.5-0.4-0.9h0.8c0,0.2,0.1,0.4,0.2,0.5
				c0.1,0.1,0.3,0.2,0.5,0.3s0.4,0.1,0.6,0.1c0.4,0,0.6-0.1,0.8-0.2s0.3-0.3,0.3-0.6c0-0.2-0.1-0.3-0.2-0.5
				c-0.1-0.1-0.3-0.2-0.5-0.3l-1.1-0.3c-0.4-0.1-0.7-0.3-1-0.5c-0.2-0.2-0.4-0.5-0.4-0.9c0-0.3,0.1-0.6,0.2-0.8
				c0.1-0.2,0.4-0.4,0.7-0.5c0.3-0.1,0.7-0.2,1.1-0.2c0.6,0,1,0.1,1.4,0.4s0.5,0.6,0.5,1.1h-0.8c0-0.2-0.1-0.4-0.3-0.6
				c-0.2-0.1-0.4-0.2-0.8-0.2c-0.3,0-0.6,0.1-0.8,0.2c-0.2,0.1-0.3,0.3-0.3,0.6c0,0.2,0.1,0.3,0.2,0.4c0.1,0.1,0.4,0.2,0.6,0.3
				l1,0.3c0.2,0.1,0.4,0.1,0.6,0.2s0.3,0.2,0.4,0.3c0.1,0.1,0.2,0.3,0.2,0.4c0,0.1,0.1,0.3,0.1,0.4c0,0.3-0.1,0.6-0.2,0.8
				s-0.4,0.4-0.7,0.5C40.2-15,39.8-14.9,39.4-14.9z"/>
			<path class="st16" d="M47.5-14.9c-0.3,0-0.6,0-0.8-0.1c-0.2-0.1-0.4-0.2-0.5-0.3s-0.2-0.3-0.3-0.4c-0.1-0.1-0.1-0.2-0.2-0.3
				L45.7-15H45v-7.4h0.9v3.1c0-0.1,0.1-0.2,0.2-0.3s0.2-0.2,0.3-0.3c0.1-0.1,0.3-0.2,0.5-0.2c0.2-0.1,0.4-0.1,0.7-0.1
				c0.6,0,1.2,0.2,1.5,0.7c0.4,0.5,0.6,1.1,0.6,2c0,0.5-0.1,1-0.2,1.4c-0.2,0.4-0.4,0.7-0.7,0.9C48.4-15,48-14.9,47.5-14.9z
				 M47.4-15.6c0.4,0,0.8-0.2,1-0.5c0.3-0.3,0.4-0.8,0.4-1.6c0-0.6-0.1-1.1-0.4-1.4c-0.2-0.3-0.6-0.5-1.1-0.5
				c-0.3,0-0.6,0.1-0.8,0.2c-0.2,0.1-0.4,0.4-0.5,0.6c-0.1,0.3-0.1,0.6-0.2,1c0,0.7,0.1,1.2,0.3,1.6C46.5-15.8,46.8-15.6,47.4-15.6z
				"/>
			<path class="st16" d="M53.1-14.9c-0.5,0-0.9-0.1-1.3-0.3s-0.7-0.5-0.9-0.9c-0.2-0.4-0.3-0.9-0.3-1.4c0-0.5,0.1-1,0.3-1.4
				s0.5-0.7,0.8-1c0.4-0.2,0.8-0.3,1.3-0.3c0.5,0,0.9,0.1,1.2,0.3c0.3,0.2,0.6,0.5,0.8,0.9c0.2,0.4,0.3,0.8,0.3,1.4v0.3h-3.7
				c0,0.3,0.1,0.6,0.2,0.9s0.3,0.5,0.5,0.6c0.2,0.2,0.5,0.2,0.8,0.2c0.3,0,0.6-0.1,0.9-0.2s0.4-0.4,0.5-0.7h0.9
				c-0.1,0.3-0.2,0.6-0.4,0.9c-0.2,0.2-0.5,0.4-0.8,0.5C53.8-15,53.5-14.9,53.1-14.9z M51.6-18h2.8c0-0.3,0-0.6-0.1-0.8
				s-0.3-0.4-0.5-0.6c-0.2-0.1-0.5-0.2-0.8-0.2c-0.3,0-0.6,0.1-0.8,0.2c-0.2,0.2-0.4,0.4-0.5,0.6C51.7-18.5,51.6-18.3,51.6-18z"/>
			<path class="st16" d="M58.8-14.9c-0.5,0-0.9-0.1-1.3-0.3s-0.7-0.5-0.9-0.9c-0.2-0.4-0.3-0.9-0.3-1.4c0-0.5,0.1-1,0.3-1.4
				s0.5-0.7,0.8-1c0.4-0.2,0.8-0.3,1.3-0.3c0.5,0,0.9,0.1,1.2,0.3c0.3,0.2,0.6,0.5,0.8,0.9c0.2,0.4,0.3,0.8,0.3,1.4v0.3h-3.7
				c0,0.3,0.1,0.6,0.2,0.9s0.3,0.5,0.5,0.6c0.2,0.2,0.5,0.2,0.8,0.2c0.3,0,0.6-0.1,0.9-0.2s0.4-0.4,0.5-0.7H61
				c-0.1,0.3-0.2,0.6-0.4,0.9c-0.2,0.2-0.5,0.4-0.8,0.5C59.4-15,59.1-14.9,58.8-14.9z M57.3-18h2.8c0-0.3,0-0.6-0.1-0.8
				s-0.3-0.4-0.5-0.6c-0.2-0.1-0.5-0.2-0.8-0.2c-0.3,0-0.6,0.1-0.8,0.2c-0.2,0.2-0.4,0.4-0.5,0.6C57.3-18.5,57.3-18.3,57.3-18z"/>
			<path class="st16" d="M62.3-15v-5.2h0.9v0.8c0.1-0.1,0.2-0.3,0.3-0.4c0.1-0.1,0.3-0.2,0.5-0.3c0.2-0.1,0.5-0.1,0.7-0.1
				c0.3,0,0.6,0.1,0.9,0.2s0.5,0.3,0.7,0.6c0.2,0.3,0.2,0.6,0.2,1.1v3.4h-0.9v-3.3c0-0.4-0.1-0.7-0.3-0.9c-0.2-0.2-0.5-0.3-0.8-0.3
				c-0.2,0-0.5,0-0.7,0.1c-0.2,0.1-0.4,0.2-0.5,0.3c-0.1,0.2-0.2,0.3-0.2,0.6v3.5H62.3z"/>
			<path class="st16" d="M70.5-13.4v-6.8h0.9l0,0.9c0.1-0.1,0.1-0.2,0.2-0.3c0.1-0.1,0.2-0.2,0.3-0.3c0.1-0.1,0.3-0.2,0.5-0.2
				c0.2-0.1,0.4-0.1,0.6-0.1c0.4,0,0.8,0.1,1.1,0.3c0.3,0.2,0.6,0.5,0.7,0.9s0.3,0.9,0.3,1.5c0,0.6-0.1,1.1-0.3,1.5
				s-0.4,0.7-0.7,0.9c-0.3,0.2-0.7,0.3-1.2,0.3c-0.2,0-0.4,0-0.6-0.1c-0.2-0.1-0.3-0.2-0.5-0.3c-0.1-0.1-0.2-0.2-0.3-0.3
				s-0.2-0.2-0.2-0.3v2.5H70.5z M72.8-15.6c0.4,0,0.8-0.2,1-0.5s0.4-0.8,0.4-1.5c0-0.6-0.1-1.1-0.4-1.4s-0.6-0.5-1.1-0.5
				c-0.5,0-0.8,0.2-1.1,0.5c-0.2,0.4-0.4,0.8-0.4,1.4c0,0.4,0.1,0.7,0.2,1c0.1,0.3,0.3,0.5,0.5,0.7C72.3-15.7,72.5-15.6,72.8-15.6z"
				/>
			<path class="st16" d="M76.4-15v-5.2h0.9v1c0.1-0.2,0.2-0.5,0.4-0.6c0.2-0.2,0.3-0.3,0.5-0.4s0.4-0.1,0.6-0.1c0.1,0,0.2,0,0.2,0
				s0.1,0,0.2,0v0.9c0,0-0.1,0-0.2,0c-0.1,0-0.1,0-0.2,0c-0.2,0-0.4,0-0.6,0c-0.2,0-0.3,0.1-0.5,0.2c-0.1,0.1-0.2,0.2-0.3,0.4
				c-0.1,0.2-0.1,0.3-0.1,0.6v3.2H76.4z"/>
			<path class="st16" d="M82.3-14.9c-0.5,0-0.9-0.1-1.2-0.3c-0.4-0.2-0.6-0.5-0.8-0.9C80.1-16.5,80-17,80-17.6c0-0.5,0.1-1,0.3-1.4
				c0.2-0.4,0.5-0.7,0.8-0.9c0.4-0.2,0.8-0.3,1.3-0.3c0.5,0,0.9,0.1,1.2,0.3c0.4,0.2,0.6,0.5,0.8,0.9s0.3,0.9,0.3,1.5
				c0,0.5-0.1,1-0.3,1.4c-0.2,0.4-0.4,0.7-0.8,0.9C83.3-15,82.8-14.9,82.3-14.9z M82.3-15.6c0.3,0,0.6-0.1,0.8-0.2
				c0.2-0.2,0.4-0.4,0.5-0.7s0.2-0.6,0.2-1c0-0.4,0-0.7-0.1-1c-0.1-0.3-0.3-0.5-0.5-0.7c-0.2-0.2-0.5-0.3-0.8-0.3
				c-0.3,0-0.6,0.1-0.8,0.2s-0.4,0.4-0.5,0.7c-0.1,0.3-0.2,0.6-0.2,1.1c0,0.4,0,0.7,0.1,1c0.1,0.3,0.3,0.5,0.5,0.7
				C81.7-15.7,82-15.6,82.3-15.6z"/>
			<path class="st16" d="M88-14.9c-0.5,0-0.9-0.1-1.2-0.3c-0.4-0.2-0.6-0.5-0.8-0.9c-0.2-0.4-0.3-0.9-0.3-1.5c0-0.5,0.1-1,0.3-1.4
				s0.5-0.7,0.8-0.9c0.4-0.2,0.8-0.3,1.3-0.3c0.4,0,0.7,0.1,1,0.2s0.5,0.3,0.7,0.6s0.3,0.6,0.4,0.9h-0.8c0-0.2-0.1-0.3-0.2-0.5
				c-0.1-0.1-0.2-0.3-0.4-0.4c-0.2-0.1-0.4-0.1-0.6-0.1c-0.4,0-0.8,0.2-1.1,0.5c-0.3,0.3-0.4,0.8-0.4,1.5c0,0.6,0.1,1.1,0.4,1.4
				c0.3,0.4,0.6,0.5,1.1,0.5c0.2,0,0.4,0,0.6-0.1s0.3-0.2,0.4-0.4c0.1-0.2,0.2-0.3,0.2-0.5h0.8c0,0.3-0.2,0.6-0.4,0.9
				c-0.2,0.3-0.4,0.4-0.7,0.6S88.4-14.9,88-14.9z"/>
			<path class="st16" d="M93.5-14.9c-0.5,0-0.9-0.1-1.3-0.3c-0.4-0.2-0.7-0.5-0.9-0.9c-0.2-0.4-0.3-0.9-0.3-1.4c0-0.5,0.1-1,0.3-1.4
				s0.5-0.7,0.8-1c0.4-0.2,0.8-0.3,1.3-0.3c0.5,0,0.9,0.1,1.2,0.3c0.3,0.2,0.6,0.5,0.8,0.9c0.2,0.4,0.3,0.8,0.3,1.4v0.3H92
				c0,0.3,0.1,0.6,0.2,0.9s0.3,0.5,0.5,0.6c0.2,0.2,0.5,0.2,0.8,0.2c0.3,0,0.6-0.1,0.9-0.2s0.4-0.4,0.5-0.7h0.9
				c-0.1,0.3-0.2,0.6-0.4,0.9c-0.2,0.2-0.5,0.4-0.8,0.5C94.2-15,93.8-14.9,93.5-14.9z M92-18h2.8c0-0.3,0-0.6-0.1-0.8
				c-0.1-0.2-0.3-0.4-0.5-0.6c-0.2-0.1-0.5-0.2-0.8-0.2c-0.3,0-0.6,0.1-0.8,0.2c-0.2,0.2-0.4,0.4-0.5,0.6C92-18.5,92-18.3,92-18z"/>
			<path class="st16" d="M98.8-14.9c-0.4,0-0.7-0.1-1-0.2s-0.6-0.3-0.8-0.5s-0.3-0.5-0.4-0.9h0.8c0,0.2,0.1,0.4,0.2,0.5
				c0.1,0.1,0.3,0.2,0.5,0.3s0.4,0.1,0.6,0.1c0.3,0,0.6-0.1,0.8-0.2c0.2-0.1,0.3-0.3,0.3-0.6c0-0.2-0.1-0.3-0.2-0.5
				c-0.1-0.1-0.3-0.2-0.5-0.3l-1.1-0.3c-0.4-0.1-0.7-0.3-1-0.5c-0.2-0.2-0.4-0.5-0.4-0.9c0-0.3,0.1-0.6,0.2-0.8
				c0.1-0.2,0.4-0.4,0.7-0.5c0.3-0.1,0.7-0.2,1.1-0.2c0.6,0,1,0.1,1.4,0.4s0.5,0.6,0.5,1.1h-0.8c0-0.2-0.1-0.4-0.3-0.6
				c-0.2-0.1-0.4-0.2-0.8-0.2c-0.3,0-0.6,0.1-0.8,0.2c-0.2,0.1-0.3,0.3-0.3,0.6c0,0.2,0.1,0.3,0.2,0.4c0.1,0.1,0.4,0.2,0.6,0.3
				l1,0.3c0.2,0.1,0.4,0.1,0.6,0.2c0.2,0.1,0.3,0.2,0.4,0.3c0.1,0.1,0.2,0.3,0.2,0.4c0,0.1,0.1,0.3,0.1,0.4c0,0.3-0.1,0.6-0.2,0.8
				c-0.2,0.2-0.4,0.4-0.7,0.5C99.6-15,99.2-14.9,98.8-14.9z"/>
			<path class="st16" d="M103.8-14.9c-0.4,0-0.7-0.1-1-0.2s-0.6-0.3-0.8-0.5s-0.3-0.5-0.4-0.9h0.8c0,0.2,0.1,0.4,0.2,0.5
				c0.1,0.1,0.3,0.2,0.5,0.3s0.4,0.1,0.6,0.1c0.3,0,0.6-0.1,0.8-0.2c0.2-0.1,0.3-0.3,0.3-0.6c0-0.2-0.1-0.3-0.2-0.5
				c-0.1-0.1-0.3-0.2-0.5-0.3l-1.1-0.3c-0.4-0.1-0.7-0.3-1-0.5c-0.2-0.2-0.4-0.5-0.4-0.9c0-0.3,0.1-0.6,0.2-0.8
				c0.1-0.2,0.4-0.4,0.7-0.5c0.3-0.1,0.7-0.2,1.1-0.2c0.6,0,1,0.1,1.4,0.4s0.5,0.6,0.5,1.1h-0.8c0-0.2-0.1-0.4-0.3-0.6
				c-0.2-0.1-0.4-0.2-0.8-0.2c-0.3,0-0.6,0.1-0.8,0.2c-0.2,0.1-0.3,0.3-0.3,0.6c0,0.2,0.1,0.3,0.2,0.4c0.1,0.1,0.4,0.2,0.6,0.3
				l1,0.3c0.2,0.1,0.4,0.1,0.6,0.2c0.2,0.1,0.3,0.2,0.4,0.3c0.1,0.1,0.2,0.3,0.2,0.4c0,0.1,0.1,0.3,0.1,0.4c0,0.3-0.1,0.6-0.2,0.8
				c-0.2,0.2-0.4,0.4-0.7,0.5C104.6-15,104.3-14.9,103.8-14.9z"/>
			<path class="st16" d="M109.2-14.9c-0.5,0-0.9-0.1-1.3-0.3c-0.4-0.2-0.7-0.5-0.9-0.9s-0.3-0.9-0.3-1.4c0-0.5,0.1-1,0.3-1.4
				s0.5-0.7,0.8-1c0.4-0.2,0.8-0.3,1.3-0.3c0.5,0,0.9,0.1,1.2,0.3s0.6,0.5,0.8,0.9s0.3,0.8,0.3,1.4v0.3h-3.7c0,0.3,0.1,0.6,0.2,0.9
				s0.3,0.5,0.5,0.6c0.2,0.2,0.5,0.2,0.8,0.2c0.3,0,0.6-0.1,0.9-0.2s0.4-0.4,0.5-0.7h0.9c-0.1,0.3-0.2,0.6-0.4,0.9s-0.5,0.4-0.8,0.5
				C109.9-15,109.6-14.9,109.2-14.9z M107.7-18h2.8c0-0.3,0-0.6-0.2-0.8c-0.1-0.2-0.3-0.4-0.5-0.6c-0.2-0.1-0.5-0.2-0.8-0.2
				c-0.3,0-0.6,0.1-0.8,0.2c-0.2,0.2-0.4,0.4-0.5,0.6C107.8-18.5,107.7-18.3,107.7-18z"/>
			<path class="st16" d="M114.6-14.9c-0.7,0-1.2-0.2-1.6-0.7s-0.6-1.1-0.6-2c0-0.5,0.1-1,0.2-1.4c0.2-0.4,0.4-0.7,0.7-0.9
				c0.3-0.2,0.7-0.3,1.2-0.3c0.2,0,0.5,0,0.7,0.1c0.2,0.1,0.4,0.1,0.5,0.2c0.1,0.1,0.3,0.2,0.3,0.3c0.1,0.1,0.2,0.2,0.2,0.3v-3.1
				h0.9v7.4h-0.7l-0.1-1.1c0,0.1-0.1,0.2-0.2,0.3c-0.1,0.1-0.2,0.3-0.3,0.4s-0.3,0.2-0.5,0.3C115.1-14.9,114.9-14.9,114.6-14.9z
				 M114.8-15.6c0.5,0,0.9-0.2,1.1-0.5s0.3-0.8,0.3-1.6c0-0.4-0.1-0.7-0.2-1s-0.2-0.5-0.5-0.6c-0.2-0.1-0.5-0.2-0.8-0.2
				c-0.4,0-0.8,0.2-1,0.5c-0.3,0.3-0.4,0.8-0.4,1.4c0,0.6,0.1,1.1,0.4,1.5C113.9-15.8,114.3-15.6,114.8-15.6z"/>
			<path class="st16" d="M118.5-15v-1.2h1.1v1.2H118.5z"/>
			<path class="st16" d="M125.1-15v-6.4h-2.3v-0.9h5.5v0.9H126v6.4H125.1z"/>
			<path class="st16" d="M129.2-15v-7.4h0.9v3c0.1-0.1,0.2-0.3,0.4-0.4c0.1-0.1,0.3-0.2,0.5-0.3s0.5-0.1,0.7-0.1
				c0.3,0,0.6,0.1,0.9,0.2s0.5,0.3,0.7,0.5c0.2,0.2,0.2,0.5,0.2,0.8v3.7h-0.9v-3.5c0-0.3-0.1-0.5-0.3-0.7c-0.2-0.2-0.5-0.3-0.8-0.3
				c-0.2,0-0.4,0-0.7,0.1c-0.2,0.1-0.4,0.2-0.5,0.3s-0.2,0.3-0.2,0.6v3.5H129.2z"/>
			<path class="st16" d="M137.2-14.9c-0.5,0-0.9-0.1-1.3-0.3s-0.7-0.5-0.9-0.9c-0.2-0.4-0.3-0.9-0.3-1.4c0-0.5,0.1-1,0.3-1.4
				c0.2-0.4,0.5-0.7,0.8-1c0.4-0.2,0.8-0.3,1.3-0.3c0.5,0,0.9,0.1,1.2,0.3c0.3,0.2,0.6,0.5,0.8,0.9c0.2,0.4,0.3,0.8,0.3,1.4v0.3
				h-3.7c0,0.3,0.1,0.6,0.2,0.9c0.1,0.3,0.3,0.5,0.5,0.6c0.2,0.2,0.5,0.2,0.8,0.2c0.3,0,0.6-0.1,0.9-0.2s0.4-0.4,0.5-0.7h0.9
				c-0.1,0.3-0.2,0.6-0.4,0.9s-0.5,0.4-0.8,0.5C137.8-15,137.5-14.9,137.2-14.9z M135.7-18h2.8c0-0.3-0.1-0.6-0.2-0.8
				s-0.3-0.4-0.5-0.6c-0.2-0.1-0.5-0.2-0.8-0.2c-0.3,0-0.6,0.1-0.8,0.2c-0.2,0.2-0.4,0.4-0.5,0.6C135.7-18.5,135.7-18.3,135.7-18z"
				/>
		</g>
		<g class="st14">
			<path class="st16" d="M-34.3-1c-0.4,0-0.6,0-0.8-0.1s-0.3-0.2-0.4-0.4c-0.1-0.2-0.1-0.4-0.1-0.7v-3.2h-0.8v-0.7h0.9l0.2-1.5h0.7
				v1.5h1.2v0.7h-1.2v3.2c0,0.2,0,0.3,0.1,0.4c0,0.1,0.1,0.1,0.2,0.2s0.2,0,0.4,0h0.6v0.6c-0.1,0-0.2,0-0.3,0.1C-34-1-34.1-1-34.3-1
				z"/>
			<path class="st16" d="M-30.4-0.9c-0.5,0-0.9-0.1-1.2-0.3c-0.4-0.2-0.6-0.5-0.8-0.9c-0.2-0.4-0.3-0.9-0.3-1.5c0-0.5,0.1-1,0.3-1.4
				c0.2-0.4,0.5-0.7,0.8-0.9c0.4-0.2,0.8-0.3,1.3-0.3c0.5,0,0.9,0.1,1.2,0.3c0.4,0.2,0.6,0.5,0.8,0.9s0.3,0.9,0.3,1.5
				c0,0.5-0.1,1-0.3,1.4c-0.2,0.4-0.4,0.7-0.8,0.9C-29.5-1-29.9-0.9-30.4-0.9z M-30.4-1.6c0.3,0,0.6-0.1,0.8-0.2
				c0.2-0.2,0.4-0.4,0.5-0.7s0.2-0.6,0.2-1c0-0.4,0-0.7-0.1-1c-0.1-0.3-0.3-0.5-0.5-0.7c-0.2-0.2-0.5-0.3-0.8-0.3
				c-0.3,0-0.6,0.1-0.8,0.2s-0.4,0.4-0.5,0.7c-0.1,0.3-0.2,0.6-0.2,1.1c0,0.4,0,0.7,0.1,1c0.1,0.3,0.3,0.5,0.5,0.7
				C-31-1.7-30.7-1.6-30.4-1.6z"/>
			<path class="st16" d="M-25.2-1c-0.4,0-0.6,0-0.8-0.1s-0.3-0.2-0.4-0.4c-0.1-0.2-0.1-0.4-0.1-0.7v-3.2h-0.8v-0.7h0.9l0.2-1.5h0.7
				v1.5h1.2v0.7h-1.2v3.2c0,0.2,0,0.3,0.1,0.4c0,0.1,0.1,0.1,0.2,0.2s0.2,0,0.4,0h0.6v0.6c-0.1,0-0.2,0-0.3,0.1C-24.8-1-25-1-25.2-1
				z"/>
			<path class="st16" d="M-21.8-0.9c-0.3,0-0.6-0.1-0.9-0.2c-0.3-0.1-0.5-0.3-0.6-0.5s-0.2-0.5-0.2-0.8c0-0.6,0.2-1,0.6-1.3
				c0.4-0.3,1-0.4,1.9-0.5l0.9,0v-0.4c0-0.3-0.1-0.6-0.3-0.8s-0.5-0.3-0.9-0.3c-0.3,0-0.6,0.1-0.8,0.2s-0.4,0.4-0.4,0.7h-0.8
				c0-0.3,0.1-0.6,0.3-0.9c0.2-0.2,0.4-0.4,0.7-0.5s0.7-0.2,1.1-0.2c0.5,0,0.8,0.1,1.1,0.2s0.5,0.3,0.7,0.6c0.1,0.2,0.2,0.5,0.2,0.9
				V-1h-0.8L-20-2c-0.2,0.4-0.4,0.7-0.8,0.8C-21-1-21.4-0.9-21.8-0.9z M-21.5-1.6c0.2,0,0.4,0,0.5-0.1c0.2-0.1,0.3-0.1,0.5-0.3
				c0.1-0.1,0.3-0.2,0.3-0.4c0.1-0.1,0.1-0.3,0.1-0.4v-0.9l-0.8,0c-0.4,0-0.7,0-1,0.1c-0.3,0.1-0.5,0.2-0.6,0.3
				c-0.1,0.2-0.2,0.4-0.2,0.6c0,0.3,0.1,0.5,0.3,0.7C-22.1-1.6-21.8-1.6-21.5-1.6z"/>
			<path class="st16" d="M-16.4-0.9c-0.3,0-0.5,0-0.7-0.1c-0.2-0.1-0.3-0.2-0.4-0.3s-0.2-0.3-0.2-0.4c0-0.2,0-0.3,0-0.5v-6.1h0.9v6
				c0,0.3,0.1,0.5,0.2,0.6c0.1,0.1,0.2,0.2,0.4,0.2l0.3,0V-1C-16-1-16.1-1-16.1-1C-16.2-0.9-16.3-0.9-16.4-0.9z"/>
			<path class="st16" d="M-10.8-0.9c-0.3,0-0.6-0.1-0.9-0.2c-0.3-0.1-0.5-0.3-0.6-0.5s-0.2-0.5-0.2-0.8c0-0.6,0.2-1,0.6-1.3
				c0.4-0.3,1-0.4,1.9-0.5l0.9,0v-0.4c0-0.3-0.1-0.6-0.3-0.8s-0.5-0.3-0.9-0.3c-0.3,0-0.6,0.1-0.8,0.2s-0.4,0.4-0.4,0.7h-0.8
				c0-0.3,0.1-0.6,0.3-0.9c0.2-0.2,0.4-0.4,0.7-0.5s0.7-0.2,1.1-0.2c0.5,0,0.8,0.1,1.1,0.2s0.5,0.3,0.7,0.6C-8.2-5.3-8.1-5-8.1-4.6
				V-1h-0.8L-9-2c-0.2,0.4-0.4,0.7-0.8,0.8C-10.1-1-10.4-0.9-10.8-0.9z M-10.5-1.6c0.2,0,0.4,0,0.5-0.1c0.2-0.1,0.3-0.1,0.5-0.3
				C-9.4-2-9.2-2.1-9.1-2.3C-9.1-2.4-9-2.6-9-2.7v-0.9l-0.8,0c-0.4,0-0.7,0-1,0.1c-0.3,0.1-0.5,0.2-0.6,0.3
				c-0.1,0.2-0.2,0.4-0.2,0.6c0,0.3,0.1,0.5,0.3,0.7C-11.1-1.6-10.8-1.6-10.5-1.6z"/>
			<path class="st16" d="M-6.7-1v-5.2h0.9v0.8C-5.6-5.6-5.5-5.8-5.2-6s0.6-0.3,1-0.3c0.2,0,0.4,0,0.6,0.1S-3.3-6-3.1-5.9
				C-3-5.8-2.8-5.6-2.7-5.4C-2.6-5.7-2.4-5.9-2.1-6c0.3-0.2,0.6-0.2,0.9-0.2c0.2,0,0.4,0,0.6,0.1S-0.2-6,0-5.9s0.3,0.3,0.4,0.6
				c0.1,0.2,0.2,0.6,0.2,0.9V-1h-0.9v-3.3c0-0.3,0-0.6-0.1-0.7s-0.2-0.3-0.4-0.4s-0.3-0.1-0.5-0.1c-0.2,0-0.3,0-0.5,0.1
				c-0.2,0.1-0.3,0.2-0.5,0.3c-0.1,0.2-0.2,0.4-0.2,0.6V-1h-0.9v-3.6c0-0.2-0.1-0.4-0.2-0.5S-4-5.3-4.1-5.4s-0.3-0.1-0.5-0.1
				c-0.2,0-0.4,0-0.5,0.1S-5.5-5.2-5.6-5c-0.1,0.2-0.2,0.3-0.2,0.6V-1H-6.7z"/>
			<path class="st16" d="M4-0.9C3.6-0.9,3.1-1,2.8-1.2C2.4-1.4,2.2-1.7,2-2.1C1.8-2.5,1.7-3,1.7-3.6c0-0.5,0.1-1,0.3-1.4
				c0.2-0.4,0.5-0.7,0.8-0.9C3.1-6.2,3.5-6.3,4-6.3c0.5,0,0.9,0.1,1.2,0.3C5.6-5.7,5.9-5.4,6.1-5s0.3,0.9,0.3,1.5
				c0,0.5-0.1,1-0.3,1.4C5.9-1.8,5.7-1.5,5.3-1.2C5-1,4.6-0.9,4-0.9z M4-1.6c0.3,0,0.6-0.1,0.8-0.2C5-2,5.2-2.2,5.3-2.5
				s0.2-0.6,0.2-1c0-0.4,0-0.7-0.1-1C5.2-4.9,5.1-5.1,4.9-5.3C4.7-5.5,4.4-5.5,4-5.5c-0.3,0-0.6,0.1-0.8,0.2S2.9-4.9,2.8-4.6
				C2.6-4.3,2.6-4,2.6-3.6c0,0.4,0,0.7,0.1,1C2.8-2.3,3-2.1,3.2-1.9C3.4-1.7,3.7-1.6,4-1.6z"/>
			<path class="st16" d="M9.5-0.9C9.2-0.9,9-0.9,8.7-1S8.3-1.2,8.1-1.3C7.9-1.5,7.8-1.7,7.7-1.9S7.5-2.4,7.5-2.7v-3.5h0.9v3.4
				c0,0.3,0.1,0.6,0.3,0.8s0.5,0.3,0.9,0.3c0.4,0,0.7-0.1,0.9-0.3C10.9-2.1,11-2.4,11-2.8v-3.4h0.9V-1h-0.7l-0.1-1
				c-0.1,0.3-0.2,0.5-0.3,0.6c-0.2,0.2-0.3,0.3-0.5,0.4C10-0.9,9.8-0.9,9.5-0.9z"/>
			<path class="st16" d="M13.5-1v-5.2h0.9v0.8c0.1-0.1,0.2-0.3,0.3-0.4c0.1-0.1,0.3-0.2,0.5-0.3c0.2-0.1,0.5-0.1,0.7-0.1
				c0.3,0,0.6,0.1,0.9,0.2s0.5,0.3,0.7,0.6c0.2,0.3,0.2,0.6,0.2,1.1V-1h-0.9v-3.3c0-0.4-0.1-0.7-0.3-0.9c-0.2-0.2-0.5-0.3-0.8-0.3
				c-0.2,0-0.5,0-0.7,0.1c-0.2,0.1-0.4,0.2-0.5,0.3c-0.1,0.2-0.2,0.3-0.2,0.6V-1H13.5z"/>
			<path class="st16" d="M20.9-1c-0.4,0-0.6,0-0.8-0.1s-0.3-0.2-0.4-0.4c-0.1-0.2-0.1-0.4-0.1-0.7v-3.2h-0.8v-0.7h0.9l0.2-1.5h0.7
				v1.5h1.2v0.7h-1.2v3.2c0,0.2,0,0.3,0.1,0.4c0,0.1,0.1,0.1,0.2,0.2s0.2,0,0.4,0h0.6v0.6c-0.1,0-0.2,0-0.3,0.1
				C21.3-1,21.1-1,20.9-1z"/>
			<path class="st16" d="M27.1-0.9c-0.7,0-1.2-0.2-1.6-0.7c-0.4-0.5-0.6-1.1-0.6-2c0-0.5,0.1-1,0.2-1.4c0.2-0.4,0.4-0.7,0.7-0.9
				c0.3-0.2,0.7-0.3,1.2-0.3c0.2,0,0.5,0,0.7,0.1S28-6,28.2-5.9s0.3,0.2,0.3,0.3c0.1,0.1,0.2,0.2,0.2,0.3v-3.1h0.9V-1H29l-0.1-1.1
				c0,0.1-0.1,0.2-0.2,0.3c-0.1,0.1-0.2,0.3-0.3,0.4c-0.1,0.1-0.3,0.2-0.5,0.3C27.7-0.9,27.4-0.9,27.1-0.9z M27.3-1.6
				c0.5,0,0.9-0.2,1.1-0.5s0.3-0.8,0.3-1.6c0-0.4-0.1-0.7-0.1-1s-0.2-0.5-0.5-0.6c-0.2-0.1-0.5-0.2-0.8-0.2c-0.4,0-0.8,0.2-1,0.5
				c-0.3,0.3-0.4,0.8-0.4,1.4c0,0.6,0.1,1.1,0.4,1.5C26.5-1.8,26.8-1.6,27.3-1.6z"/>
			<path class="st16" d="M33.4-0.9c-0.5,0-0.9-0.1-1.3-0.3s-0.7-0.5-0.9-0.9C31-2.5,30.9-3,30.9-3.5c0-0.5,0.1-1,0.3-1.4
				s0.5-0.7,0.8-1c0.4-0.2,0.8-0.3,1.3-0.3c0.5,0,0.9,0.1,1.2,0.3c0.3,0.2,0.6,0.5,0.8,0.9c0.2,0.4,0.3,0.8,0.3,1.4v0.3h-3.7
				c0,0.3,0.1,0.6,0.2,0.9s0.3,0.5,0.5,0.6c0.2,0.2,0.5,0.2,0.8,0.2c0.3,0,0.6-0.1,0.9-0.2s0.4-0.4,0.5-0.7h0.9
				c-0.1,0.3-0.2,0.6-0.4,0.9c-0.2,0.2-0.5,0.4-0.8,0.5C34-1,33.7-0.9,33.4-0.9z M31.9-4h2.8c0-0.3,0-0.6-0.1-0.8s-0.3-0.4-0.5-0.6
				c-0.2-0.1-0.5-0.2-0.8-0.2c-0.3,0-0.6,0.1-0.8,0.2C32.3-5.2,32.1-5,32-4.7C31.9-4.5,31.9-4.3,31.9-4z"/>
			<path class="st16" d="M38.7-0.9c-0.7,0-1.2-0.2-1.6-0.7c-0.4-0.5-0.6-1.1-0.6-2c0-0.5,0.1-1,0.2-1.4c0.2-0.4,0.4-0.7,0.7-0.9
				c0.3-0.2,0.7-0.3,1.2-0.3c0.2,0,0.5,0,0.7,0.1s0.4,0.1,0.5,0.2s0.3,0.2,0.3,0.3c0.1,0.1,0.2,0.2,0.2,0.3v-3.1h0.9V-1h-0.7
				l-0.1-1.1c0,0.1-0.1,0.2-0.2,0.3c-0.1,0.1-0.2,0.3-0.3,0.4c-0.1,0.1-0.3,0.2-0.5,0.3C39.3-0.9,39-0.9,38.7-0.9z M38.9-1.6
				c0.5,0,0.9-0.2,1.1-0.5s0.3-0.8,0.3-1.6c0-0.4-0.1-0.7-0.1-1S40-5.2,39.8-5.3c-0.2-0.1-0.5-0.2-0.8-0.2c-0.4,0-0.8,0.2-1,0.5
				c-0.3,0.3-0.4,0.8-0.4,1.4c0,0.6,0.1,1.1,0.4,1.5C38.1-1.8,38.4-1.6,38.9-1.6z"/>
			<path class="st16" d="M44.7-0.9c-0.3,0-0.5,0-0.8-0.1s-0.4-0.2-0.6-0.3c-0.2-0.1-0.3-0.3-0.4-0.5s-0.2-0.5-0.2-0.8v-3.5h0.9v3.4
				c0,0.3,0.1,0.6,0.3,0.8s0.5,0.3,0.9,0.3c0.4,0,0.7-0.1,0.9-0.3c0.2-0.2,0.3-0.5,0.3-0.9v-3.4h0.9V-1h-0.7l-0.1-1
				c-0.1,0.3-0.2,0.5-0.3,0.6c-0.2,0.2-0.3,0.3-0.5,0.4C45.2-0.9,45-0.9,44.7-0.9z"/>
			<path class="st16" d="M50.7-0.9c-0.5,0-0.9-0.1-1.2-0.3s-0.6-0.5-0.8-0.9c-0.2-0.4-0.3-0.9-0.3-1.5c0-0.5,0.1-1,0.3-1.4
				s0.5-0.7,0.8-0.9c0.4-0.2,0.8-0.3,1.3-0.3c0.4,0,0.7,0.1,1,0.2c0.3,0.1,0.5,0.3,0.7,0.6s0.3,0.6,0.4,0.9H52
				c0-0.2-0.1-0.3-0.2-0.5c-0.1-0.1-0.2-0.3-0.4-0.4c-0.2-0.1-0.4-0.1-0.6-0.1c-0.4,0-0.8,0.2-1.1,0.5s-0.4,0.8-0.4,1.5
				c0,0.6,0.1,1.1,0.4,1.4s0.6,0.5,1.1,0.5c0.2,0,0.4,0,0.6-0.1s0.3-0.2,0.4-0.4c0.1-0.2,0.2-0.3,0.2-0.5h0.8c0,0.3-0.2,0.6-0.4,0.9
				c-0.2,0.3-0.4,0.4-0.7,0.6S51.1-0.9,50.7-0.9z"/>
			<path class="st16" d="M55.7-1c-0.4,0-0.6,0-0.8-0.1s-0.3-0.2-0.4-0.4c-0.1-0.2-0.1-0.4-0.1-0.7v-3.2h-0.8v-0.7h0.9l0.2-1.5h0.7
				v1.5h1.2v0.7h-1.2v3.2c0,0.2,0,0.3,0.1,0.4c0,0.1,0.1,0.1,0.2,0.2s0.2,0,0.4,0h0.6v0.6c-0.1,0-0.2,0-0.3,0.1
				C56.1-1,55.9-1,55.7-1z"/>
			<path class="st16" d="M59.8-0.9c-0.5,0-0.9-0.1-1.3-0.3s-0.7-0.5-0.9-0.9c-0.2-0.4-0.3-0.9-0.3-1.4c0-0.5,0.1-1,0.3-1.4
				s0.5-0.7,0.8-1c0.4-0.2,0.8-0.3,1.3-0.3c0.5,0,0.9,0.1,1.2,0.3c0.3,0.2,0.6,0.5,0.8,0.9C61.9-4.7,62-4.2,62-3.7v0.3h-3.7
				c0,0.3,0.1,0.6,0.2,0.9s0.3,0.5,0.5,0.6c0.2,0.2,0.5,0.2,0.8,0.2c0.3,0,0.6-0.1,0.9-0.2s0.4-0.4,0.5-0.7h0.9
				c-0.1,0.3-0.2,0.6-0.4,0.9c-0.2,0.2-0.5,0.4-0.8,0.5C60.4-1,60.1-0.9,59.8-0.9z M58.3-4h2.8c0-0.3,0-0.6-0.1-0.8
				s-0.3-0.4-0.5-0.6c-0.2-0.1-0.5-0.2-0.8-0.2c-0.3,0-0.6,0.1-0.8,0.2c-0.2,0.2-0.4,0.4-0.5,0.6C58.3-4.5,58.3-4.3,58.3-4z"/>
			<path class="st16" d="M65.1-0.9c-0.7,0-1.2-0.2-1.6-0.7c-0.4-0.5-0.6-1.1-0.6-2c0-0.5,0.1-1,0.2-1.4c0.2-0.4,0.4-0.7,0.7-0.9
				c0.3-0.2,0.7-0.3,1.2-0.3c0.2,0,0.5,0,0.7,0.1s0.4,0.1,0.5,0.2s0.3,0.2,0.3,0.3c0.1,0.1,0.2,0.2,0.2,0.3v-3.1h0.9V-1H67l-0.1-1.1
				c0,0.1-0.1,0.2-0.2,0.3c-0.1,0.1-0.2,0.3-0.3,0.4c-0.1,0.1-0.3,0.2-0.5,0.3C65.7-0.9,65.4-0.9,65.1-0.9z M65.3-1.6
				c0.5,0,0.9-0.2,1.1-0.5s0.3-0.8,0.3-1.6c0-0.4-0.1-0.7-0.1-1s-0.2-0.5-0.5-0.6c-0.2-0.1-0.5-0.2-0.8-0.2c-0.4,0-0.8,0.2-1,0.5
				c-0.3,0.3-0.4,0.8-0.4,1.4c0,0.6,0.1,1.1,0.4,1.5C64.5-1.8,64.8-1.6,65.3-1.6z"/>
			<path class="st16" d="M72.3-1v-4.5h-1.1v-0.7h1.1V-7c0-0.4,0.1-0.7,0.3-0.9c0.2-0.2,0.5-0.3,0.9-0.3h1l0,0.7h-0.8
				c-0.2,0-0.4,0.1-0.4,0.2s-0.1,0.3-0.1,0.5v0.7h1.3v0.7h-1.3V-1H72.3z"/>
			<path class="st16" d="M75.6-1v-5.2h0.9v1c0.1-0.2,0.2-0.5,0.4-0.6c0.2-0.2,0.3-0.3,0.5-0.4s0.4-0.1,0.6-0.1c0.1,0,0.2,0,0.2,0
				s0.1,0,0.2,0v0.9c0,0-0.1,0-0.2,0c-0.1,0-0.1,0-0.2,0c-0.2,0-0.4,0-0.6,0c-0.2,0-0.3,0.1-0.5,0.2c-0.1,0.1-0.2,0.2-0.3,0.4
				c-0.1,0.2-0.1,0.3-0.1,0.6V-1H75.6z"/>
			<path class="st16" d="M81.5-0.9c-0.5,0-0.9-0.1-1.2-0.3c-0.4-0.2-0.6-0.5-0.8-0.9c-0.2-0.4-0.3-0.9-0.3-1.5c0-0.5,0.1-1,0.3-1.4
				c0.2-0.4,0.5-0.7,0.8-0.9c0.4-0.2,0.8-0.3,1.3-0.3c0.5,0,0.9,0.1,1.2,0.3c0.4,0.2,0.6,0.5,0.8,0.9s0.3,0.9,0.3,1.5
				c0,0.5-0.1,1-0.3,1.4c-0.2,0.4-0.4,0.7-0.8,0.9C82.4-1,82-0.9,81.5-0.9z M81.5-1.6c0.3,0,0.6-0.1,0.8-0.2
				c0.2-0.2,0.4-0.4,0.5-0.7s0.2-0.6,0.2-1c0-0.4,0-0.7-0.1-1c-0.1-0.3-0.3-0.5-0.5-0.7c-0.2-0.2-0.5-0.3-0.8-0.3
				c-0.3,0-0.6,0.1-0.8,0.2s-0.4,0.4-0.5,0.7c-0.1,0.3-0.2,0.6-0.2,1.1c0,0.4,0,0.7,0.1,1c0.1,0.3,0.3,0.5,0.5,0.7
				C80.9-1.7,81.2-1.6,81.5-1.6z"/>
			<path class="st16" d="M85.1-1v-5.2H86v0.8c0.1-0.2,0.3-0.4,0.6-0.6s0.6-0.3,1-0.3c0.2,0,0.4,0,0.6,0.1s0.4,0.2,0.5,0.3
				c0.2,0.1,0.3,0.3,0.4,0.5c0.2-0.3,0.4-0.5,0.7-0.6c0.3-0.2,0.6-0.2,0.9-0.2c0.2,0,0.4,0,0.6,0.1s0.4,0.2,0.5,0.3
				c0.2,0.1,0.3,0.3,0.4,0.6s0.2,0.6,0.2,0.9V-1h-0.9v-3.3c0-0.3,0-0.6-0.1-0.7S91-5.3,90.8-5.4s-0.3-0.1-0.5-0.1
				c-0.2,0-0.3,0-0.5,0.1c-0.2,0.1-0.3,0.2-0.5,0.3c-0.1,0.2-0.2,0.4-0.2,0.6V-1h-0.9v-3.6c0-0.2-0.1-0.4-0.2-0.5
				c-0.1-0.1-0.2-0.2-0.4-0.3s-0.3-0.1-0.5-0.1c-0.2,0-0.4,0-0.5,0.1c-0.2,0.1-0.3,0.2-0.4,0.3C86.1-4.9,86-4.7,86-4.5V-1H85.1z"/>
			<path class="st16" d="M96.6,0.7c-0.3,0-0.6,0-0.8-0.1v-0.6l0.5,0c0.2,0,0.3,0,0.5,0c0.1,0,0.2-0.1,0.3-0.1s0.1-0.1,0.2-0.2
				c0-0.1,0.1-0.1,0.1-0.2l0.2-0.5l-2-5h0.9l1.5,4l1.5-4h0.9l-2.2,5.6C98.1-0.3,98,0,97.8,0.2c-0.2,0.2-0.3,0.3-0.5,0.4
				S96.9,0.7,96.6,0.7z"/>
			<path class="st16" d="M103.4-0.9c-0.5,0-0.9-0.1-1.2-0.3c-0.4-0.2-0.6-0.5-0.8-0.9c-0.2-0.4-0.3-0.9-0.3-1.5c0-0.5,0.1-1,0.3-1.4
				c0.2-0.4,0.5-0.7,0.8-0.9c0.4-0.2,0.8-0.3,1.3-0.3c0.5,0,0.9,0.1,1.2,0.3c0.4,0.2,0.6,0.5,0.8,0.9s0.3,0.9,0.3,1.5
				c0,0.5-0.1,1-0.3,1.4c-0.2,0.4-0.4,0.7-0.8,0.9C104.4-1,103.9-0.9,103.4-0.9z M103.4-1.6c0.3,0,0.6-0.1,0.8-0.2
				c0.2-0.2,0.4-0.4,0.5-0.7s0.2-0.6,0.2-1c0-0.4,0-0.7-0.1-1c-0.1-0.3-0.3-0.5-0.5-0.7c-0.2-0.2-0.5-0.3-0.8-0.3
				c-0.3,0-0.6,0.1-0.8,0.2s-0.4,0.4-0.5,0.7C102-4.3,102-4,102-3.6c0,0.4,0,0.7,0.1,1c0.1,0.3,0.3,0.5,0.5,0.7
				C102.8-1.7,103.1-1.6,103.4-1.6z"/>
			<path class="st16" d="M108.9-0.9c-0.3,0-0.5,0-0.8-0.1s-0.4-0.2-0.6-0.3c-0.2-0.1-0.3-0.3-0.4-0.5c-0.1-0.2-0.2-0.5-0.2-0.8v-3.5
				h0.9v3.4c0,0.3,0.1,0.6,0.3,0.8c0.2,0.2,0.5,0.3,0.9,0.3c0.4,0,0.7-0.1,0.9-0.3c0.2-0.2,0.3-0.5,0.3-0.9v-3.4h0.9V-1h-0.7l-0.1-1
				c-0.1,0.3-0.2,0.5-0.3,0.6c-0.2,0.2-0.3,0.3-0.5,0.4C109.4-0.9,109.1-0.9,108.9-0.9z"/>
			<path class="st16" d="M112.9-1v-5.2h0.9v1c0.1-0.2,0.2-0.5,0.4-0.6c0.2-0.2,0.3-0.3,0.5-0.4c0.2-0.1,0.4-0.1,0.6-0.1
				c0.1,0,0.2,0,0.2,0c0.1,0,0.1,0,0.2,0v0.9c0,0-0.1,0-0.2,0c-0.1,0-0.1,0-0.2,0c-0.2,0-0.4,0-0.6,0c-0.2,0-0.3,0.1-0.5,0.2
				c-0.1,0.1-0.2,0.2-0.3,0.4c-0.1,0.2-0.1,0.3-0.1,0.6V-1H112.9z"/>
		</g>
		<g class="st14">
			<path class="st16" d="M-34.8,13.1c-0.3,0-0.6-0.1-0.9-0.2c-0.3-0.1-0.5-0.3-0.6-0.5s-0.2-0.5-0.2-0.8c0-0.6,0.2-1,0.6-1.3
				c0.4-0.3,1-0.4,1.9-0.5l0.9,0V9.4c0-0.3-0.1-0.6-0.3-0.8s-0.5-0.3-0.9-0.3c-0.3,0-0.6,0.1-0.8,0.2s-0.4,0.4-0.4,0.7h-0.8
				c0-0.3,0.1-0.6,0.3-0.9c0.2-0.2,0.4-0.4,0.7-0.5s0.7-0.2,1.1-0.2c0.5,0,0.8,0.1,1.1,0.2s0.5,0.3,0.7,0.6c0.1,0.2,0.2,0.5,0.2,0.9
				V13h-0.8l-0.1-1c-0.2,0.4-0.4,0.7-0.8,0.8C-34.1,13-34.4,13.1-34.8,13.1z M-34.5,12.4c0.2,0,0.4,0,0.5-0.1
				c0.2-0.1,0.3-0.1,0.5-0.3c0.1-0.1,0.3-0.2,0.3-0.4c0.1-0.1,0.1-0.3,0.1-0.4v-0.9l-0.8,0c-0.4,0-0.7,0-1,0.1
				c-0.3,0.1-0.5,0.2-0.6,0.3c-0.1,0.2-0.2,0.4-0.2,0.6c0,0.3,0.1,0.5,0.3,0.7C-35.1,12.4-34.8,12.4-34.5,12.4z"/>
			<path class="st16" d="M-28.6,13.1c-0.5,0-0.9-0.1-1.2-0.3s-0.6-0.5-0.8-0.9c-0.2-0.4-0.3-0.9-0.3-1.5c0-0.5,0.1-1,0.3-1.4
				s0.5-0.7,0.8-0.9c0.4-0.2,0.8-0.3,1.3-0.3c0.4,0,0.7,0.1,1,0.2c0.3,0.1,0.5,0.3,0.7,0.6s0.3,0.6,0.4,0.9h-0.8
				c0-0.2-0.1-0.3-0.2-0.5c-0.1-0.1-0.2-0.3-0.4-0.4c-0.2-0.1-0.4-0.1-0.6-0.1c-0.4,0-0.8,0.2-1.1,0.5s-0.4,0.8-0.4,1.5
				c0,0.6,0.1,1.1,0.4,1.4s0.6,0.5,1.1,0.5c0.2,0,0.4,0,0.6-0.1s0.3-0.2,0.4-0.4c0.1-0.2,0.2-0.3,0.2-0.5h0.8c0,0.3-0.2,0.6-0.4,0.9
				c-0.2,0.3-0.4,0.4-0.7,0.6S-28.3,13.1-28.6,13.1z"/>
			<path class="st16" d="M-23.2,13.1c-0.5,0-0.9-0.1-1.2-0.3s-0.6-0.5-0.8-0.9c-0.2-0.4-0.3-0.9-0.3-1.5c0-0.5,0.1-1,0.3-1.4
				s0.5-0.7,0.8-0.9c0.4-0.2,0.8-0.3,1.3-0.3c0.4,0,0.7,0.1,1,0.2c0.3,0.1,0.5,0.3,0.7,0.6s0.3,0.6,0.4,0.9H-22
				c0-0.2-0.1-0.3-0.2-0.5c-0.1-0.1-0.2-0.3-0.4-0.4c-0.2-0.1-0.4-0.1-0.6-0.1c-0.4,0-0.8,0.2-1.1,0.5s-0.4,0.8-0.4,1.5
				c0,0.6,0.1,1.1,0.4,1.4s0.6,0.5,1.1,0.5c0.2,0,0.4,0,0.6-0.1s0.3-0.2,0.4-0.4c0.1-0.2,0.2-0.3,0.2-0.5h0.8c0,0.3-0.2,0.6-0.4,0.9
				c-0.2,0.3-0.4,0.4-0.7,0.6S-22.9,13.1-23.2,13.1z"/>
			<path class="st16" d="M-17.8,13.1c-0.5,0-0.9-0.1-1.2-0.3c-0.4-0.2-0.6-0.5-0.8-0.9c-0.2-0.4-0.3-0.9-0.3-1.5
				c0-0.5,0.1-1,0.3-1.4c0.2-0.4,0.5-0.7,0.8-0.9c0.4-0.2,0.8-0.3,1.3-0.3c0.5,0,0.9,0.1,1.2,0.3c0.4,0.2,0.6,0.5,0.8,0.9
				s0.3,0.9,0.3,1.5c0,0.5-0.1,1-0.3,1.4c-0.2,0.4-0.4,0.7-0.8,0.9C-16.9,13-17.3,13.1-17.8,13.1z M-17.8,12.4
				c0.3,0,0.6-0.1,0.8-0.2c0.2-0.2,0.4-0.4,0.5-0.7s0.2-0.6,0.2-1c0-0.4,0-0.7-0.1-1c-0.1-0.3-0.3-0.5-0.5-0.7
				c-0.2-0.2-0.5-0.3-0.8-0.3c-0.3,0-0.6,0.1-0.8,0.2s-0.4,0.4-0.5,0.7c-0.1,0.3-0.2,0.6-0.2,1.1c0,0.4,0,0.7,0.1,1
				c0.1,0.3,0.3,0.5,0.5,0.7C-18.5,12.3-18.2,12.4-17.8,12.4z"/>
			<path class="st16" d="M-12.4,13.1c-0.3,0-0.5,0-0.8-0.1s-0.4-0.2-0.6-0.3c-0.2-0.1-0.3-0.3-0.4-0.5s-0.2-0.5-0.2-0.8V7.8h0.9v3.4
				c0,0.3,0.1,0.6,0.3,0.8s0.5,0.3,0.9,0.3c0.4,0,0.7-0.1,0.9-0.3c0.2-0.2,0.3-0.5,0.3-0.9V7.8h0.9V13h-0.7l-0.1-1
				c-0.1,0.3-0.2,0.5-0.3,0.6c-0.2,0.2-0.3,0.3-0.5,0.4C-11.9,13.1-12.1,13.1-12.4,13.1z"/>
			<path class="st16" d="M-8.4,13V7.8h0.9v0.8c0.1-0.1,0.2-0.3,0.3-0.4C-7,8-6.8,7.9-6.6,7.9c0.2-0.1,0.5-0.1,0.7-0.1
				C-5.6,7.8-5.3,7.8-5,8s0.5,0.3,0.7,0.6c0.2,0.3,0.2,0.6,0.2,1.1V13H-5V9.7C-5,9.3-5.1,9-5.3,8.8c-0.2-0.2-0.5-0.3-0.8-0.3
				c-0.2,0-0.5,0-0.7,0.1C-7,8.7-7.2,8.8-7.3,9c-0.1,0.2-0.2,0.3-0.2,0.6V13H-8.4z"/>
			<path class="st16" d="M-0.9,13c-0.4,0-0.6,0-0.8-0.1s-0.3-0.2-0.4-0.4c-0.1-0.2-0.1-0.4-0.1-0.7V8.5h-0.8V7.8h0.9l0.2-1.5h0.7
				v1.5h1.2v0.7h-1.2v3.2c0,0.2,0,0.3,0.1,0.4c0,0.1,0.1,0.1,0.2,0.2s0.2,0,0.4,0h0.6v0.6c-0.1,0-0.2,0-0.3,0.1
				C-0.6,13-0.8,13-0.9,13z"/>
			<path class="st16" d="M3.5,6.7v-1h0.9v1H3.5z M3.5,13V7.8h0.9V13H3.5z"/>
			<path class="st16" d="M7.8,13.1c-0.4,0-0.7-0.1-1-0.2c-0.3-0.1-0.6-0.3-0.8-0.5s-0.3-0.5-0.4-0.9h0.8c0,0.2,0.1,0.4,0.2,0.5
				c0.1,0.1,0.3,0.2,0.5,0.3s0.4,0.1,0.6,0.1c0.4,0,0.6-0.1,0.8-0.2S9,11.9,9,11.6c0-0.2-0.1-0.3-0.2-0.5C8.7,11,8.5,11,8.3,10.9
				l-1.1-0.3c-0.4-0.1-0.7-0.3-1-0.5C6,10,5.8,9.7,5.8,9.3c0-0.3,0.1-0.6,0.2-0.8c0.1-0.2,0.4-0.4,0.7-0.5C7,7.8,7.4,7.7,7.8,7.7
				c0.6,0,1,0.1,1.4,0.4s0.5,0.6,0.5,1.1H8.9c0-0.2-0.1-0.4-0.3-0.6C8.4,8.5,8.1,8.4,7.8,8.4C7.5,8.4,7.2,8.5,7,8.6
				C6.8,8.7,6.7,8.9,6.7,9.2c0,0.2,0.1,0.3,0.2,0.4c0.1,0.1,0.4,0.2,0.6,0.3l1,0.3c0.2,0.1,0.4,0.1,0.6,0.2s0.3,0.2,0.4,0.3
				c0.1,0.1,0.2,0.3,0.2,0.4c0,0.1,0.1,0.3,0.1,0.4c0,0.3-0.1,0.6-0.2,0.8s-0.4,0.4-0.7,0.5C8.6,13,8.2,13.1,7.8,13.1z"/>
		</g>
		<g class="st14">
			<path class="st16" d="M15.7,13.1c-0.7,0-1.3-0.1-1.7-0.4c-0.4-0.2-0.7-0.6-0.9-1c-0.2-0.4-0.3-1-0.3-1.5V5.8h1.5v4.5
				c0,0.5,0.1,0.9,0.4,1.2c0.3,0.2,0.6,0.4,1,0.4c0.3,0,0.5-0.1,0.7-0.2s0.4-0.3,0.5-0.5s0.2-0.5,0.2-0.9V5.8h1.5v4.5
				c0,0.6-0.1,1.1-0.3,1.5c-0.2,0.4-0.5,0.8-0.9,1C17,13,16.4,13.1,15.7,13.1z"/>
			<path class="st16" d="M22.8,13.1c-0.4,0-0.7,0-1.1-0.1s-0.7-0.2-0.9-0.4c-0.3-0.2-0.5-0.4-0.7-0.7c-0.2-0.3-0.3-0.6-0.3-1h1.5
				c0,0.2,0.1,0.4,0.3,0.6c0.1,0.1,0.3,0.3,0.5,0.3s0.5,0.1,0.8,0.1c0.2,0,0.4,0,0.7-0.1c0.2-0.1,0.4-0.2,0.5-0.3
				c0.1-0.1,0.2-0.3,0.2-0.5c0-0.2-0.1-0.4-0.3-0.6s-0.4-0.2-0.7-0.3l-1.4-0.3c-0.4-0.1-0.7-0.2-1-0.4c-0.3-0.2-0.5-0.4-0.7-0.7
				S20,8.2,20,7.9c0-0.5,0.1-0.8,0.4-1.2c0.2-0.3,0.6-0.6,1-0.8c0.4-0.2,0.9-0.3,1.4-0.3c0.6,0,1.1,0.1,1.5,0.3s0.7,0.5,1,0.8
				c0.2,0.3,0.3,0.7,0.3,1.1h-1.5c0-0.2-0.1-0.5-0.2-0.6c-0.1-0.2-0.3-0.3-0.5-0.3c-0.2-0.1-0.4-0.1-0.7-0.1c-0.4,0-0.8,0.1-1,0.3
				c-0.2,0.2-0.3,0.4-0.3,0.6c0,0.2,0.1,0.4,0.2,0.5c0.2,0.1,0.4,0.2,0.7,0.3l1.3,0.3c0.5,0.1,0.8,0.2,1.1,0.4
				c0.3,0.2,0.5,0.4,0.6,0.7s0.2,0.6,0.2,0.9c0,0.4-0.1,0.8-0.4,1.2c-0.2,0.3-0.6,0.6-1,0.8C23.9,13,23.4,13.1,22.8,13.1z"/>
			<path class="st16" d="M32,13.1c-0.9,0-1.6-0.2-2.1-0.5C29.3,12.2,29,11.7,29,11l1.5,0c0.1,0.3,0.3,0.6,0.5,0.8
				c0.3,0.2,0.6,0.3,1,0.3c0.2,0,0.5,0,0.6-0.1c0.2-0.1,0.3-0.2,0.4-0.3c0.1-0.1,0.2-0.3,0.2-0.5c0-0.3-0.1-0.5-0.3-0.6
				c-0.2-0.1-0.4-0.2-0.8-0.3L31,9.9c-0.5-0.1-1-0.3-1.3-0.7c-0.3-0.3-0.5-0.8-0.5-1.3c0-0.5,0.1-0.8,0.4-1.2c0.2-0.3,0.6-0.6,1-0.8
				C31,5.8,31.5,5.7,32,5.7c0.5,0,1,0.1,1.4,0.3c0.4,0.2,0.7,0.5,0.9,0.8s0.3,0.7,0.3,1.1l-1.5,0c0-0.3-0.2-0.6-0.3-0.8
				c-0.2-0.2-0.4-0.3-0.8-0.3c-0.2,0-0.4,0-0.5,0.1c-0.2,0-0.3,0.1-0.4,0.2c-0.1,0.1-0.2,0.2-0.3,0.3c-0.1,0.1-0.1,0.2-0.1,0.4
				c0,0.2,0.1,0.4,0.2,0.5c0.1,0.1,0.4,0.2,0.8,0.3l1.2,0.3C33.6,9,34,9.3,34.3,9.7c0.3,0.4,0.4,0.8,0.4,1.4c0,0.4-0.1,0.8-0.3,1.1
				c-0.2,0.3-0.6,0.5-1,0.7C33,13,32.6,13.1,32,13.1z M31.3,14v-1.3h1.3V14H31.3z M31.4,6V4.7h1.3V6H31.4z"/>
			<path class="st16" d="M37,13V7.6h-1.3V6.8c0.4,0,0.7,0,1-0.1s0.4-0.2,0.6-0.3c0.1-0.1,0.2-0.3,0.2-0.5h1V13H37z"/>
			<path class="st16" d="M42.8,13.1c-0.9,0-1.6-0.3-2.1-1c-0.5-0.6-0.7-1.6-0.7-2.8c0-0.8,0.1-1.5,0.3-2c0.2-0.6,0.5-1,1-1.3
				c0.4-0.3,0.9-0.4,1.5-0.4c0.9,0,1.5,0.3,2,1c0.5,0.6,0.7,1.6,0.7,2.8c0,1.2-0.2,2.1-0.7,2.8C44.3,12.8,43.6,13.1,42.8,13.1z
				 M42.8,11.9c0.4,0,0.7-0.2,0.9-0.6c0.2-0.4,0.3-1,0.3-1.9c0-0.9-0.1-1.6-0.3-2s-0.5-0.6-0.9-0.6S42,7,41.8,7.4s-0.3,1.1-0.3,2
				c0,0.9,0.1,1.5,0.3,1.9S42.3,11.9,42.8,11.9z"/>
			<path class="st16" d="M49.7,13l0-1.6h-3.3v-1.2l3.3-4.4h1.4v4.4h1.1v1.2h-1.1V13H49.7z M47.7,10.2h2V7.5L47.7,10.2z"/>
			<path class="st16" d="M53,13v-1.6h1.6V13H53z"/>
			<path class="st16" d="M58.3,13.1c-0.5,0-0.9-0.1-1.3-0.3c-0.4-0.2-0.7-0.4-1-0.7c-0.2-0.3-0.4-0.7-0.4-1.1h1.4
				c0.1,0.3,0.2,0.5,0.4,0.7s0.5,0.3,0.8,0.3c0.3,0,0.7-0.1,0.9-0.2s0.5-0.4,0.6-0.8c0.1-0.4,0.2-0.8,0.1-1.4
				c-0.1,0.2-0.2,0.3-0.4,0.5c-0.2,0.1-0.4,0.2-0.6,0.3c-0.2,0.1-0.5,0.1-0.7,0.1c-0.5,0-0.9-0.1-1.3-0.3c-0.4-0.2-0.7-0.4-0.9-0.8
				c-0.2-0.3-0.3-0.7-0.3-1.2c0-0.5,0.1-0.9,0.3-1.3c0.2-0.4,0.5-0.7,1-0.9s0.9-0.3,1.4-0.3c0.6,0,1.1,0.1,1.6,0.4
				c0.4,0.3,0.8,0.7,1,1.2s0.4,1.2,0.4,1.9c0,0.9-0.1,1.6-0.4,2.2c-0.2,0.6-0.6,1-1.1,1.3S58.9,13.1,58.3,13.1z M58.4,9.2
				c0.2,0,0.4,0,0.6-0.1c0.2-0.1,0.3-0.2,0.5-0.3c0.1-0.1,0.2-0.3,0.2-0.4c0-0.3,0-0.6-0.2-0.8c-0.1-0.2-0.3-0.4-0.4-0.5
				c-0.2-0.1-0.4-0.2-0.7-0.2c-0.2,0-0.4,0.1-0.6,0.2c-0.2,0.1-0.3,0.3-0.4,0.5c-0.1,0.2-0.2,0.4-0.2,0.7c0,0.4,0.1,0.7,0.3,0.9
				C57.8,9.1,58.1,9.2,58.4,9.2z"/>
			<path class="st16" d="M65,13.1c-0.9,0-1.6-0.3-2.1-1c-0.5-0.6-0.7-1.6-0.7-2.8c0-0.8,0.1-1.5,0.3-2c0.2-0.6,0.5-1,1-1.3
				c0.4-0.3,0.9-0.4,1.5-0.4c0.9,0,1.5,0.3,2,1c0.5,0.6,0.7,1.6,0.7,2.8c0,1.2-0.2,2.1-0.7,2.8C66.5,12.8,65.9,13.1,65,13.1z
				 M65,11.9c0.4,0,0.7-0.2,0.9-0.6c0.2-0.4,0.3-1,0.3-1.9c0-0.9-0.1-1.6-0.3-2S65.4,6.8,65,6.8S64.2,7,64,7.4s-0.3,1.1-0.3,2
				c0,0.9,0.1,1.5,0.3,1.9S64.6,11.9,65,11.9z"/>
		</g>
		<g class="st14">
			<path class="st16" d="M69.4,13v-1.2h1.1V13H69.4z"/>
		</g>
	</g>
</g>
</svg>
