<?xml version="1.0" encoding="utf-8"?>
<!-- Generator: Adobe Illustrator 28.0.0, SVG Export Plug-In . SVG Version: 6.00 Build 0)  -->
<svg version="1.1" id="Layer_1" xmlns="http://www.w3.org/2000/svg" xmlns:xlink="http://www.w3.org/1999/xlink" x="0px" y="0px"
	 viewBox="0 0 262.5 499.4" style="enable-background:new 0 0 262.5 499.4;" xml:space="preserve">
<style type="text/css">
	.st0{fill-rule:evenodd;clip-rule:evenodd;fill:#213648;}
	.st1{opacity:0.596;fill-rule:evenodd;clip-rule:evenodd;fill:url(#SVGID_1_);fill-opacity:0.65;enable-background:new    ;}
	
		.st2{opacity:0.75;fill-rule:evenodd;clip-rule:evenodd;fill:url(#SVGID_00000133511141569250944820000011136333804077854385_);enable-background:new    ;}
	
		.st3{opacity:0.75;fill-rule:evenodd;clip-rule:evenodd;fill:url(#SVGID_00000042013558054568286880000006627445715229480352_);enable-background:new    ;}
	.st4{fill-rule:evenodd;clip-rule:evenodd;fill:#2E423C;}
	.st5{fill-rule:evenodd;clip-rule:evenodd;fill:#FFFFFF;}
	.st6{filter:url(#Adobe_OpacityMaskFilter);}
	
		.st7{mask:url(#h_00000176743285379757358430000017629146504249152436_);fill-rule:evenodd;clip-rule:evenodd;fill:url(#SVGID_00000173126572352186504590000011299872629623660194_);}
	.st8{filter:url(#Adobe_OpacityMaskFilter_00000029046239683903569070000001294906259507553414_);}
	.st9{mask:url(#h_00000052791485686884950520000013915861695558461098_);enable-background:new    ;}
	.st10{fill:#FFFFFF;}
	.st11{font-family:'PublicSans-Bold';}
	.st12{font-size:32px;}
	.st13{filter:url(#i);}
	.st14{fill-rule:evenodd;clip-rule:evenodd;}
	.st15{fill-rule:evenodd;clip-rule:evenodd;fill:#FBFCFE;}
	.st16{fill:#BA4270;}
	.st17{font-size:10px;}
	.st18{fill:#36536B;}
	.st19{font-family:'PublicSans-Regular';}
</style>
<filter  filterUnits="objectBoundingBox" height="163.2%" id="i" width="125.2%" x="-8%" y="-20.1%">
	<feMorphology  in="SourceAlpha" operator="erode" radius="5" result="shadowSpreadOuter1"></feMorphology>
	<feOffset  dx="10" dy="10" in="shadowSpreadOuter1" result="shadowOffsetOuter1"></feOffset>
	<feGaussianBlur  in="shadowOffsetOuter1" result="shadowBlurOuter1" stdDeviation="12.5"></feGaussianBlur>
	<feColorMatrix  in="shadowBlurOuter1" values="0 0 0 0 0.212302148 0 0 0 0 0.325209598 0 0 0 0 0.419299139 0 0 0 0.25 0">
		</feColorMatrix>
</filter>
<g transform="translate(53 55)">
	<g>
		<path id="b_00000018237731764535801170000012756717717057133229_" class="st0" d="M-17.2-54.4H174c18.3,0,33.2,14.2,33.2,31.8
			v435.3c0,17.6-14.9,31.8-33.2,31.8H-17.2c-18.3,0-33.2-14.2-33.2-31.8V-22.6C-50.4-40.2-35.6-54.4-17.2-54.4L-17.2-54.4z"/>
	</g>
	
		<linearGradient id="SVGID_1_" gradientUnits="userSpaceOnUse" x1="-201.1044" y1="611.7258" x2="-201.1044" y2="610.7258" gradientTransform="matrix(242.642 0 0 -12.324 48874.6992 7483.9082)">
		<stop  offset="0" style="stop-color:#454545"/>
		<stop  offset="0.2263" style="stop-color:#999999"/>
		<stop  offset="1" style="stop-color:#FFFFFF"/>
	</linearGradient>
	<path class="st1" d="M174.7-55H-18.1c-9,0.5-17.3,4.7-24.9,12.3c4.9-4.3,13.6-10,25.1-10h192.4c11.5,0,20.2,5.7,25.1,10
		C192.1-50.3,183.8-54.5,174.7-55z"/>
	
		<linearGradient id="SVGID_00000101091952085636755650000013514921066369265815_" gradientUnits="userSpaceOnUse" x1="-193.9682" y1="616.3619" x2="-194.6611" y2="616.3619" gradientTransform="matrix(13.6522 0 0 -470.6551 2855.1904 290287.7188)">
		<stop  offset="0" style="stop-color:#FFFFFF;stop-opacity:0"/>
		<stop  offset="0.2222" style="stop-color:#BABABA"/>
		<stop  offset="0.5468" style="stop-color:#FFFFFF;stop-opacity:0"/>
		<stop  offset="1" style="stop-color:#FFFFFF;stop-opacity:0"/>
	</linearGradient>
	
		<path style="opacity:0.75;fill-rule:evenodd;clip-rule:evenodd;fill:url(#SVGID_00000101091952085636755650000013514921066369265815_);enable-background:new    ;" d="
		M202,407.7V-20c0-11.5-4.2-15.7-6.7-18.4c-2.5-2.7-2.6-4.1,1-2.1c3.6,2.1,10.8,8,10.8,20.5v427.7c0,12.5-7.2,18.4-10.8,20.5
		c-3.6,2.1-3.5,0.7-1-2.1S202,419.1,202,407.7L202,407.7z"/>
	
		<linearGradient id="SVGID_00000016064974042165107210000003140515350815751312_" gradientUnits="userSpaceOnUse" x1="-208.0318" y1="616.3619" x2="-208.7259" y2="616.3619" gradientTransform="matrix(-13.6522 0 0 -470.6551 -2890.5171 290287.7188)">
		<stop  offset="0" style="stop-color:#FFFFFF;stop-opacity:0"/>
		<stop  offset="0.2222" style="stop-color:#BABABA"/>
		<stop  offset="0.5468" style="stop-color:#FFFFFF;stop-opacity:0"/>
		<stop  offset="1" style="stop-color:#FFFFFF;stop-opacity:0"/>
	</linearGradient>
	
		<path style="opacity:0.75;fill-rule:evenodd;clip-rule:evenodd;fill:url(#SVGID_00000016064974042165107210000003140515350815751312_);enable-background:new    ;" d="
		M-45.3,407.7V-20c0-11.5,4.2-15.7,6.7-18.4c2.5-2.7,2.6-4.1-1-2.1c-3.6,2.1-10.8,8-10.8,20.5v427.7c0,12.5,7.2,18.4,10.8,20.5
		c3.6,2.1,3.5,0.7,1-2.1S-45.3,419.1-45.3,407.7L-45.3,407.7z"/>
	<path class="st4" d="M-51,46.6h1c1.1,0,2,0.9,2,2l0,0v60.3c0,1.1-0.9,2-2,2h-1c-1.1,0-2-0.9-2-2V48.6C-53,47.5-52.1,46.6-51,46.6z
		 M206.5,99h1c1.1,0,2,0.9,2,2V144c0,1.1-0.9,2-2,2h-1c-1.1,0-2-0.9-2-2V101C204.5,99.9,205.4,99,206.5,99z"/>
	<g transform="translate(15.074 12.444)">
		<g>
			<path id="f_00000006695531930363807820000000945932856486445223_" class="st5" d="M40.6-55h-74.4C-44.9-55-53-47.4-53-37.6v422.4
				c0,12.9,12.5,24.3,26.6,24.3H153c13.6,0,26.6-11.5,26.6-24.3V-36.4c0-11.8-8.8-18.5-19.2-18.6H84.8c-0.3,0-5.5,2.2-7.7,7.6
				c-2.2,5.4-6.6,9.7-11.4,9.7h-5.6c-2.3,0-8.3-2.2-11.4-9.7C45.6-54.9,40.9-55,40.6-55z"/>
		</g>
		<defs>
			<filter id="Adobe_OpacityMaskFilter" filterUnits="userSpaceOnUse" x="-53.1" y="-55" width="233" height="465">
				<feColorMatrix  type="matrix" values="1 0 0 0 0  0 1 0 0 0  0 0 1 0 0  0 0 0 1 0"/>
			</filter>
		</defs>
		
			<mask maskUnits="userSpaceOnUse" x="-53.1" y="-55" width="233" height="465" id="h_00000176743285379757358430000017629146504249152436_">
			<g class="st6">
				<path id="f_00000084495744134420521820000008356749584586103448_" class="st5" d="M40.6-55h-74.4C-44.9-55-53-47.4-53-37.6
					v422.4c0,12.9,12.5,24.3,26.6,24.3H153c13.6,0,26.6-11.5,26.6-24.3V-36.4c0-11.8-8.8-18.5-19.2-18.6H84.8
					c-0.3,0-5.5,2.2-7.7,7.6c-2.2,5.4-6.6,9.7-11.4,9.7h-5.6c-2.3,0-8.3-2.2-11.4-9.7C45.6-54.9,40.9-55,40.6-55z"/>
			</g>
		</mask>
		
			<linearGradient id="SVGID_00000089554374454745320420000004508760141775188886_" gradientUnits="userSpaceOnUse" x1="-216.162" y1="604.4162" x2="-216.162" y2="603.424" gradientTransform="matrix(233 0 0 -465 50429.168 280998.5312)">
			<stop  offset="0" style="stop-color:#9CB6CD"/>
			<stop  offset="0.4206" style="stop-color:#9AB3CA"/>
			<stop  offset="0.7166" style="stop-color:#557496"/>
			<stop  offset="1" style="stop-color:#475178"/>
		</linearGradient>
		
			<path style="mask:url(#h_00000176743285379757358430000017629146504249152436_);fill-rule:evenodd;clip-rule:evenodd;fill:url(#SVGID_00000089554374454745320420000004508760141775188886_);" d="
			M-53.1-55h233v465h-233L-53.1-55z"/>
		<defs>
			
				<filter id="Adobe_OpacityMaskFilter_00000027563479202112684690000008374601694891354256_" filterUnits="userSpaceOnUse" x="20.9" y="45" width="84.7" height="35.2">
				<feColorMatrix  type="matrix" values="1 0 0 0 0  0 1 0 0 0  0 0 1 0 0  0 0 0 1 0"/>
			</filter>
		</defs>
		
			<mask maskUnits="userSpaceOnUse" x="20.9" y="45" width="84.7" height="35.2" id="h_00000052791485686884950520000013915861695558461098_">
			<g style="filter:url(#Adobe_OpacityMaskFilter_00000027563479202112684690000008374601694891354256_);">
				<path id="f_00000106860478639345003830000013784865981773912764_" class="st5" d="M40.6-55h-74.4C-44.9-55-53-47.4-53-37.6
					v422.4c0,12.9,12.5,24.3,26.6,24.3H153c13.6,0,26.6-11.5,26.6-24.3V-36.4c0-11.8-8.8-18.5-19.2-18.6H84.8
					c-0.3,0-5.5,2.2-7.7,7.6c-2.2,5.4-6.6,9.7-11.4,9.7h-5.6c-2.3,0-8.3-2.2-11.4-9.7C45.6-54.9,40.9-55,40.6-55z"/>
			</g>
		</mask>
		<g class="st9">
			<text transform="matrix(1 0 0 1 20.926 72.556)" class="st10 st11 st12">12:49</text>
		</g>
	</g>
	<g transform="translate(22 167)">
		<g class="st13">
			<path id="j_00000124127377637496021110000006692523133666132670_" class="st14" d="M-48-55h208c2.8,0,5,2.2,5,5v77
				c0,2.8-2.2,5-5,5H-48c-2.8,0-5-2.2-5-5v-77C-53-52.8-50.8-55-48-55z"/>
		</g>
		<g>
			<path id="j_00000001632535678804689400000018231383310487206309_" class="st15" d="M-48-55h208c2.8,0,5,2.2,5,5v77
				c0,2.8-2.2,5-5,5H-48c-2.8,0-5-2.2-5-5v-77C-53-52.8-50.8-55-48-55z"/>
		</g>
		<g>
			<text transform="matrix(1 0 0 1 -37 -30)" class="st16 st11 st17">PayAPI</text>
			<text transform="matrix(1 0 0 1 107.05 -30)" class="st18 st19 st17">Just Now</text>
		</g>
		<text transform="matrix(1 0 0 1 -37 -15)" class="st18 st19 st17">The payment has been processed. The </text>
		<text transform="matrix(1 0 0 1 -37 -1)" class="st18 st19 st17">total amount deducted from your </text>
		<text transform="matrix(1 0 0 1 -37 13)" class="st18 st19 st17">account is</text>
		<text transform="matrix(1 0 0 1 10.2493 13)" class="st18 st19 st17"> </text>
		<text transform="matrix(1 0 0 1 10.62 13)" class="st18 st11 st17">US $104.90</text>
		<text transform="matrix(1 0 0 1 66.7893 13)" class="st18 st19 st17"> </text>
		<text transform="matrix(1 0 0 1 68.855 13)" class="st18 st19 st17">.</text>
	</g>
</g>
</svg>
