<?xml version="1.0" encoding="utf-8"?>
<!-- Generator: Adobe Illustrator 28.0.0, SVG Export Plug-In . SVG Version: 6.00 Build 0)  -->
<svg version="1.1" id="Layer_1" xmlns="http://www.w3.org/2000/svg" xmlns:xlink="http://www.w3.org/1999/xlink" x="0px" y="0px"
	 viewBox="0 0 565.5 499.4" style="enable-background:new 0 0 565.5 499.4;" xml:space="preserve">
<style type="text/css">
	.st0{fill-rule:evenodd;clip-rule:evenodd;fill:#213648;}
	.st1{opacity:0.596;fill-rule:evenodd;clip-rule:evenodd;fill:url(#SVGID_1_);fill-opacity:0.65;enable-background:new    ;}
	
		.st2{opacity:0.75;fill-rule:evenodd;clip-rule:evenodd;fill:url(#SVGID_00000005989467609141443780000014899299378253169576_);enable-background:new    ;}
	
		.st3{opacity:0.75;fill-rule:evenodd;clip-rule:evenodd;fill:url(#SVGID_00000030483118635645423000000004147518119853462427_);enable-background:new    ;}
	.st4{fill-rule:evenodd;clip-rule:evenodd;fill:#2E423C;}
	.st5{fill-rule:evenodd;clip-rule:evenodd;fill:#36536B;}
	.st6{filter:url(#g);}
	.st7{fill-rule:evenodd;clip-rule:evenodd;}
	.st8{fill-rule:evenodd;clip-rule:evenodd;fill:#FBFCFE;}
	.st9{enable-background:new    ;}
	.st10{fill:#36536B;}
	.st11{opacity:0.25;fill-rule:evenodd;clip-rule:evenodd;fill:#BA4270;enable-background:new    ;}
	.st12{fill:none;stroke:#BA4270;stroke-width:3;}
	.st13{fill-rule:evenodd;clip-rule:evenodd;fill:#BA4270;}
	.st14{fill:#FBFCFE;}
	
		.st15{opacity:0.596;fill-rule:evenodd;clip-rule:evenodd;fill:url(#SVGID_00000014631911989907201990000003487852609994629019_);fill-opacity:0.65;enable-background:new    ;}
	
		.st16{opacity:0.75;fill-rule:evenodd;clip-rule:evenodd;fill:url(#SVGID_00000165956718985377427040000018248916304602996631_);enable-background:new    ;}
	
		.st17{opacity:0.75;fill-rule:evenodd;clip-rule:evenodd;fill:url(#SVGID_00000104681915121625873740000012153528107696508054_);enable-background:new    ;}
	.st18{fill-rule:evenodd;clip-rule:evenodd;fill:#EDF3F8;}
	.st19{filter:url(#Adobe_OpacityMaskFilter);}
	.st20{fill-rule:evenodd;clip-rule:evenodd;fill:#FFFFFF;}
	.st21{mask:url(#l_00000146483924263041399860000010030333370833766839_);}
	.st22{filter:url(#m);}
	.st23{filter:url(#o);}
	.st24{filter:url(#q);}
	.st25{filter:url(#s);}
	.st26{filter:url(#u);}
	.st27{filter:url(#w);}
	.st28{filter:url(#y);}
	.st29{filter:url(#Adobe_OpacityMaskFilter_00000181056516992104529450000007041837319902768305_);}
	.st30{mask:url(#l_00000060014973294160352570000012120880128026779790_);fill-rule:evenodd;clip-rule:evenodd;fill:#36536B;}
	.st31{filter:url(#Adobe_OpacityMaskFilter_00000078011487366536271040000009210048414455098504_);}
	.st32{mask:url(#l_00000040538538105823556380000014324774730606646182_);}
	.st33{filter:url(#A);}
	.st34{fill:#BA4270;}
	.st35{filter:url(#Adobe_OpacityMaskFilter_00000054244955255323597910000006575400751056111520_);}
	.st36{mask:url(#l_00000008127251066465242660000003225772225993786294_);}
	.st37{opacity:0.5;fill-rule:evenodd;clip-rule:evenodd;fill:#FFFFFF;enable-background:new    ;}
	.st38{opacity:0.25;fill-rule:evenodd;clip-rule:evenodd;fill:#FFFFFF;enable-background:new    ;}
</style>
<filter  filterUnits="objectBoundingBox" height="237.5%" id="y" width="127%" x="-8.6%" y="-43.8%">
	<feMorphology  in="SourceAlpha" operator="erode" radius="5" result="shadowSpreadOuter1"></feMorphology>
	<feOffset  dx="10" dy="10" in="shadowSpreadOuter1" result="shadowOffsetOuter1"></feOffset>
	<feGaussianBlur  in="shadowOffsetOuter1" result="shadowBlurOuter1" stdDeviation="12.5"></feGaussianBlur>
	<feColorMatrix  in="shadowBlurOuter1" values="0 0 0 0 0.212302148 0 0 0 0 0.325209598 0 0 0 0 0.419299139 0 0 0 0.25 0">
		</feColorMatrix>
</filter>
<filter  filterUnits="objectBoundingBox" height="237.5%" id="w" width="127%" x="-8.6%" y="-43.8%">
	<feMorphology  in="SourceAlpha" operator="erode" radius="5" result="shadowSpreadOuter1"></feMorphology>
	<feOffset  dx="10" dy="10" in="shadowSpreadOuter1" result="shadowOffsetOuter1"></feOffset>
	<feGaussianBlur  in="shadowOffsetOuter1" result="shadowBlurOuter1" stdDeviation="12.5"></feGaussianBlur>
	<feColorMatrix  in="shadowBlurOuter1" values="0 0 0 0 0.212302148 0 0 0 0 0.325209598 0 0 0 0 0.419299139 0 0 0 0.25 0">
		</feColorMatrix>
</filter>
<filter  filterUnits="objectBoundingBox" height="237.5%" id="u" width="127%" x="-8.6%" y="-43.8%">
	<feMorphology  in="SourceAlpha" operator="erode" radius="5" result="shadowSpreadOuter1"></feMorphology>
	<feOffset  dx="10" dy="10" in="shadowSpreadOuter1" result="shadowOffsetOuter1"></feOffset>
	<feGaussianBlur  in="shadowOffsetOuter1" result="shadowBlurOuter1" stdDeviation="12.5"></feGaussianBlur>
	<feColorMatrix  in="shadowBlurOuter1" values="0 0 0 0 0.212302148 0 0 0 0 0.325209598 0 0 0 0 0.419299139 0 0 0 0.25 0">
		</feColorMatrix>
</filter>
<filter  filterUnits="objectBoundingBox" height="237.5%" id="s" width="127%" x="-8.6%" y="-43.8%">
	<feMorphology  in="SourceAlpha" operator="erode" radius="5" result="shadowSpreadOuter1"></feMorphology>
	<feOffset  dx="10" dy="10" in="shadowSpreadOuter1" result="shadowOffsetOuter1"></feOffset>
	<feGaussianBlur  in="shadowOffsetOuter1" result="shadowBlurOuter1" stdDeviation="12.5"></feGaussianBlur>
	<feColorMatrix  in="shadowBlurOuter1" values="0 0 0 0 0.212302148 0 0 0 0 0.325209598 0 0 0 0 0.419299139 0 0 0 0.25 0">
		</feColorMatrix>
</filter>
<filter  filterUnits="objectBoundingBox" height="237.5%" id="q" width="127%" x="-8.6%" y="-43.8%">
	<feMorphology  in="SourceAlpha" operator="erode" radius="5" result="shadowSpreadOuter1"></feMorphology>
	<feOffset  dx="10" dy="10" in="shadowSpreadOuter1" result="shadowOffsetOuter1"></feOffset>
	<feGaussianBlur  in="shadowOffsetOuter1" result="shadowBlurOuter1" stdDeviation="12.5"></feGaussianBlur>
	<feColorMatrix  in="shadowBlurOuter1" values="0 0 0 0 0.212302148 0 0 0 0 0.325209598 0 0 0 0 0.419299139 0 0 0 0.25 0">
		</feColorMatrix>
</filter>
<filter  filterUnits="objectBoundingBox" height="237.5%" id="o" width="127%" x="-8.6%" y="-43.8%">
	<feMorphology  in="SourceAlpha" operator="erode" radius="5" result="shadowSpreadOuter1"></feMorphology>
	<feOffset  dx="10" dy="10" in="shadowSpreadOuter1" result="shadowOffsetOuter1"></feOffset>
	<feGaussianBlur  in="shadowOffsetOuter1" result="shadowBlurOuter1" stdDeviation="12.5"></feGaussianBlur>
	<feColorMatrix  in="shadowBlurOuter1" values="0 0 0 0 0.212302148 0 0 0 0 0.325209598 0 0 0 0 0.419299139 0 0 0 0.25 0">
		</feColorMatrix>
</filter>
<filter  filterUnits="objectBoundingBox" height="237.5%" id="m" width="127%" x="-8.6%" y="-43.8%">
	<feMorphology  in="SourceAlpha" operator="erode" radius="5" result="shadowSpreadOuter1"></feMorphology>
	<feOffset  dx="10" dy="10" in="shadowSpreadOuter1" result="shadowOffsetOuter1"></feOffset>
	<feGaussianBlur  in="shadowOffsetOuter1" result="shadowBlurOuter1" stdDeviation="12.5"></feGaussianBlur>
	<feColorMatrix  in="shadowBlurOuter1" values="0 0 0 0 0.212302148 0 0 0 0 0.325209598 0 0 0 0 0.419299139 0 0 0 0.25 0">
		</feColorMatrix>
</filter>
<filter  filterUnits="objectBoundingBox" height="128.8%" id="g" width="131.2%" x="-9.9%" y="-9.2%">
	<feMorphology  in="SourceAlpha" operator="erode" radius="5" result="shadowSpreadOuter1"></feMorphology>
	<feOffset  dx="10" dy="10" in="shadowSpreadOuter1" result="shadowOffsetOuter1"></feOffset>
	<feGaussianBlur  in="shadowOffsetOuter1" result="shadowBlurOuter1" stdDeviation="12.5"></feGaussianBlur>
	<feColorMatrix  in="shadowBlurOuter1" values="0 0 0 0 0.212302148 0 0 0 0 0.325209598 0 0 0 0 0.419299139 0 0 0 0.25 0">
		</feColorMatrix>
</filter>
<filter  filterUnits="objectBoundingBox" height="198.2%" id="A" width="127%" x="-8.6%" y="-31.2%">
	<feMorphology  in="SourceAlpha" operator="erode" radius="5" result="shadowSpreadOuter1"></feMorphology>
	<feOffset  dx="10" dy="10" in="shadowSpreadOuter1" result="shadowOffsetOuter1"></feOffset>
	<feGaussianBlur  in="shadowOffsetOuter1" result="shadowBlurOuter1" stdDeviation="12.5"></feGaussianBlur>
	<feColorMatrix  in="shadowBlurOuter1" values="0 0 0 0 0.212302148 0 0 0 0 0.325209598 0 0 0 0 0.419299139 0 0 0 0.25 0">
		</feColorMatrix>
</filter>
<g>
	<g transform="translate(356 55)">
		<g>
			<path id="b_00000132767784513775733230000001280453254841856700_" class="st0" d="M-17.2-54.4H174c18.3,0,33.2,14.2,33.2,31.8
				v435.3c0,17.6-14.9,31.8-33.2,31.8H-17.2c-18.3,0-33.2-14.2-33.2-31.8V-22.6C-50.4-40.2-35.6-54.4-17.2-54.4L-17.2-54.4z"/>
		</g>
	</g>
	
		<linearGradient id="SVGID_1_" gradientUnits="userSpaceOnUse" x1="-165.0343" y1="738.3155" x2="-165.0343" y2="737.3155" gradientTransform="matrix(242.642 0 0 -12.324 40478.5859 9099)">
		<stop  offset="0" style="stop-color:#454545"/>
		<stop  offset="0.2263" style="stop-color:#999999"/>
		<stop  offset="1" style="stop-color:#FFFFFF"/>
	</linearGradient>
	<path class="st1" d="M530.7,0H337.9c-9,0.5-17.3,4.7-24.9,12.3c4.9-4.3,13.6-10,25.1-10h192.4c11.5,0,20.2,5.7,25.1,10
		C548.1,4.7,539.8,0.5,530.7,0z"/>
	
		<linearGradient id="SVGID_00000119810181964327122740000017524126489544205743_" gradientUnits="userSpaceOnUse" x1="-156.7229" y1="749.194" x2="-157.4159" y2="749.194" gradientTransform="matrix(13.6522 0 0 -470.6551 2702.7119 352860.8438)">
		<stop  offset="0" style="stop-color:#FFFFFF;stop-opacity:0"/>
		<stop  offset="0.2222" style="stop-color:#BABABA"/>
		<stop  offset="0.5468" style="stop-color:#FFFFFF;stop-opacity:0"/>
		<stop  offset="1" style="stop-color:#FFFFFF;stop-opacity:0"/>
	</linearGradient>
	
		<path style="opacity:0.75;fill-rule:evenodd;clip-rule:evenodd;fill:url(#SVGID_00000119810181964327122740000017524126489544205743_);enable-background:new    ;" d="
		M558,462.7V35c0-11.5-4.2-15.7-6.7-18.4c-2.5-2.7-2.6-4.1,1-2.1c3.6,2.1,10.8,8,10.8,20.5v427.7c0,12.5-7.2,18.4-10.8,20.5
		c-3.6,2.1-3.5,0.7-1-2.1S558,474.1,558,462.7L558,462.7z"/>
	
		<linearGradient id="SVGID_00000142136733543323983360000009724642923662599078_" gradientUnits="userSpaceOnUse" x1="-173.2771" y1="749.194" x2="-173.9712" y2="749.194" gradientTransform="matrix(-13.6522 0 0 -470.6551 -2060.0391 352860.8438)">
		<stop  offset="0" style="stop-color:#FFFFFF;stop-opacity:0"/>
		<stop  offset="0.2222" style="stop-color:#BABABA"/>
		<stop  offset="0.5468" style="stop-color:#FFFFFF;stop-opacity:0"/>
		<stop  offset="1" style="stop-color:#FFFFFF;stop-opacity:0"/>
	</linearGradient>
	
		<path style="opacity:0.75;fill-rule:evenodd;clip-rule:evenodd;fill:url(#SVGID_00000142136733543323983360000009724642923662599078_);enable-background:new    ;" d="
		M310.7,462.7V35c0-11.5,4.2-15.7,6.7-18.4c2.5-2.7,2.6-4.1-1-2.1c-3.6,2.1-10.8,8-10.8,20.5v427.7c0,12.5,7.2,18.4,10.8,20.5
		c3.6,2.1,3.5,0.7,1-2.1S310.7,474.1,310.7,462.7L310.7,462.7z"/>
	<g>
		<path class="st4" d="M305,101.6h1c1.1,0,2,0.9,2,2v60.4c0,1.1-0.9,2-2,2h-1c-1.1,0-2-0.9-2-2v-60.3
			C303,102.5,303.9,101.6,305,101.6L305,101.6z M562.5,154h1c1.1,0,2,0.9,2,2V199c0,1.1-0.9,2-2,2h-1c-1.1,0-2-0.9-2-2V156
			C560.5,154.9,561.4,154,562.5,154z"/>
	</g>
	<g transform="translate(371.074 67.444)">
		<g>
			<path id="f" class="st5" d="M40.6-55h-74.4C-44.9-55-53-47.4-53-37.6v422.4c0,12.9,12.5,24.3,26.6,24.3H153
				c13.6,0,26.6-11.5,26.6-24.3V-36.4c0-11.8-8.8-18.5-19.2-18.6H84.8c-0.3,0-5.5,2.2-7.7,7.6c-2.2,5.4-6.6,9.7-11.4,9.7h-5.6
				c-2.3,0-8.3-2.2-11.4-9.7C45.6-54.9,40.9-55,40.6-55z"/>
		</g>
	</g>
	<g>
		<g transform="translate(399 197)">
			<g class="st6">
				<path id="h_00000092439798618300566250000009791648060831100036_" class="st7" d="M-48-55h166c2.8,0,5,2.2,5,5v181
					c0,2.8-2.2,5-5,5H-48c-2.8,0-5-2.2-5-5V-50C-53-52.8-50.8-55-48-55z"/>
			</g>
			<g>
				<path id="h_00000008832591280289034770000006796367940119169410_" class="st8" d="M-48-55h166c2.8,0,5,2.2,5,5v181
					c0,2.8-2.2,5-5,5H-48c-2.8,0-5-2.2-5-5V-50C-53-52.8-50.8-55-48-55z"/>
			</g>
		</g>
		<g class="st9">
			<path class="st10" d="M379.2,258v-9.3h3.5c0.6,0,1.1,0,1.4,0.1c0.5,0.1,0.8,0.2,1.1,0.4c0.3,0.2,0.6,0.5,0.7,0.9
				c0.2,0.4,0.3,0.8,0.3,1.3c0,0.8-0.3,1.5-0.8,2c-0.5,0.5-1.4,0.8-2.7,0.8h-2.4v3.8H379.2z M380.5,253.1h2.4c0.8,0,1.4-0.1,1.7-0.4
				c0.3-0.3,0.5-0.7,0.5-1.2c0-0.4-0.1-0.7-0.3-1c-0.2-0.3-0.5-0.5-0.8-0.5c-0.2-0.1-0.6-0.1-1.1-0.1h-2.4V253.1z"/>
			<path class="st10" d="M392.1,257.2c-0.4,0.4-0.8,0.6-1.2,0.8c-0.4,0.1-0.8,0.2-1.3,0.2c-0.7,0-1.3-0.2-1.7-0.5
				c-0.4-0.4-0.6-0.8-0.6-1.4c0-0.3,0.1-0.6,0.2-0.9c0.2-0.3,0.3-0.5,0.6-0.7c0.2-0.2,0.5-0.3,0.8-0.4c0.2-0.1,0.6-0.1,1-0.2
				c0.9-0.1,1.6-0.2,2-0.4c0-0.2,0-0.3,0-0.3c0-0.5-0.1-0.8-0.3-1c-0.3-0.3-0.7-0.4-1.3-0.4c-0.5,0-0.9,0.1-1.2,0.3
				c-0.3,0.2-0.4,0.5-0.6,1l-1.1-0.2c0.1-0.5,0.3-0.9,0.5-1.2c0.2-0.3,0.6-0.5,1-0.7c0.4-0.2,1-0.2,1.5-0.2c0.6,0,1,0.1,1.4,0.2
				c0.4,0.1,0.6,0.3,0.8,0.5c0.2,0.2,0.3,0.5,0.4,0.8c0,0.2,0.1,0.5,0.1,1.1v1.5c0,1.1,0,1.7,0.1,2c0,0.3,0.1,0.6,0.3,0.8h-1.2
				C392.2,257.8,392.1,257.5,392.1,257.2z M392,254.6c-0.4,0.2-1,0.3-1.9,0.4c-0.5,0.1-0.8,0.1-1,0.2c-0.2,0.1-0.3,0.2-0.5,0.4
				c-0.1,0.2-0.2,0.3-0.2,0.5c0,0.3,0.1,0.6,0.3,0.8c0.2,0.2,0.6,0.3,1,0.3c0.4,0,0.8-0.1,1.2-0.3s0.6-0.5,0.8-0.8
				c0.1-0.3,0.2-0.6,0.2-1.1V254.6z"/>
			<path class="st10" d="M394.7,260.6l-0.1-1.1c0.2,0.1,0.5,0.1,0.7,0.1c0.3,0,0.5,0,0.6-0.1s0.3-0.2,0.4-0.4
				c0.1-0.1,0.2-0.4,0.3-0.9c0-0.1,0.1-0.2,0.1-0.3l-2.6-6.8h1.2l1.4,3.9c0.2,0.5,0.3,1,0.5,1.6c0.1-0.5,0.3-1,0.5-1.5l1.4-3.9h1.1
				l-2.6,6.9c-0.3,0.7-0.5,1.3-0.6,1.5c-0.2,0.4-0.4,0.7-0.7,0.8c-0.3,0.2-0.6,0.3-0.9,0.3C395.3,260.7,395,260.7,394.7,260.6z"/>
			<path class="st10" d="M401.2,258v-6.7h1v0.9c0.2-0.3,0.5-0.6,0.8-0.8c0.4-0.2,0.8-0.3,1.2-0.3c0.5,0,0.9,0.1,1.2,0.3
				c0.3,0.2,0.5,0.5,0.7,0.9c0.5-0.8,1.2-1.2,2.1-1.2c0.7,0,1.2,0.2,1.5,0.6c0.4,0.4,0.5,0.9,0.5,1.7v4.6h-1.1v-4.2
				c0-0.5,0-0.8-0.1-1s-0.2-0.4-0.4-0.5c-0.2-0.1-0.4-0.2-0.7-0.2c-0.5,0-0.9,0.2-1.2,0.5c-0.3,0.3-0.5,0.8-0.5,1.5v3.9h-1.1v-4.4
				c0-0.5-0.1-0.9-0.3-1.1c-0.2-0.3-0.5-0.4-0.9-0.4c-0.3,0-0.6,0.1-0.9,0.3c-0.3,0.2-0.5,0.4-0.6,0.7c-0.1,0.3-0.2,0.8-0.2,1.4v3.5
				H401.2z"/>
			<path class="st10" d="M416.6,255.8l1.2,0.1c-0.2,0.7-0.5,1.2-1,1.6c-0.5,0.4-1.1,0.6-1.9,0.6c-1,0-1.8-0.3-2.3-0.9
				c-0.6-0.6-0.9-1.5-0.9-2.6c0-1.1,0.3-2,0.9-2.6s1.3-0.9,2.3-0.9c0.9,0,1.6,0.3,2.2,0.9c0.6,0.6,0.9,1.5,0.9,2.6
				c0,0.1,0,0.2,0,0.3h-5c0,0.7,0.3,1.3,0.6,1.7c0.4,0.4,0.8,0.6,1.4,0.6c0.4,0,0.8-0.1,1.1-0.3
				C416.2,256.7,416.4,256.3,416.6,255.8z M412.8,254h3.8c-0.1-0.6-0.2-1-0.4-1.3c-0.4-0.4-0.8-0.7-1.4-0.7c-0.5,0-1,0.2-1.3,0.5
				C413,252.9,412.8,253.4,412.8,254z"/>
			<path class="st10" d="M419.1,258v-6.7h1v1c0.5-0.7,1.2-1.1,2.1-1.1c0.4,0,0.8,0.1,1.1,0.2c0.3,0.1,0.6,0.3,0.8,0.6
				c0.2,0.2,0.3,0.5,0.4,0.8c0,0.2,0.1,0.6,0.1,1.1v4.1h-1.1v-4.1c0-0.5,0-0.8-0.1-1s-0.2-0.4-0.5-0.6c-0.2-0.1-0.5-0.2-0.8-0.2
				c-0.5,0-0.9,0.2-1.3,0.5c-0.4,0.3-0.5,0.9-0.5,1.8v3.7H419.1z"/>
			<path class="st10" d="M428.7,257l0.2,1c-0.3,0.1-0.6,0.1-0.9,0.1c-0.4,0-0.7-0.1-1-0.2c-0.2-0.1-0.4-0.3-0.5-0.5
				c-0.1-0.2-0.1-0.7-0.1-1.3v-3.9h-0.8v-0.9h0.8v-1.7l1.1-0.7v2.4h1.1v0.9h-1.1v3.9c0,0.3,0,0.5,0.1,0.6s0.1,0.2,0.2,0.2
				c0.1,0.1,0.2,0.1,0.4,0.1C428.3,257,428.5,257,428.7,257z"/>
			<path class="st10" d="M432.8,254.6c0-1.2,0.3-2.2,1-2.8c0.6-0.5,1.3-0.7,2.1-0.7c0.9,0,1.7,0.3,2.3,0.9c0.6,0.6,0.9,1.4,0.9,2.5
				c0,0.9-0.1,1.5-0.4,2c-0.3,0.5-0.6,0.9-1.1,1.2c-0.5,0.3-1,0.4-1.6,0.4c-0.9,0-1.7-0.3-2.3-0.9
				C433.1,256.6,432.8,255.8,432.8,254.6z M434,254.6c0,0.9,0.2,1.5,0.6,1.9c0.4,0.4,0.9,0.6,1.4,0.6c0.6,0,1-0.2,1.4-0.6
				c0.4-0.4,0.6-1.1,0.6-2c0-0.8-0.2-1.5-0.6-1.9c-0.4-0.4-0.8-0.6-1.4-0.6c-0.6,0-1,0.2-1.4,0.6C434.2,253.1,434,253.8,434,254.6z"
				/>
			<path class="st10" d="M440.7,258v-5.9h-1v-0.9h1v-0.7c0-0.5,0-0.8,0.1-1c0.1-0.3,0.3-0.5,0.6-0.7c0.3-0.2,0.7-0.3,1.2-0.3
				c0.3,0,0.7,0,1.1,0.1l-0.2,1c-0.2,0-0.5-0.1-0.7-0.1c-0.3,0-0.6,0.1-0.7,0.2c-0.1,0.1-0.2,0.4-0.2,0.8v0.6h1.3v0.9h-1.3v5.9
				H440.7z"/>
		</g>
		<g class="st9">
			<path class="st10" d="M453.3,258.1c-1.1,0-2-0.2-2.7-0.7c-0.7-0.5-1.1-1.2-1.2-2.1l2,0c0.1,0.4,0.3,0.8,0.7,1
				c0.3,0.2,0.8,0.3,1.3,0.3c0.3,0,0.6-0.1,0.8-0.2c0.2-0.1,0.4-0.2,0.6-0.4s0.2-0.4,0.2-0.6c0-0.3-0.1-0.6-0.3-0.8
				c-0.2-0.2-0.6-0.3-1-0.4l-1.5-0.3c-0.7-0.1-1.3-0.4-1.7-0.9c-0.4-0.4-0.7-1-0.7-1.7c0-0.6,0.2-1.1,0.5-1.5c0.3-0.4,0.8-0.8,1.3-1
				s1.2-0.4,1.9-0.4c0.7,0,1.3,0.1,1.8,0.4s0.9,0.6,1.2,1s0.4,0.9,0.4,1.4l-1.9,0c-0.1-0.4-0.2-0.7-0.4-1s-0.6-0.4-1.1-0.4
				c-0.3,0-0.5,0-0.7,0.1c-0.2,0.1-0.4,0.1-0.5,0.2c-0.1,0.1-0.3,0.2-0.3,0.4s-0.1,0.3-0.1,0.5c0,0.3,0.1,0.5,0.3,0.6
				c0.2,0.2,0.5,0.3,1,0.4l1.5,0.4c0.9,0.2,1.5,0.6,1.8,1c0.4,0.5,0.6,1.1,0.6,1.8c0,0.5-0.1,1-0.4,1.4c-0.3,0.4-0.7,0.7-1.3,0.9
				C454.7,258,454.1,258.1,453.3,258.1z M452.5,259.2v-1.7h1.6v1.7H452.5z M452.5,248.9v-1.7h1.6v1.7H452.5z"/>
			<path class="st10" d="M461.5,258.1c-0.6,0-1.1-0.1-1.6-0.3c-0.5-0.2-0.9-0.5-1.2-1c-0.3-0.4-0.5-0.9-0.5-1.4h1.8
				c0.1,0.4,0.3,0.7,0.5,0.9c0.3,0.2,0.6,0.3,1,0.3c0.5,0,0.8-0.1,1.2-0.3c0.3-0.2,0.6-0.6,0.8-1c0.2-0.5,0.2-1.1,0.2-1.8
				c-0.1,0.2-0.3,0.4-0.5,0.6c-0.2,0.2-0.5,0.3-0.8,0.4c-0.3,0.1-0.6,0.1-1,0.1c-0.6,0-1.2-0.1-1.7-0.4s-0.9-0.6-1.2-1
				c-0.3-0.4-0.4-1-0.4-1.6c0-0.6,0.1-1.2,0.4-1.6c0.3-0.5,0.7-0.9,1.2-1.1c0.5-0.3,1.1-0.4,1.9-0.4c0.8,0,1.5,0.2,2.1,0.6
				c0.6,0.4,1,0.9,1.3,1.6c0.3,0.7,0.5,1.5,0.5,2.5c0,1.1-0.2,2.1-0.5,2.8c-0.3,0.7-0.8,1.3-1.4,1.7
				C463.1,258,462.4,258.1,461.5,258.1z M461.7,253.1c0.3,0,0.5-0.1,0.8-0.2c0.2-0.1,0.5-0.3,0.6-0.5c0.2-0.2,0.2-0.4,0.2-0.6
				c0-0.4-0.1-0.8-0.2-1.1c-0.1-0.3-0.3-0.5-0.6-0.7c-0.2-0.2-0.5-0.2-0.9-0.2c-0.3,0-0.6,0.1-0.8,0.2s-0.4,0.3-0.6,0.6
				c-0.1,0.3-0.2,0.5-0.2,0.9c0,0.5,0.1,0.9,0.4,1.1C460.9,253,461.2,253.1,461.7,253.1z"/>
			<path class="st10" d="M466.7,258v-0.9v-0.5c0-0.5,0.1-0.9,0.3-1.2s0.4-0.7,0.7-0.9s0.6-0.5,1-0.7c0.3-0.2,0.7-0.4,1-0.6
				c0.4-0.2,0.7-0.3,1-0.5c0.3-0.2,0.5-0.4,0.7-0.6s0.3-0.5,0.3-0.8c0-0.4-0.1-0.7-0.4-0.9s-0.6-0.4-1.1-0.4c-0.5,0-0.9,0.1-1.2,0.4
				c-0.3,0.3-0.5,0.7-0.6,1.2h-1.8c0-0.6,0.1-1.1,0.4-1.6c0.3-0.5,0.7-0.9,1.2-1.2c0.5-0.3,1.2-0.4,2-0.4c0.7,0,1.3,0.1,1.8,0.4
				s0.9,0.6,1.2,1s0.4,0.9,0.4,1.5c0,0.5-0.1,0.9-0.3,1.2c-0.2,0.3-0.4,0.6-0.7,0.9c-0.3,0.2-0.6,0.5-0.9,0.6
				c-0.3,0.2-0.7,0.4-1,0.5c-0.3,0.2-0.7,0.3-0.9,0.5c-0.3,0.2-0.5,0.3-0.7,0.5c-0.2,0.2-0.3,0.4-0.3,0.7v0.1h4.8v1.6H466.7z"/>
			<path class="st10" d="M478.3,258.1c-1.1,0-2-0.4-2.7-1.2c-0.6-0.8-1-2-1-3.6c0-1,0.1-1.9,0.4-2.6s0.7-1.3,1.3-1.6
				s1.2-0.6,1.9-0.6c1.1,0,2,0.4,2.6,1.3c0.6,0.8,1,2,1,3.6c0,1.6-0.3,2.7-1,3.6S479.5,258.1,478.3,258.1z M478.3,256.6
				c0.6,0,1-0.3,1.2-0.8c0.3-0.5,0.4-1.3,0.4-2.5c0-1.2-0.1-2.1-0.4-2.6c-0.3-0.5-0.7-0.8-1.2-0.8s-1,0.3-1.2,0.8s-0.4,1.4-0.4,2.6
				c0,1.2,0.1,2,0.4,2.5C477.4,256.3,477.8,256.6,478.3,256.6z"/>
			<path class="st10" d="M487.3,258l0-2.1h-4.3v-1.6l4.3-5.8h1.9v5.7h1.5v1.6h-1.5v2.1H487.3z M484.7,254.3h2.6v-3.4L484.7,254.3z"
				/>
		</g>
		<g class="st9">
			<path class="st10" d="M384.6,268v-1.3h1.1v1.3H384.6z M384.6,276v-6.7h1.1v6.7H384.6z"/>
			<path class="st10" d="M386.9,274l1.1-0.2c0.1,0.5,0.2,0.8,0.5,1c0.3,0.2,0.7,0.4,1.2,0.4c0.5,0,0.9-0.1,1.2-0.3s0.4-0.5,0.4-0.8
				c0-0.3-0.1-0.5-0.3-0.6c-0.2-0.1-0.5-0.2-1.2-0.4c-0.8-0.2-1.4-0.4-1.7-0.5c-0.3-0.2-0.6-0.4-0.7-0.6c-0.2-0.3-0.2-0.6-0.2-0.9
				c0-0.3,0.1-0.6,0.2-0.8s0.3-0.5,0.6-0.6c0.2-0.1,0.4-0.2,0.7-0.3c0.3-0.1,0.6-0.1,1-0.1c0.5,0,1,0.1,1.4,0.2
				c0.4,0.2,0.7,0.4,0.9,0.6c0.2,0.3,0.3,0.6,0.4,1l-1.1,0.2c-0.1-0.3-0.2-0.6-0.4-0.8s-0.6-0.3-1-0.3c-0.5,0-0.9,0.1-1.1,0.3
				c-0.2,0.2-0.3,0.4-0.3,0.6c0,0.1,0,0.3,0.1,0.4c0.1,0.1,0.2,0.2,0.4,0.3c0.1,0,0.5,0.1,1,0.3c0.8,0.2,1.4,0.4,1.7,0.5
				s0.6,0.3,0.8,0.6c0.2,0.3,0.3,0.6,0.3,1c0,0.4-0.1,0.7-0.3,1.1c-0.2,0.3-0.5,0.6-1,0.8c-0.4,0.2-0.9,0.3-1.4,0.3
				c-0.9,0-1.5-0.2-2-0.5S387.1,274.7,386.9,274z"/>
			<path class="st10" d="M401.7,273.5l1.1,0.1c-0.1,0.8-0.4,1.4-0.9,1.8c-0.5,0.4-1.1,0.7-1.9,0.7c-0.9,0-1.7-0.3-2.2-0.9
				c-0.6-0.6-0.8-1.5-0.8-2.6c0-0.7,0.1-1.4,0.4-1.9s0.6-1,1.1-1.2c0.5-0.3,1-0.4,1.6-0.4c0.7,0,1.3,0.2,1.8,0.6
				c0.5,0.4,0.8,0.9,0.9,1.6l-1.1,0.2c-0.1-0.5-0.3-0.8-0.6-1c-0.3-0.2-0.6-0.3-1-0.3c-0.6,0-1,0.2-1.4,0.6c-0.4,0.4-0.5,1.1-0.5,2
				c0,0.9,0.2,1.6,0.5,2c0.3,0.4,0.8,0.6,1.4,0.6c0.4,0,0.8-0.1,1.1-0.4C401.4,274.5,401.6,274.1,401.7,273.5z"/>
			<path class="st10" d="M403.3,272.6c0-1.2,0.3-2.2,1-2.8c0.6-0.5,1.3-0.7,2.1-0.7c0.9,0,1.7,0.3,2.3,0.9c0.6,0.6,0.9,1.4,0.9,2.5
				c0,0.9-0.1,1.5-0.4,2c-0.3,0.5-0.6,0.9-1.1,1.2c-0.5,0.3-1,0.4-1.6,0.4c-0.9,0-1.7-0.3-2.3-0.9
				C403.6,274.6,403.3,273.8,403.3,272.6z M404.5,272.6c0,0.9,0.2,1.5,0.6,1.9c0.4,0.4,0.9,0.6,1.4,0.6c0.6,0,1-0.2,1.4-0.6
				c0.4-0.4,0.6-1.1,0.6-2c0-0.8-0.2-1.5-0.6-1.9c-0.4-0.4-0.8-0.6-1.4-0.6c-0.6,0-1,0.2-1.4,0.6
				C404.7,271.1,404.5,271.8,404.5,272.6z"/>
			<path class="st10" d="M410.9,276v-6.7h1v0.9c0.2-0.3,0.5-0.6,0.8-0.8c0.4-0.2,0.8-0.3,1.2-0.3c0.5,0,0.9,0.1,1.2,0.3
				c0.3,0.2,0.5,0.5,0.7,0.9c0.5-0.8,1.2-1.2,2.1-1.2c0.7,0,1.2,0.2,1.5,0.6c0.4,0.4,0.5,0.9,0.5,1.7v4.6h-1.1v-4.2
				c0-0.5,0-0.8-0.1-1s-0.2-0.4-0.4-0.5c-0.2-0.1-0.4-0.2-0.7-0.2c-0.5,0-0.9,0.2-1.2,0.5c-0.3,0.3-0.5,0.8-0.5,1.5v3.9h-1.1v-4.4
				c0-0.5-0.1-0.9-0.3-1.1c-0.2-0.3-0.5-0.4-0.9-0.4c-0.3,0-0.6,0.1-0.9,0.3c-0.3,0.2-0.5,0.4-0.6,0.7c-0.1,0.3-0.2,0.8-0.2,1.4v3.5
				H410.9z"/>
			<path class="st10" d="M421.6,278.6v-9.3h1v0.9c0.2-0.3,0.5-0.6,0.8-0.8c0.3-0.2,0.7-0.3,1.1-0.3c0.6,0,1.1,0.1,1.5,0.4
				c0.4,0.3,0.8,0.7,1,1.3c0.2,0.5,0.3,1.1,0.3,1.8c0,0.7-0.1,1.3-0.4,1.9c-0.2,0.6-0.6,1-1.1,1.3c-0.5,0.3-1,0.4-1.5,0.4
				c-0.4,0-0.7-0.1-1-0.2c-0.3-0.2-0.6-0.4-0.7-0.6v3.3H421.6z M422.6,272.7c0,0.9,0.2,1.5,0.5,1.9c0.4,0.4,0.8,0.6,1.3,0.6
				c0.5,0,0.9-0.2,1.3-0.6c0.4-0.4,0.5-1.1,0.5-2c0-0.9-0.2-1.5-0.5-1.9s-0.8-0.6-1.3-0.6c-0.5,0-0.9,0.2-1.3,0.7
				C422.8,271.1,422.6,271.8,422.6,272.7z"/>
			<path class="st10" d="M428.7,276v-9.3h1.1v9.3H428.7z"/>
			<path class="st10" d="M436.2,273.8l1.2,0.1c-0.2,0.7-0.5,1.2-1,1.6c-0.5,0.4-1.1,0.6-1.9,0.6c-1,0-1.8-0.3-2.3-0.9
				c-0.6-0.6-0.9-1.5-0.9-2.6c0-1.1,0.3-2,0.9-2.6s1.3-0.9,2.3-0.9c0.9,0,1.6,0.3,2.2,0.9c0.6,0.6,0.9,1.5,0.9,2.6
				c0,0.1,0,0.2,0,0.3h-5c0,0.7,0.3,1.3,0.6,1.7c0.4,0.4,0.8,0.6,1.4,0.6c0.4,0,0.8-0.1,1.1-0.3C435.7,274.7,436,274.3,436.2,273.8z
				 M432.4,272h3.8c-0.1-0.6-0.2-1-0.4-1.3c-0.4-0.4-0.8-0.7-1.4-0.7c-0.5,0-1,0.2-1.3,0.5C432.6,270.9,432.4,271.4,432.4,272z"/>
			<path class="st10" d="M441.2,275l0.2,1c-0.3,0.1-0.6,0.1-0.9,0.1c-0.4,0-0.7-0.1-1-0.2c-0.2-0.1-0.4-0.3-0.5-0.5
				c-0.1-0.2-0.1-0.7-0.1-1.3v-3.9h-0.8v-0.9h0.8v-1.7l1.1-0.7v2.4h1.1v0.9H440v3.9c0,0.3,0,0.5,0.1,0.6c0,0.1,0.1,0.2,0.2,0.2
				c0.1,0.1,0.2,0.1,0.4,0.1C440.8,275,441,275,441.2,275z"/>
			<path class="st10" d="M446.8,273.8l1.2,0.1c-0.2,0.7-0.5,1.2-1,1.6c-0.5,0.4-1.1,0.6-1.9,0.6c-1,0-1.8-0.3-2.3-0.9
				c-0.6-0.6-0.9-1.5-0.9-2.6c0-1.1,0.3-2,0.9-2.6s1.3-0.9,2.3-0.9c0.9,0,1.6,0.3,2.2,0.9c0.6,0.6,0.9,1.5,0.9,2.6
				c0,0.1,0,0.2,0,0.3h-5c0,0.7,0.3,1.3,0.6,1.7c0.4,0.4,0.8,0.6,1.4,0.6c0.4,0,0.8-0.1,1.1-0.3
				C446.4,274.7,446.6,274.3,446.8,273.8z M443.1,272h3.8c-0.1-0.6-0.2-1-0.4-1.3c-0.4-0.4-0.8-0.7-1.4-0.7c-0.5,0-1,0.2-1.3,0.5
				C443.3,270.9,443.1,271.4,443.1,272z"/>
			<path class="st10" d="M453.7,276v-0.9c-0.4,0.7-1.1,1-1.9,1c-0.5,0-1-0.1-1.5-0.4c-0.5-0.3-0.8-0.7-1-1.2
				c-0.2-0.5-0.4-1.1-0.4-1.8c0-0.7,0.1-1.3,0.3-1.8c0.2-0.5,0.6-1,1-1.3c0.4-0.3,1-0.4,1.5-0.4c0.4,0,0.8,0.1,1.1,0.3
				c0.3,0.2,0.6,0.4,0.8,0.7v-3.3h1.1v9.3H453.7z M450.1,272.6c0,0.9,0.2,1.5,0.5,1.9c0.4,0.4,0.8,0.6,1.3,0.6
				c0.5,0,0.9-0.2,1.3-0.6c0.3-0.4,0.5-1,0.5-1.9c0-0.9-0.2-1.6-0.5-2s-0.8-0.6-1.3-0.6c-0.5,0-0.9,0.2-1.3,0.6
				C450.3,271.1,450.1,271.7,450.1,272.6z"/>
			<path class="st10" d="M464.4,275.2c-0.4,0.4-0.8,0.6-1.2,0.8c-0.4,0.1-0.8,0.2-1.3,0.2c-0.7,0-1.3-0.2-1.7-0.5
				c-0.4-0.4-0.6-0.8-0.6-1.4c0-0.3,0.1-0.6,0.2-0.9c0.2-0.3,0.3-0.5,0.6-0.7c0.2-0.2,0.5-0.3,0.8-0.4c0.2-0.1,0.6-0.1,1-0.2
				c0.9-0.1,1.6-0.2,2-0.4c0-0.2,0-0.3,0-0.3c0-0.5-0.1-0.8-0.3-1c-0.3-0.3-0.7-0.4-1.3-0.4c-0.5,0-0.9,0.1-1.2,0.3
				c-0.3,0.2-0.4,0.5-0.6,1l-1.1-0.2c0.1-0.5,0.3-0.9,0.5-1.2c0.2-0.3,0.6-0.5,1-0.7c0.4-0.2,1-0.2,1.5-0.2c0.6,0,1,0.1,1.4,0.2
				c0.4,0.1,0.6,0.3,0.8,0.5c0.2,0.2,0.3,0.5,0.4,0.8c0,0.2,0.1,0.5,0.1,1.1v1.5c0,1.1,0,1.7,0.1,2c0,0.3,0.1,0.6,0.3,0.8h-1.2
				C464.5,275.8,464.4,275.5,464.4,275.2z M464.3,272.6c-0.4,0.2-1,0.3-1.9,0.4c-0.5,0.1-0.8,0.1-1,0.2c-0.2,0.1-0.3,0.2-0.5,0.4
				c-0.1,0.2-0.2,0.3-0.2,0.5c0,0.3,0.1,0.6,0.3,0.8c0.2,0.2,0.6,0.3,1,0.3c0.4,0,0.8-0.1,1.2-0.3s0.6-0.5,0.8-0.8
				c0.1-0.3,0.2-0.6,0.2-1.1V272.6z"/>
			<path class="st10" d="M467.1,276v-6.7h1v1c0.5-0.7,1.2-1.1,2.1-1.1c0.4,0,0.8,0.1,1.1,0.2c0.3,0.1,0.6,0.3,0.8,0.6
				c0.2,0.2,0.3,0.5,0.4,0.8c0,0.2,0.1,0.6,0.1,1.1v4.1h-1.1v-4.1c0-0.5,0-0.8-0.1-1s-0.2-0.4-0.5-0.6s-0.5-0.2-0.8-0.2
				c-0.5,0-0.9,0.2-1.3,0.5c-0.4,0.3-0.5,0.9-0.5,1.8v3.7H467.1z"/>
			<path class="st10" d="M478.7,276v-0.9c-0.4,0.7-1.1,1-1.9,1c-0.5,0-1-0.1-1.5-0.4c-0.5-0.3-0.8-0.7-1-1.2
				c-0.2-0.5-0.4-1.1-0.4-1.8c0-0.7,0.1-1.3,0.3-1.8c0.2-0.5,0.6-1,1-1.3c0.4-0.3,1-0.4,1.5-0.4c0.4,0,0.8,0.1,1.1,0.3
				c0.3,0.2,0.6,0.4,0.8,0.7v-3.3h1.1v9.3H478.7z M475,272.6c0,0.9,0.2,1.5,0.5,1.9c0.4,0.4,0.8,0.6,1.3,0.6c0.5,0,0.9-0.2,1.3-0.6
				c0.3-0.4,0.5-1,0.5-1.9c0-0.9-0.2-1.6-0.5-2s-0.8-0.6-1.3-0.6c-0.5,0-0.9,0.2-1.3,0.6C475.2,271.1,475,271.7,475,272.6z"/>
		</g>
		<g class="st9">
			<path class="st10" d="M365.5,296.6v-9.3h1v0.9c0.2-0.3,0.5-0.6,0.8-0.8c0.3-0.2,0.7-0.3,1.1-0.3c0.6,0,1.1,0.1,1.5,0.4
				c0.4,0.3,0.8,0.7,1,1.3c0.2,0.5,0.3,1.1,0.3,1.8c0,0.7-0.1,1.3-0.4,1.9c-0.2,0.6-0.6,1-1.1,1.3c-0.5,0.3-1,0.4-1.5,0.4
				c-0.4,0-0.7-0.1-1-0.2c-0.3-0.2-0.6-0.4-0.7-0.6v3.3H365.5z M366.6,290.7c0,0.9,0.2,1.5,0.5,1.9c0.4,0.4,0.8,0.6,1.3,0.6
				c0.5,0,0.9-0.2,1.3-0.6c0.4-0.4,0.5-1.1,0.5-2c0-0.9-0.2-1.5-0.5-1.9s-0.8-0.6-1.3-0.6c-0.5,0-0.9,0.2-1.3,0.7
				C366.8,289.1,366.6,289.8,366.6,290.7z"/>
			<path class="st10" d="M372.7,294v-6.7h1v1c0.3-0.5,0.5-0.8,0.7-0.9c0.2-0.2,0.5-0.2,0.7-0.2c0.4,0,0.8,0.1,1.2,0.4l-0.4,1.1
				c-0.3-0.2-0.6-0.2-0.8-0.2c-0.2,0-0.5,0.1-0.7,0.2c-0.2,0.2-0.3,0.4-0.4,0.6c-0.1,0.4-0.2,0.9-0.2,1.3v3.5H372.7z"/>
			<path class="st10" d="M376.5,290.6c0-1.2,0.3-2.2,1-2.8c0.6-0.5,1.3-0.7,2.1-0.7c0.9,0,1.7,0.3,2.3,0.9c0.6,0.6,0.9,1.4,0.9,2.5
				c0,0.9-0.1,1.5-0.4,2c-0.3,0.5-0.6,0.9-1.1,1.2c-0.5,0.3-1,0.4-1.6,0.4c-0.9,0-1.7-0.3-2.3-0.9
				C376.8,292.6,376.5,291.8,376.5,290.6z M377.7,290.6c0,0.9,0.2,1.5,0.6,1.9c0.4,0.4,0.9,0.6,1.4,0.6c0.6,0,1-0.2,1.4-0.6
				c0.4-0.4,0.6-1.1,0.6-2c0-0.8-0.2-1.5-0.6-1.9c-0.4-0.4-0.8-0.6-1.4-0.6c-0.6,0-1,0.2-1.4,0.6
				C377.8,289.1,377.7,289.8,377.7,290.6z"/>
			<path class="st10" d="M388.4,291.5l1.1,0.1c-0.1,0.8-0.4,1.4-0.9,1.8c-0.5,0.4-1.1,0.7-1.9,0.7c-0.9,0-1.7-0.3-2.2-0.9
				c-0.6-0.6-0.8-1.5-0.8-2.6c0-0.7,0.1-1.4,0.4-1.9s0.6-1,1.1-1.2c0.5-0.3,1-0.4,1.6-0.4c0.7,0,1.3,0.2,1.8,0.6
				c0.5,0.4,0.8,0.9,0.9,1.6l-1.1,0.2c-0.1-0.5-0.3-0.8-0.6-1s-0.6-0.3-1-0.3c-0.6,0-1,0.2-1.4,0.6c-0.4,0.4-0.5,1.1-0.5,2
				c0,0.9,0.2,1.6,0.5,2c0.3,0.4,0.8,0.6,1.4,0.6c0.4,0,0.8-0.1,1.1-0.4C388.2,292.5,388.4,292.1,388.4,291.5z"/>
			<path class="st10" d="M395.1,291.8l1.2,0.1c-0.2,0.7-0.5,1.2-1,1.6c-0.5,0.4-1.1,0.6-1.9,0.6c-1,0-1.8-0.3-2.3-0.9
				c-0.6-0.6-0.9-1.5-0.9-2.6c0-1.1,0.3-2,0.9-2.6s1.3-0.9,2.3-0.9c0.9,0,1.6,0.3,2.2,0.9c0.6,0.6,0.9,1.5,0.9,2.6
				c0,0.1,0,0.2,0,0.3h-5c0,0.7,0.3,1.3,0.6,1.7c0.4,0.4,0.8,0.6,1.4,0.6c0.4,0,0.8-0.1,1.1-0.3
				C394.7,292.7,394.9,292.3,395.1,291.8z M391.3,290h3.8c-0.1-0.6-0.2-1-0.4-1.3c-0.4-0.4-0.8-0.7-1.4-0.7c-0.5,0-1,0.2-1.3,0.5
				C391.6,288.9,391.4,289.4,391.3,290z"/>
			<path class="st10" d="M397.1,292l1.1-0.2c0.1,0.5,0.2,0.8,0.5,1c0.3,0.2,0.7,0.4,1.2,0.4c0.5,0,0.9-0.1,1.2-0.3s0.4-0.5,0.4-0.8
				c0-0.3-0.1-0.5-0.3-0.6c-0.2-0.1-0.5-0.2-1.2-0.4c-0.8-0.2-1.4-0.4-1.7-0.5c-0.3-0.2-0.6-0.4-0.7-0.6c-0.2-0.3-0.3-0.6-0.3-0.9
				c0-0.3,0.1-0.6,0.2-0.8c0.1-0.3,0.3-0.5,0.6-0.6c0.2-0.1,0.4-0.2,0.7-0.3s0.6-0.1,1-0.1c0.5,0,1,0.1,1.4,0.2
				c0.4,0.2,0.7,0.4,0.9,0.6c0.2,0.3,0.3,0.6,0.4,1l-1.1,0.2c-0.1-0.3-0.2-0.6-0.4-0.8c-0.2-0.2-0.6-0.3-1-0.3
				c-0.5,0-0.9,0.1-1.1,0.3c-0.2,0.2-0.3,0.4-0.3,0.6c0,0.1,0,0.3,0.1,0.4c0.1,0.1,0.2,0.2,0.4,0.3c0.1,0,0.5,0.1,1,0.3
				c0.8,0.2,1.4,0.4,1.7,0.5c0.3,0.1,0.6,0.3,0.8,0.6c0.2,0.3,0.3,0.6,0.3,1c0,0.4-0.1,0.7-0.3,1.1c-0.2,0.3-0.5,0.6-1,0.8
				c-0.4,0.2-0.9,0.3-1.4,0.3c-0.9,0-1.5-0.2-2-0.5C397.6,293.2,397.3,292.7,397.1,292z"/>
			<path class="st10" d="M403.5,292l1.1-0.2c0.1,0.5,0.2,0.8,0.5,1c0.3,0.2,0.7,0.4,1.2,0.4c0.5,0,0.9-0.1,1.2-0.3s0.4-0.5,0.4-0.8
				c0-0.3-0.1-0.5-0.3-0.6c-0.2-0.1-0.5-0.2-1.2-0.4c-0.8-0.2-1.4-0.4-1.7-0.5c-0.3-0.2-0.6-0.4-0.7-0.6c-0.2-0.3-0.3-0.6-0.3-0.9
				c0-0.3,0.1-0.6,0.2-0.8c0.1-0.3,0.3-0.5,0.6-0.6c0.2-0.1,0.4-0.2,0.7-0.3s0.6-0.1,1-0.1c0.5,0,1,0.1,1.4,0.2
				c0.4,0.2,0.7,0.4,0.9,0.6c0.2,0.3,0.3,0.6,0.4,1l-1.1,0.2c-0.1-0.3-0.2-0.6-0.4-0.8c-0.2-0.2-0.6-0.3-1-0.3
				c-0.5,0-0.9,0.1-1.1,0.3c-0.2,0.2-0.3,0.4-0.3,0.6c0,0.1,0,0.3,0.1,0.4c0.1,0.1,0.2,0.2,0.4,0.3c0.1,0,0.5,0.1,1,0.3
				c0.8,0.2,1.4,0.4,1.7,0.5c0.3,0.1,0.6,0.3,0.8,0.6c0.2,0.3,0.3,0.6,0.3,1c0,0.4-0.1,0.7-0.3,1.1c-0.2,0.3-0.5,0.6-1,0.8
				c-0.4,0.2-0.9,0.3-1.4,0.3c-0.9,0-1.5-0.2-2-0.5C404,293.2,403.7,292.7,403.5,292z"/>
			<path class="st10" d="M415,291.8l1.2,0.1c-0.2,0.7-0.5,1.2-1,1.6c-0.5,0.4-1.1,0.6-1.9,0.6c-1,0-1.8-0.3-2.3-0.9
				c-0.6-0.6-0.9-1.5-0.9-2.6c0-1.1,0.3-2,0.9-2.6s1.3-0.9,2.3-0.9c0.9,0,1.6,0.3,2.2,0.9c0.6,0.6,0.9,1.5,0.9,2.6
				c0,0.1,0,0.2,0,0.3h-5c0,0.7,0.3,1.3,0.6,1.7c0.4,0.4,0.8,0.6,1.4,0.6c0.4,0,0.8-0.1,1.1-0.3C414.6,292.7,414.9,292.3,415,291.8z
				 M411.3,290h3.8c-0.1-0.6-0.2-1-0.4-1.3c-0.4-0.4-0.8-0.7-1.4-0.7c-0.5,0-1,0.2-1.3,0.5C411.5,288.9,411.3,289.4,411.3,290z"/>
			<path class="st10" d="M421.9,294v-0.9c-0.4,0.7-1.1,1-1.9,1c-0.5,0-1-0.1-1.5-0.4c-0.5-0.3-0.8-0.7-1-1.2
				c-0.2-0.5-0.4-1.1-0.4-1.8c0-0.7,0.1-1.3,0.3-1.8c0.2-0.5,0.6-1,1-1.3c0.4-0.3,1-0.4,1.5-0.4c0.4,0,0.8,0.1,1.1,0.3
				c0.3,0.2,0.6,0.4,0.8,0.7v-3.3h1.1v9.3H421.9z M418.3,290.6c0,0.9,0.2,1.5,0.5,1.9c0.4,0.4,0.8,0.6,1.3,0.6
				c0.5,0,0.9-0.2,1.3-0.6c0.3-0.4,0.5-1,0.5-1.9c0-0.9-0.2-1.6-0.5-2s-0.8-0.6-1.3-0.6c-0.5,0-0.9,0.2-1.3,0.6
				C418.5,289.1,418.3,289.7,418.3,290.6z"/>
			<path class="st10" d="M427.8,292l1.1-0.2c0.1,0.5,0.2,0.8,0.5,1c0.3,0.2,0.7,0.4,1.2,0.4c0.5,0,0.9-0.1,1.2-0.3s0.4-0.5,0.4-0.8
				c0-0.3-0.1-0.5-0.3-0.6c-0.2-0.1-0.5-0.2-1.2-0.4c-0.8-0.2-1.4-0.4-1.7-0.5c-0.3-0.2-0.6-0.4-0.7-0.6c-0.2-0.3-0.2-0.6-0.2-0.9
				c0-0.3,0.1-0.6,0.2-0.8s0.3-0.5,0.6-0.6c0.2-0.1,0.4-0.2,0.7-0.3c0.3-0.1,0.6-0.1,1-0.1c0.5,0,1,0.1,1.4,0.2
				c0.4,0.2,0.7,0.4,0.9,0.6c0.2,0.3,0.3,0.6,0.4,1l-1.1,0.2c-0.1-0.3-0.2-0.6-0.4-0.8s-0.6-0.3-1-0.3c-0.5,0-0.9,0.1-1.1,0.3
				c-0.2,0.2-0.3,0.4-0.3,0.6c0,0.1,0,0.3,0.1,0.4c0.1,0.1,0.2,0.2,0.4,0.3c0.1,0,0.5,0.1,1,0.3c0.8,0.2,1.4,0.4,1.7,0.5
				s0.6,0.3,0.8,0.6c0.2,0.3,0.3,0.6,0.3,1c0,0.4-0.1,0.7-0.3,1.1c-0.2,0.3-0.5,0.6-1,0.8c-0.4,0.2-0.9,0.3-1.4,0.3
				c-0.9,0-1.5-0.2-2-0.5S427.9,292.7,427.8,292z"/>
			<path class="st10" d="M439,294v-1c-0.5,0.8-1.2,1.1-2.1,1.1c-0.4,0-0.8-0.1-1.1-0.2c-0.3-0.2-0.6-0.3-0.8-0.6s-0.3-0.5-0.4-0.8
				c0-0.2-0.1-0.6-0.1-1.1v-4.2h1.1v3.7c0,0.6,0,1,0.1,1.2c0.1,0.3,0.2,0.5,0.5,0.7c0.2,0.2,0.5,0.3,0.9,0.3s0.7-0.1,1-0.3
				c0.3-0.2,0.5-0.4,0.6-0.7c0.1-0.3,0.2-0.7,0.2-1.3v-3.6h1.1v6.7H439z"/>
			<path class="st10" d="M446.2,291.5l1.1,0.1c-0.1,0.8-0.4,1.4-0.9,1.8c-0.5,0.4-1.1,0.7-1.9,0.7c-0.9,0-1.7-0.3-2.2-0.9
				c-0.6-0.6-0.8-1.5-0.8-2.6c0-0.7,0.1-1.4,0.4-1.9s0.6-1,1.1-1.2c0.5-0.3,1-0.4,1.6-0.4c0.7,0,1.3,0.2,1.8,0.6
				c0.5,0.4,0.8,0.9,0.9,1.6l-1.1,0.2c-0.1-0.5-0.3-0.8-0.6-1s-0.6-0.3-1-0.3c-0.6,0-1,0.2-1.4,0.6c-0.4,0.4-0.5,1.1-0.5,2
				c0,0.9,0.2,1.6,0.5,2c0.3,0.4,0.8,0.6,1.4,0.6c0.4,0,0.8-0.1,1.1-0.4C445.9,292.5,446.1,292.1,446.2,291.5z"/>
			<path class="st10" d="M452.6,291.5l1.1,0.1c-0.1,0.8-0.4,1.4-0.9,1.8c-0.5,0.4-1.1,0.7-1.9,0.7c-0.9,0-1.7-0.3-2.2-0.9
				c-0.6-0.6-0.8-1.5-0.8-2.6c0-0.7,0.1-1.4,0.4-1.9s0.6-1,1.1-1.2c0.5-0.3,1-0.4,1.6-0.4c0.7,0,1.3,0.2,1.8,0.6
				c0.5,0.4,0.8,0.9,0.9,1.6l-1.1,0.2c-0.1-0.5-0.3-0.8-0.6-1c-0.3-0.2-0.6-0.3-1-0.3c-0.6,0-1,0.2-1.4,0.6c-0.4,0.4-0.5,1.1-0.5,2
				c0,0.9,0.2,1.6,0.5,2c0.3,0.4,0.8,0.6,1.4,0.6c0.4,0,0.8-0.1,1.1-0.4C452.3,292.5,452.5,292.1,452.6,291.5z"/>
			<path class="st10" d="M459.2,291.8l1.2,0.1c-0.2,0.7-0.5,1.2-1,1.6c-0.5,0.4-1.1,0.6-1.9,0.6c-1,0-1.8-0.3-2.3-0.9
				c-0.6-0.6-0.9-1.5-0.9-2.6c0-1.1,0.3-2,0.9-2.6s1.3-0.9,2.3-0.9c0.9,0,1.6,0.3,2.2,0.9c0.6,0.6,0.9,1.5,0.9,2.6
				c0,0.1,0,0.2,0,0.3h-5c0,0.7,0.3,1.3,0.6,1.7c0.4,0.4,0.8,0.6,1.4,0.6c0.4,0,0.8-0.1,1.1-0.3C458.8,292.7,459,292.3,459.2,291.8z
				 M455.4,290h3.8c-0.1-0.6-0.2-1-0.4-1.3c-0.4-0.4-0.8-0.7-1.4-0.7c-0.5,0-1,0.2-1.3,0.5C455.7,288.9,455.5,289.4,455.4,290z"/>
			<path class="st10" d="M461.3,292l1.1-0.2c0.1,0.5,0.2,0.8,0.5,1c0.3,0.2,0.7,0.4,1.2,0.4c0.5,0,0.9-0.1,1.2-0.3s0.4-0.5,0.4-0.8
				c0-0.3-0.1-0.5-0.3-0.6c-0.2-0.1-0.5-0.2-1.2-0.4c-0.8-0.2-1.4-0.4-1.7-0.5c-0.3-0.2-0.6-0.4-0.7-0.6c-0.2-0.3-0.2-0.6-0.2-0.9
				c0-0.3,0.1-0.6,0.2-0.8s0.3-0.5,0.6-0.6c0.2-0.1,0.4-0.2,0.7-0.3c0.3-0.1,0.6-0.1,1-0.1c0.5,0,1,0.1,1.4,0.2
				c0.4,0.2,0.7,0.4,0.9,0.6c0.2,0.3,0.3,0.6,0.4,1l-1.1,0.2c-0.1-0.3-0.2-0.6-0.4-0.8s-0.6-0.3-1-0.3c-0.5,0-0.9,0.1-1.1,0.3
				c-0.2,0.2-0.3,0.4-0.3,0.6c0,0.1,0,0.3,0.1,0.4c0.1,0.1,0.2,0.2,0.4,0.3c0.1,0,0.5,0.1,1,0.3c0.8,0.2,1.4,0.4,1.7,0.5
				s0.6,0.3,0.8,0.6c0.2,0.3,0.3,0.6,0.3,1c0,0.4-0.1,0.7-0.3,1.1c-0.2,0.3-0.5,0.6-1,0.8c-0.4,0.2-0.9,0.3-1.4,0.3
				c-0.9,0-1.5-0.2-2-0.5S461.4,292.7,461.3,292z"/>
			<path class="st10" d="M467.7,292l1.1-0.2c0.1,0.5,0.2,0.8,0.5,1c0.3,0.2,0.7,0.4,1.2,0.4c0.5,0,0.9-0.1,1.2-0.3s0.4-0.5,0.4-0.8
				c0-0.3-0.1-0.5-0.3-0.6c-0.2-0.1-0.5-0.2-1.2-0.4c-0.8-0.2-1.4-0.4-1.7-0.5c-0.3-0.2-0.6-0.4-0.7-0.6c-0.2-0.3-0.2-0.6-0.2-0.9
				c0-0.3,0.1-0.6,0.2-0.8s0.3-0.5,0.6-0.6c0.2-0.1,0.4-0.2,0.7-0.3c0.3-0.1,0.6-0.1,1-0.1c0.5,0,1,0.1,1.4,0.2
				c0.4,0.2,0.7,0.4,0.9,0.6c0.2,0.3,0.3,0.6,0.4,1l-1.1,0.2c-0.1-0.3-0.2-0.6-0.4-0.8s-0.6-0.3-1-0.3c-0.5,0-0.9,0.1-1.1,0.3
				c-0.2,0.2-0.3,0.4-0.3,0.6c0,0.1,0,0.3,0.1,0.4c0.1,0.1,0.2,0.2,0.4,0.3c0.1,0,0.5,0.1,1,0.3c0.8,0.2,1.4,0.4,1.7,0.5
				s0.6,0.3,0.8,0.6c0.2,0.3,0.3,0.6,0.3,1c0,0.4-0.1,0.7-0.3,1.1c-0.2,0.3-0.5,0.6-1,0.8c-0.4,0.2-0.9,0.3-1.4,0.3
				c-0.9,0-1.5-0.2-2-0.5S467.8,292.7,467.7,292z"/>
			<path class="st10" d="M474.8,294v-5.9h-1v-0.9h1v-0.7c0-0.5,0-0.8,0.1-1c0.1-0.3,0.3-0.5,0.6-0.7c0.3-0.2,0.7-0.3,1.2-0.3
				c0.3,0,0.7,0,1.1,0.1l-0.2,1c-0.2,0-0.5-0.1-0.7-0.1c-0.3,0-0.6,0.1-0.7,0.2c-0.1,0.1-0.2,0.4-0.2,0.8v0.6h1.3v0.9h-1.3v5.9
				H474.8z"/>
			<path class="st10" d="M482.5,294v-1c-0.5,0.8-1.2,1.1-2.1,1.1c-0.4,0-0.8-0.1-1.1-0.2c-0.3-0.2-0.6-0.3-0.8-0.6s-0.3-0.5-0.4-0.8
				c0-0.2-0.1-0.6-0.1-1.1v-4.2h1.1v3.7c0,0.6,0,1,0.1,1.2c0.1,0.3,0.2,0.5,0.5,0.7c0.2,0.2,0.5,0.3,0.9,0.3s0.7-0.1,1-0.3
				c0.3-0.2,0.5-0.4,0.6-0.7c0.1-0.3,0.2-0.7,0.2-1.3v-3.6h1.1v6.7H482.5z"/>
			<path class="st10" d="M485.2,294v-9.3h1.1v9.3H485.2z"/>
			<path class="st10" d="M488,294v-9.3h1.1v9.3H488z"/>
			<path class="st10" d="M490.7,296.6l-0.1-1.1c0.2,0.1,0.5,0.1,0.7,0.1c0.3,0,0.5,0,0.6-0.1s0.3-0.2,0.4-0.4
				c0.1-0.1,0.2-0.4,0.3-0.9c0-0.1,0.1-0.2,0.1-0.3l-2.6-6.8h1.2l1.4,3.9c0.2,0.5,0.3,1,0.5,1.6c0.1-0.5,0.3-1,0.5-1.5l1.4-3.9h1.1
				l-2.6,6.9c-0.3,0.7-0.5,1.3-0.6,1.5c-0.2,0.4-0.4,0.7-0.7,0.8c-0.3,0.2-0.6,0.3-0.9,0.3C491.3,296.7,491,296.7,490.7,296.6z"/>
		</g>
		<g transform="translate(458 233)">
			<circle class="st11" cx="-25" cy="-27" r="28"/>
			<path class="st12" d="M-34-25.3l4.6,4.6L-16.2-34"/>
		</g>
		<g transform="translate(422 373)">
			<path class="st13" d="M-38-55H63c8.3,0,15,6.7,15,15l0,0c0,8.3-6.7,15-15,15H-38c-8.3,0-15-6.7-15-15l0,0C-53-48.3-46.3-55-38-55
				z"/>
			<g class="st9">
				<path class="st14" d="M-6.4-36v-8c0,0,0.2,0,0.3,0s0.4,0,0.7,0s0.5,0,0.8,0s0.5,0,0.6,0c1,0,1.8,0.2,2.4,0.5
					c0.6,0.3,1.1,0.8,1.3,1.4C0-41.5,0.1-40.8,0.1-40c0,0.8-0.2,1.5-0.5,2.1s-0.8,1.1-1.4,1.4S-3.1-36-4.1-36H-6.4z M-4.8-37.3H-4
					c0.5,0,0.9-0.1,1.2-0.3c0.4-0.2,0.7-0.5,0.9-0.9c0.2-0.4,0.3-0.9,0.3-1.6c0-0.6-0.1-1.1-0.3-1.5c-0.2-0.4-0.5-0.7-0.8-0.8
					c-0.4-0.2-0.8-0.3-1.3-0.3h-0.8V-37.3z"/>
				<path class="st14" d="M1.3-42.5v-1.4h1.6v1.4H1.3z M1.3-36v-5.7h1.5v5.7H1.3z"/>
				<path class="st14" d="M6.4-35.9c-0.4,0-0.8-0.1-1.1-0.2c-0.4-0.1-0.7-0.3-0.9-0.6s-0.4-0.6-0.5-1.1h1.4c0.1,0.2,0.1,0.4,0.3,0.5
					c0.1,0.1,0.3,0.2,0.4,0.2C6.1-37,6.3-37,6.4-37c0.3,0,0.6,0,0.7-0.1c0.2-0.1,0.3-0.2,0.3-0.4c0-0.2-0.1-0.3-0.2-0.4
					C7.1-38,7-38.1,6.7-38.2l-1-0.2c-0.5-0.1-0.9-0.3-1.2-0.5C4.2-39.2,4-39.5,4-40c0-0.3,0.1-0.6,0.3-0.9s0.5-0.5,0.8-0.6
					c0.4-0.2,0.8-0.2,1.3-0.2c0.7,0,1.3,0.2,1.7,0.5C8.5-41,8.7-40.6,8.7-40H7.4c0-0.2-0.1-0.4-0.3-0.5s-0.4-0.2-0.7-0.2
					c-0.3,0-0.5,0-0.7,0.1c-0.2,0.1-0.3,0.2-0.3,0.5c0,0.2,0.1,0.3,0.2,0.4s0.4,0.2,0.7,0.2l0.9,0.2C7.6-39.3,7.8-39.2,8-39
					c0.2,0.1,0.4,0.3,0.5,0.4c0.1,0.2,0.2,0.3,0.2,0.5c0,0.2,0.1,0.3,0.1,0.4c0,0.4-0.1,0.7-0.3,1c-0.2,0.3-0.5,0.5-0.8,0.6
					C7.3-36,6.9-35.9,6.4-35.9z"/>
				<path class="st14" d="M9.8-36v-5.7h1.6v0.8c0.2-0.2,0.4-0.5,0.7-0.6c0.3-0.2,0.7-0.3,1.1-0.3c0.2,0,0.4,0,0.6,0.1
					c0.2,0.1,0.4,0.2,0.6,0.3c0.2,0.1,0.3,0.3,0.4,0.5c0.2-0.3,0.4-0.5,0.7-0.7c0.3-0.2,0.6-0.3,1-0.3c0.2,0,0.4,0,0.6,0.1
					c0.2,0.1,0.4,0.2,0.6,0.3c0.2,0.2,0.3,0.4,0.4,0.6c0.1,0.3,0.2,0.6,0.2,1v3.8h-1.6v-3.6c0-0.2,0-0.4-0.1-0.5
					c-0.1-0.1-0.2-0.2-0.3-0.3c-0.1-0.1-0.3-0.1-0.4-0.1c-0.1,0-0.3,0-0.4,0.1c-0.1,0.1-0.3,0.1-0.4,0.3c-0.1,0.1-0.2,0.3-0.2,0.5
					v3.6h-1.6v-3.7c0-0.2,0-0.3-0.1-0.4c-0.1-0.1-0.2-0.2-0.3-0.3c-0.1-0.1-0.3-0.1-0.4-0.1c-0.1,0-0.3,0-0.4,0.1s-0.3,0.2-0.4,0.3
					c-0.1,0.1-0.1,0.3-0.1,0.5v3.6H9.8z"/>
				<path class="st14" d="M19.6-42.5v-1.4h1.6v1.4H19.6z M19.6-36v-5.7h1.5v5.7H19.6z"/>
				<path class="st14" d="M24.8-35.9c-0.4,0-0.8-0.1-1.1-0.2c-0.4-0.1-0.7-0.3-0.9-0.6s-0.4-0.6-0.5-1.1h1.4
					c0.1,0.2,0.1,0.4,0.3,0.5c0.1,0.1,0.3,0.2,0.4,0.2c0.2,0,0.3,0.1,0.5,0.1c0.3,0,0.6,0,0.7-0.1c0.2-0.1,0.3-0.2,0.3-0.4
					c0-0.2-0.1-0.3-0.2-0.4c-0.1-0.1-0.3-0.2-0.6-0.2l-1-0.2c-0.5-0.1-0.9-0.3-1.2-0.5c-0.3-0.3-0.5-0.6-0.5-1.1
					c0-0.3,0.1-0.6,0.3-0.9s0.5-0.5,0.8-0.6c0.4-0.2,0.8-0.2,1.3-0.2c0.7,0,1.3,0.2,1.7,0.5c0.4,0.3,0.6,0.7,0.6,1.3h-1.3
					c0-0.2-0.1-0.4-0.3-0.5s-0.4-0.2-0.7-0.2c-0.3,0-0.5,0-0.7,0.1c-0.2,0.1-0.3,0.2-0.3,0.5c0,0.2,0.1,0.3,0.2,0.4s0.4,0.2,0.7,0.2
					l0.9,0.2c0.3,0.1,0.6,0.2,0.8,0.3c0.2,0.1,0.4,0.3,0.5,0.4c0.1,0.2,0.2,0.3,0.2,0.5c0,0.2,0.1,0.3,0.1,0.4c0,0.4-0.1,0.7-0.3,1
					c-0.2,0.3-0.5,0.5-0.8,0.6C25.7-36,25.2-35.9,24.8-35.9z"/>
				<path class="st14" d="M30.4-35.9c-0.4,0-0.8-0.1-1.1-0.2c-0.4-0.1-0.7-0.3-0.9-0.6s-0.4-0.6-0.5-1.1h1.4
					c0.1,0.2,0.1,0.4,0.3,0.5c0.1,0.1,0.3,0.2,0.4,0.2c0.2,0,0.3,0.1,0.5,0.1c0.3,0,0.6,0,0.7-0.1c0.2-0.1,0.3-0.2,0.3-0.4
					c0-0.2-0.1-0.3-0.2-0.4c-0.1-0.1-0.3-0.2-0.6-0.2l-1-0.2c-0.5-0.1-0.9-0.3-1.2-0.5c-0.3-0.3-0.5-0.6-0.5-1.1
					c0-0.3,0.1-0.6,0.3-0.9s0.5-0.5,0.8-0.6c0.4-0.2,0.8-0.2,1.3-0.2c0.7,0,1.3,0.2,1.7,0.5c0.4,0.3,0.6,0.7,0.6,1.3h-1.3
					c0-0.2-0.1-0.4-0.3-0.5s-0.4-0.2-0.7-0.2c-0.3,0-0.5,0-0.7,0.1c-0.2,0.1-0.3,0.2-0.3,0.5c0,0.2,0.1,0.3,0.2,0.4s0.4,0.2,0.7,0.2
					l0.9,0.2c0.3,0.1,0.6,0.2,0.8,0.3c0.2,0.1,0.4,0.3,0.5,0.4c0.1,0.2,0.2,0.3,0.2,0.5c0,0.2,0.1,0.3,0.1,0.4c0,0.4-0.1,0.7-0.3,1
					c-0.2,0.3-0.5,0.5-0.8,0.6C31.3-36,30.9-35.9,30.4-35.9z"/>
			</g>
		</g>
	</g>
	<g>
		<g transform="translate(53 55)">
			<g>
				<path id="j_00000132082184374656076270000013795153759105693102_" class="st0" d="M-17.2-54.4H174c18.3,0,33.2,14.2,33.2,31.8
					v435.3c0,17.6-14.9,31.8-33.2,31.8H-17.2c-18.3,0-33.2-14.2-33.2-31.8V-22.6C-50.4-40.2-35.6-54.4-17.2-54.4L-17.2-54.4z"/>
			</g>
		</g>
		
			<linearGradient id="SVGID_00000008150126463918472390000012420685478935121575_" gradientUnits="userSpaceOnUse" x1="-165.0343" y1="738.3155" x2="-165.0343" y2="737.3155" gradientTransform="matrix(242.642 0 0 -12.324 40175.5859 9099)">
			<stop  offset="0" style="stop-color:#454545"/>
			<stop  offset="0.2263" style="stop-color:#999999"/>
			<stop  offset="1" style="stop-color:#FFFFFF"/>
		</linearGradient>
		
			<path style="opacity:0.596;fill-rule:evenodd;clip-rule:evenodd;fill:url(#SVGID_00000008150126463918472390000012420685478935121575_);fill-opacity:0.65;enable-background:new    ;" d="
			M227.7,0H34.9c-9,0.5-17.3,4.7-24.9,12.3c4.9-4.3,13.6-10,25.1-10h192.4c11.5,0,20.2,5.7,25.1,10C245.1,4.7,236.8,0.5,227.7,0z"/>
		
			<linearGradient id="SVGID_00000178180545798353061960000010764517646581994916_" gradientUnits="userSpaceOnUse" x1="-156.7229" y1="749.194" x2="-157.4159" y2="749.194" gradientTransform="matrix(13.6522 0 0 -470.6551 2399.7119 352860.8438)">
			<stop  offset="0" style="stop-color:#FFFFFF;stop-opacity:0"/>
			<stop  offset="0.2222" style="stop-color:#BABABA"/>
			<stop  offset="0.5468" style="stop-color:#FFFFFF;stop-opacity:0"/>
			<stop  offset="1" style="stop-color:#FFFFFF;stop-opacity:0"/>
		</linearGradient>
		
			<path style="opacity:0.75;fill-rule:evenodd;clip-rule:evenodd;fill:url(#SVGID_00000178180545798353061960000010764517646581994916_);enable-background:new    ;" d="
			M255,462.7V35c0-11.5-4.2-15.7-6.7-18.4c-2.5-2.7-2.6-4.1,1-2.1c3.6,2.1,10.8,8,10.8,20.5v427.7c0,12.5-7.2,18.4-10.8,20.5
			c-3.6,2.1-3.5,0.7-1-2.1S255,474.1,255,462.7L255,462.7z"/>
		
			<linearGradient id="SVGID_00000044172230755913480680000005681129808633936791_" gradientUnits="userSpaceOnUse" x1="-173.2771" y1="749.194" x2="-173.9712" y2="749.194" gradientTransform="matrix(-13.6522 0 0 -470.6551 -2363.0391 352860.8438)">
			<stop  offset="0" style="stop-color:#FFFFFF;stop-opacity:0"/>
			<stop  offset="0.2222" style="stop-color:#BABABA"/>
			<stop  offset="0.5468" style="stop-color:#FFFFFF;stop-opacity:0"/>
			<stop  offset="1" style="stop-color:#FFFFFF;stop-opacity:0"/>
		</linearGradient>
		
			<path style="opacity:0.75;fill-rule:evenodd;clip-rule:evenodd;fill:url(#SVGID_00000044172230755913480680000005681129808633936791_);enable-background:new    ;" d="
			M7.7,462.7V35c0-11.5,4.2-15.7,6.7-18.4c2.5-2.7,2.6-4.1-1-2.1C9.8,16.5,2.6,22.5,2.6,35v427.7c0,12.5,7.2,18.4,10.8,20.5
			c3.6,2.1,3.5,0.7,1-2.1S7.7,474.1,7.7,462.7L7.7,462.7z"/>
		<g>
			<path class="st4" d="M2,101.6h1c1.1,0,2,0.9,2,2v60.4c0,1.1-0.9,2-2,2H2c-1.1,0-2-0.9-2-2v-60.3C0,102.5,0.9,101.6,2,101.6
				L2,101.6z M259.5,154h1c1.1,0,2,0.9,2,2V199c0,1.1-0.9,2-2,2h-1c-1.1,0-2-0.9-2-2V156C257.5,154.9,258.4,154,259.5,154z"/>
		</g>
		<g transform="translate(68.074 67.444)">
			<g>
				<path id="k_00000171704293412412357220000013022032354139411597_" class="st18" d="M40.6-55h-74.4C-44.9-55-53-47.4-53-37.6
					v422.4c0,12.9,12.5,24.3,26.6,24.3H153c13.6,0,26.6-11.5,26.6-24.3V-36.4c0-11.8-8.8-18.5-19.2-18.6H84.8
					c-0.3,0-5.5,2.2-7.7,7.6c-2.2,5.4-6.6,9.7-11.4,9.7h-5.6c-2.3,0-8.3-2.2-11.4-9.7C45.6-54.9,40.9-55,40.6-55z"/>
			</g>
			<defs>
				<filter id="Adobe_OpacityMaskFilter" filterUnits="userSpaceOnUse" x="-55.6" y="88" width="259" height="383">
					<feColorMatrix  type="matrix" values="1 0 0 0 0  0 1 0 0 0  0 0 1 0 0  0 0 0 1 0"/>
				</filter>
			</defs>
			
				<mask maskUnits="userSpaceOnUse" x="-55.6" y="88" width="259" height="383" id="l_00000146483924263041399860000010030333370833766839_">
				<g class="st19">
					<path id="k_00000149354868146136589260000009403992395076147843_" class="st20" d="M40.6-55h-74.4C-44.9-55-53-47.4-53-37.6
						v422.4c0,12.9,12.5,24.3,26.6,24.3H153c13.6,0,26.6-11.5,26.6-24.3V-36.4c0-11.8-8.8-18.5-19.2-18.6H84.8
						c-0.3,0-5.5,2.2-7.7,7.6c-2.2,5.4-6.6,9.7-11.4,9.7h-5.6c-2.3,0-8.3-2.2-11.4-9.7C45.6-54.9,40.9-55,40.6-55z"/>
				</g>
			</mask>
			<g class="st21">
				<g transform="translate(14.926 160.556)">
					<g class="st22">
						<path id="n_00000082354523776266811350000002920527489540537503_" class="st7" d="M-48-55h194c2.8,0,5,2.2,5,5v30
							c0,2.8-2.2,5-5,5H-48c-2.8,0-5-2.2-5-5v-30C-53-52.8-50.8-55-48-55z"/>
					</g>
					<g>
						<path id="n_00000111156338159549527060000010650166520614142105_" class="st8" d="M-48-55h194c2.8,0,5,2.2,5,5v30
							c0,2.8-2.2,5-5,5H-48c-2.8,0-5-2.2-5-5v-30C-53-52.8-50.8-55-48-55z"/>
					</g>
				</g>
				<g>
					<g class="st9">
						<path class="st10" d="M-21.1,125.6v-7.2h0.9v7.2H-21.1z"/>
						<path class="st10" d="M-16.8,124.8l0.1,0.8c-0.2,0.1-0.5,0.1-0.7,0.1c-0.3,0-0.6-0.1-0.7-0.2s-0.3-0.2-0.4-0.4
							c-0.1-0.2-0.1-0.5-0.1-1v-3h-0.6v-0.7h0.6v-1.3l0.9-0.5v1.8h0.9v0.7h-0.9v3c0,0.3,0,0.4,0,0.5s0.1,0.1,0.2,0.2
							s0.2,0.1,0.3,0.1C-17.1,124.8-16.9,124.8-16.8,124.8z"/>
						<path class="st10" d="M-12.4,123.9l0.9,0.1c-0.1,0.5-0.4,0.9-0.8,1.2s-0.9,0.4-1.5,0.4c-0.8,0-1.4-0.2-1.8-0.7
							c-0.4-0.5-0.7-1.1-0.7-2c0-0.9,0.2-1.5,0.7-2c0.4-0.5,1-0.7,1.7-0.7c0.7,0,1.3,0.2,1.7,0.7s0.7,1.1,0.7,2c0,0.1,0,0.1,0,0.2
							h-3.9c0,0.6,0.2,1,0.5,1.3s0.7,0.5,1.1,0.5c0.3,0,0.6-0.1,0.8-0.3S-12.6,124.3-12.4,123.9z M-15.3,122.5h2.9
							c0-0.4-0.1-0.8-0.3-1c-0.3-0.3-0.6-0.5-1.1-0.5c-0.4,0-0.7,0.1-1,0.4S-15.3,122-15.3,122.5z"/>
						<path class="st10" d="M-10.5,125.6v-5.2h0.8v0.7c0.2-0.3,0.4-0.5,0.6-0.6c0.3-0.2,0.6-0.2,0.9-0.2c0.4,0,0.7,0.1,0.9,0.2
							s0.4,0.4,0.5,0.7c0.4-0.6,0.9-0.9,1.6-0.9c0.5,0,0.9,0.1,1.2,0.4c0.3,0.3,0.4,0.7,0.4,1.3v3.6h-0.9v-3.3c0-0.4,0-0.6-0.1-0.8
							c-0.1-0.2-0.2-0.3-0.3-0.4s-0.3-0.1-0.5-0.1c-0.4,0-0.7,0.1-0.9,0.4c-0.2,0.2-0.4,0.6-0.4,1.2v3h-0.9v-3.4
							c0-0.4-0.1-0.7-0.2-0.9S-8,121-8.3,121c-0.2,0-0.5,0.1-0.7,0.2s-0.4,0.3-0.5,0.6s-0.1,0.6-0.1,1.1v2.7H-10.5z"/>
						<path class="st10" d="M0.3,125.7l0.4-2.1h-0.8v-0.7h1l0.4-1.8h-1.3v-0.7h1.5l0.4-2.1h0.7l-0.4,2.1h1.5l0.4-2.1h0.7l-0.4,2.1
							h0.8v0.7h-1l-0.4,1.8h1.4v0.7H3.7l-0.4,2.1H2.6l0.4-2.1H1.5L1,125.7H0.3z M1.6,122.9h1.5l0.4-1.8H2L1.6,122.9z"/>
						<path class="st10" d="M5.7,122c0-0.8,0.1-1.5,0.3-2c0.2-0.5,0.4-0.9,0.8-1.2s0.8-0.4,1.3-0.4c0.4,0,0.7,0.1,1,0.2
							c0.3,0.2,0.5,0.4,0.7,0.7c0.2,0.3,0.3,0.6,0.4,1.1c0.1,0.4,0.2,1,0.2,1.7c0,0.8-0.1,1.5-0.3,2c-0.2,0.5-0.4,0.9-0.8,1.2
							c-0.3,0.3-0.8,0.4-1.3,0.4c-0.7,0-1.2-0.2-1.6-0.7C5.9,124.3,5.7,123.4,5.7,122z M6.6,122c0,1.2,0.1,2,0.4,2.3
							c0.3,0.4,0.6,0.6,1,0.6c0.4,0,0.7-0.2,1-0.6s0.4-1.2,0.4-2.3c0-1.2-0.1-2-0.4-2.3s-0.6-0.6-1-0.6c-0.4,0-0.7,0.2-1,0.5
							C6.8,120,6.6,120.9,6.6,122z"/>
						<path class="st10" d="M11.2,122c0-0.8,0.1-1.5,0.3-2c0.2-0.5,0.4-0.9,0.8-1.2s0.8-0.4,1.3-0.4c0.4,0,0.7,0.1,1,0.2
							c0.3,0.2,0.5,0.4,0.7,0.7c0.2,0.3,0.3,0.6,0.4,1.1c0.1,0.4,0.2,1,0.2,1.7c0,0.8-0.1,1.5-0.3,2c-0.2,0.5-0.4,0.9-0.8,1.2
							c-0.3,0.3-0.8,0.4-1.3,0.4c-0.7,0-1.2-0.2-1.6-0.7C11.4,124.3,11.2,123.4,11.2,122z M12.1,122c0,1.2,0.1,2,0.4,2.3
							c0.3,0.4,0.6,0.6,1,0.6s0.7-0.2,1-0.6s0.4-1.2,0.4-2.3c0-1.2-0.1-2-0.4-2.3s-0.6-0.6-1-0.6c-0.4,0-0.7,0.2-1,0.5
							C12.3,120,12.1,120.9,12.1,122z"/>
						<path class="st10" d="M20,125.6h-0.9V120c-0.2,0.2-0.5,0.4-0.8,0.6s-0.7,0.4-0.9,0.5v-0.8c0.5-0.2,0.9-0.5,1.3-0.8
							s0.6-0.6,0.8-1H20V125.6z"/>
					</g>
					<g class="st9">
						<path class="st10" d="M129.2,129.7c-1.1,0-2-0.2-2.7-0.7c-0.7-0.5-1.1-1.2-1.2-2.1l2,0c0.1,0.4,0.3,0.8,0.7,1
							c0.3,0.2,0.8,0.3,1.3,0.3c0.3,0,0.6-0.1,0.8-0.2c0.2-0.1,0.4-0.2,0.6-0.4s0.2-0.4,0.2-0.6c0-0.3-0.1-0.6-0.3-0.8
							c-0.2-0.2-0.6-0.3-1-0.4l-1.5-0.3c-0.7-0.1-1.3-0.4-1.7-0.9s-0.7-1-0.7-1.7c0-0.6,0.2-1.1,0.5-1.5c0.3-0.4,0.8-0.8,1.3-1
							s1.2-0.4,1.9-0.4c0.7,0,1.3,0.1,1.8,0.4c0.5,0.3,0.9,0.6,1.2,1s0.4,0.9,0.4,1.4l-1.9,0c-0.1-0.4-0.2-0.7-0.4-1
							s-0.6-0.4-1.1-0.4c-0.3,0-0.5,0-0.7,0.1c-0.2,0.1-0.4,0.1-0.5,0.2c-0.1,0.1-0.3,0.2-0.3,0.4s-0.1,0.3-0.1,0.5
							c0,0.3,0.1,0.5,0.3,0.6c0.2,0.2,0.5,0.3,1,0.4l1.5,0.4c0.9,0.2,1.5,0.6,1.8,1c0.4,0.5,0.6,1.1,0.6,1.8c0,0.5-0.1,1-0.4,1.4
							c-0.3,0.4-0.7,0.7-1.3,0.9C130.5,129.6,129.9,129.7,129.2,129.7z M128.3,130.8v-1.7h1.6v1.7H128.3z M128.3,120.5v-1.7h1.6v1.7
							H128.3z"/>
						<path class="st10" d="M134,129.6v-0.9v-0.5c0-0.5,0.1-0.9,0.3-1.2s0.4-0.7,0.7-0.9s0.6-0.5,1-0.7c0.3-0.2,0.7-0.4,1-0.6
							c0.4-0.2,0.7-0.3,1-0.5s0.5-0.4,0.7-0.6c0.2-0.2,0.3-0.5,0.3-0.8c0-0.4-0.1-0.7-0.4-0.9s-0.6-0.4-1.1-0.4
							c-0.5,0-0.9,0.1-1.2,0.4c-0.3,0.3-0.5,0.7-0.6,1.2h-1.8c0-0.6,0.1-1.1,0.4-1.6c0.3-0.5,0.7-0.9,1.2-1.2c0.5-0.3,1.2-0.4,2-0.4
							c0.7,0,1.3,0.1,1.8,0.4s0.9,0.6,1.2,1s0.4,0.9,0.4,1.5c0,0.5-0.1,0.9-0.3,1.2c-0.2,0.3-0.4,0.6-0.7,0.9
							c-0.3,0.2-0.6,0.5-0.9,0.6c-0.3,0.2-0.7,0.4-1,0.5c-0.3,0.2-0.7,0.3-0.9,0.5c-0.3,0.2-0.5,0.3-0.7,0.5s-0.3,0.4-0.3,0.7v0.1
							h4.8v1.6H134z"/>
						<path class="st10" d="M145.5,129.7c-0.6,0-1.1-0.1-1.6-0.3c-0.5-0.2-0.9-0.5-1.2-1c-0.3-0.4-0.5-0.9-0.5-1.4h1.8
							c0.1,0.4,0.3,0.7,0.5,0.9c0.3,0.2,0.6,0.3,1,0.3c0.5,0,0.8-0.1,1.2-0.3c0.3-0.2,0.6-0.6,0.8-1c0.2-0.5,0.2-1.1,0.2-1.8
							c-0.1,0.2-0.3,0.4-0.5,0.6c-0.2,0.2-0.5,0.3-0.8,0.4c-0.3,0.1-0.6,0.1-1,0.1c-0.6,0-1.2-0.1-1.7-0.4s-0.9-0.6-1.2-1
							c-0.3-0.4-0.4-1-0.4-1.6c0-0.6,0.1-1.2,0.4-1.6c0.3-0.5,0.7-0.9,1.2-1.1c0.5-0.3,1.1-0.4,1.9-0.4c0.8,0,1.5,0.2,2.1,0.6
							c0.6,0.4,1,0.9,1.3,1.6c0.3,0.7,0.5,1.5,0.5,2.5c0,1.1-0.2,2.1-0.5,2.8c-0.3,0.7-0.8,1.3-1.4,1.7
							C147,129.5,146.3,129.7,145.5,129.7z M145.7,124.7c0.3,0,0.5-0.1,0.8-0.2c0.2-0.1,0.5-0.3,0.6-0.5c0.2-0.2,0.2-0.4,0.2-0.6
							c0-0.4-0.1-0.8-0.2-1.1c-0.1-0.3-0.3-0.5-0.6-0.7c-0.2-0.2-0.5-0.2-0.9-0.2c-0.3,0-0.6,0.1-0.8,0.2s-0.4,0.3-0.6,0.6
							c-0.1,0.3-0.2,0.5-0.2,0.9c0,0.5,0.1,0.9,0.4,1.1C144.8,124.5,145.2,124.7,145.7,124.7z"/>
					</g>
				</g>
				<g transform="translate(14.926 208.556)">
					<g class="st23">
						<path id="p_00000034770672690111504000000016702646817258328995_" class="st7" d="M-48-55h194c2.8,0,5,2.2,5,5v30
							c0,2.8-2.2,5-5,5H-48c-2.8,0-5-2.2-5-5v-30C-53-52.8-50.8-55-48-55z"/>
					</g>
					<g>
						<path id="p_00000085250050049029753380000016116259569892142235_" class="st8" d="M-48-55h194c2.8,0,5,2.2,5,5v30
							c0,2.8-2.2,5-5,5H-48c-2.8,0-5-2.2-5-5v-30C-53-52.8-50.8-55-48-55z"/>
					</g>
				</g>
				<g>
					<g class="st9">
						<path class="st10" d="M-21.1,173.6v-7.2h0.9v7.2H-21.1z"/>
						<path class="st10" d="M-16.8,172.8l0.1,0.8c-0.2,0.1-0.5,0.1-0.7,0.1c-0.3,0-0.6-0.1-0.7-0.2s-0.3-0.2-0.4-0.4
							c-0.1-0.2-0.1-0.5-0.1-1v-3h-0.6v-0.7h0.6v-1.3l0.9-0.5v1.8h0.9v0.7h-0.9v3c0,0.3,0,0.4,0,0.5s0.1,0.1,0.2,0.2
							s0.2,0.1,0.3,0.1C-17.1,172.8-16.9,172.8-16.8,172.8z"/>
						<path class="st10" d="M-12.4,171.9l0.9,0.1c-0.1,0.5-0.4,0.9-0.8,1.2s-0.9,0.4-1.5,0.4c-0.8,0-1.4-0.2-1.8-0.7
							c-0.4-0.5-0.7-1.1-0.7-2c0-0.9,0.2-1.5,0.7-2c0.4-0.5,1-0.7,1.7-0.7c0.7,0,1.3,0.2,1.7,0.7s0.7,1.1,0.7,2c0,0.1,0,0.1,0,0.2
							h-3.9c0,0.6,0.2,1,0.5,1.3s0.7,0.5,1.1,0.5c0.3,0,0.6-0.1,0.8-0.3S-12.6,172.3-12.4,171.9z M-15.3,170.5h2.9
							c0-0.4-0.1-0.8-0.3-1c-0.3-0.3-0.6-0.5-1.1-0.5c-0.4,0-0.7,0.1-1,0.4S-15.3,170-15.3,170.5z"/>
						<path class="st10" d="M-10.5,173.6v-5.2h0.8v0.7c0.2-0.3,0.4-0.5,0.6-0.6c0.3-0.2,0.6-0.2,0.9-0.2c0.4,0,0.7,0.1,0.9,0.2
							s0.4,0.4,0.5,0.7c0.4-0.6,0.9-0.9,1.6-0.9c0.5,0,0.9,0.1,1.2,0.4c0.3,0.3,0.4,0.7,0.4,1.3v3.6h-0.9v-3.3c0-0.4,0-0.6-0.1-0.8
							c-0.1-0.2-0.2-0.3-0.3-0.4s-0.3-0.1-0.5-0.1c-0.4,0-0.7,0.1-0.9,0.4c-0.2,0.2-0.4,0.6-0.4,1.2v3h-0.9v-3.4
							c0-0.4-0.1-0.7-0.2-0.9S-8,169-8.3,169c-0.2,0-0.5,0.1-0.7,0.2s-0.4,0.3-0.5,0.6s-0.1,0.6-0.1,1.1v2.7H-10.5z"/>
						<path class="st10" d="M0.3,173.7l0.4-2.1h-0.8v-0.7h1l0.4-1.8h-1.3v-0.7h1.5l0.4-2.1h0.7l-0.4,2.1h1.5l0.4-2.1h0.7l-0.4,2.1
							h0.8v0.7h-1l-0.4,1.8h1.4v0.7H3.7l-0.4,2.1H2.6l0.4-2.1H1.5L1,173.7H0.3z M1.6,170.9h1.5l0.4-1.8H2L1.6,170.9z"/>
						<path class="st10" d="M5.7,170c0-0.8,0.1-1.5,0.3-2c0.2-0.5,0.4-0.9,0.8-1.2s0.8-0.4,1.3-0.4c0.4,0,0.7,0.1,1,0.2
							c0.3,0.2,0.5,0.4,0.7,0.7c0.2,0.3,0.3,0.6,0.4,1.1c0.1,0.4,0.2,1,0.2,1.7c0,0.8-0.1,1.5-0.3,2c-0.2,0.5-0.4,0.9-0.8,1.2
							c-0.3,0.3-0.8,0.4-1.3,0.4c-0.7,0-1.2-0.2-1.6-0.7C5.9,172.3,5.7,171.4,5.7,170z M6.6,170c0,1.2,0.1,2,0.4,2.3
							c0.3,0.4,0.6,0.6,1,0.6c0.4,0,0.7-0.2,1-0.6s0.4-1.2,0.4-2.3c0-1.2-0.1-2-0.4-2.3s-0.6-0.6-1-0.6c-0.4,0-0.7,0.2-1,0.5
							C6.8,168,6.6,168.9,6.6,170z"/>
						<path class="st10" d="M11.2,170c0-0.8,0.1-1.5,0.3-2c0.2-0.5,0.4-0.9,0.8-1.2s0.8-0.4,1.3-0.4c0.4,0,0.7,0.1,1,0.2
							c0.3,0.2,0.5,0.4,0.7,0.7c0.2,0.3,0.3,0.6,0.4,1.1c0.1,0.4,0.2,1,0.2,1.7c0,0.8-0.1,1.5-0.3,2c-0.2,0.5-0.4,0.9-0.8,1.2
							c-0.3,0.3-0.8,0.4-1.3,0.4c-0.7,0-1.2-0.2-1.6-0.7C11.4,172.3,11.2,171.4,11.2,170z M12.1,170c0,1.2,0.1,2,0.4,2.3
							c0.3,0.4,0.6,0.6,1,0.6s0.7-0.2,1-0.6s0.4-1.2,0.4-2.3c0-1.2-0.1-2-0.4-2.3s-0.6-0.6-1-0.6c-0.4,0-0.7,0.2-1,0.5
							C12.3,168,12.1,168.9,12.1,170z"/>
						<path class="st10" d="M21.3,172.7v0.8h-4.7c0-0.2,0-0.4,0.1-0.6c0.1-0.3,0.3-0.6,0.6-1s0.6-0.7,1.1-1.1
							c0.8-0.6,1.3-1.1,1.6-1.5c0.3-0.4,0.4-0.7,0.4-1.1c0-0.3-0.1-0.6-0.4-0.9c-0.2-0.2-0.6-0.4-1-0.4c-0.4,0-0.8,0.1-1,0.4
							s-0.4,0.6-0.4,1.1l-0.9-0.1c0.1-0.7,0.3-1.2,0.7-1.5c0.4-0.4,0.9-0.5,1.6-0.5c0.7,0,1.2,0.2,1.6,0.6s0.6,0.9,0.6,1.4
							c0,0.3-0.1,0.6-0.2,0.8s-0.3,0.6-0.6,0.9s-0.7,0.7-1.4,1.3c-0.5,0.4-0.9,0.7-1,0.9c-0.1,0.2-0.3,0.3-0.4,0.5H21.3z"/>
					</g>
					<g class="st9">
						<path class="st10" d="M123.4,177.7c-1.1,0-2-0.2-2.7-0.7c-0.7-0.5-1.1-1.2-1.2-2.1l2,0c0.1,0.4,0.3,0.8,0.7,1
							c0.3,0.2,0.8,0.3,1.3,0.3c0.3,0,0.6-0.1,0.8-0.2c0.2-0.1,0.4-0.2,0.6-0.4s0.2-0.4,0.2-0.6c0-0.3-0.1-0.6-0.3-0.8
							c-0.2-0.2-0.6-0.3-1-0.4l-1.5-0.3c-0.7-0.1-1.3-0.4-1.7-0.9s-0.7-1-0.7-1.7c0-0.6,0.2-1.1,0.5-1.5c0.3-0.4,0.8-0.8,1.3-1
							s1.2-0.4,1.9-0.4c0.7,0,1.3,0.1,1.8,0.4c0.5,0.3,0.9,0.6,1.2,1s0.4,0.9,0.4,1.4l-1.9,0c-0.1-0.4-0.2-0.7-0.4-1
							s-0.6-0.4-1.1-0.4c-0.3,0-0.5,0-0.7,0.1c-0.2,0.1-0.4,0.1-0.5,0.2c-0.1,0.1-0.3,0.2-0.3,0.4s-0.1,0.3-0.1,0.5
							c0,0.3,0.1,0.5,0.3,0.6c0.2,0.2,0.5,0.3,1,0.4l1.5,0.4c0.9,0.2,1.5,0.6,1.8,1c0.4,0.5,0.6,1.1,0.6,1.8c0,0.5-0.1,1-0.4,1.4
							c-0.3,0.4-0.7,0.7-1.3,0.9C124.7,177.6,124.1,177.7,123.4,177.7z M122.5,178.8v-1.7h1.6v1.7H122.5z M122.5,168.5v-1.7h1.6v1.7
							H122.5z"/>
						<path class="st10" d="M129.8,177.6v-7h-1.7v-1.1c0.5,0,1-0.1,1.3-0.2s0.6-0.2,0.7-0.4c0.2-0.2,0.3-0.4,0.3-0.7h1.3v9.4H129.8z
							"/>
						<path class="st10" d="M137.2,177.7c-1.1,0-2-0.4-2.7-1.2c-0.6-0.8-1-2-1-3.6c0-1,0.1-1.9,0.4-2.6c0.3-0.7,0.7-1.3,1.3-1.6
							c0.5-0.4,1.2-0.6,1.9-0.6c1.1,0,2,0.4,2.6,1.3c0.6,0.8,1,2,1,3.6c0,1.6-0.3,2.7-1,3.6C139.2,177.3,138.3,177.7,137.2,177.7z
							 M137.2,176.1c0.6,0,1-0.3,1.2-0.8c0.3-0.5,0.4-1.3,0.4-2.5c0-1.2-0.1-2.1-0.4-2.6c-0.3-0.5-0.7-0.8-1.2-0.8s-1,0.3-1.2,0.8
							c-0.3,0.5-0.4,1.4-0.4,2.6c0,1.2,0.1,2,0.4,2.5C136.2,175.9,136.6,176.1,137.2,176.1z"/>
						<path class="st10" d="M145.8,177.7c-0.6,0-1.2-0.1-1.7-0.3c-0.5-0.2-1-0.5-1.4-0.8c-0.4-0.3-0.7-0.7-0.9-1.1l1.5-0.9
							c0.2,0.3,0.4,0.6,0.6,0.8s0.5,0.4,0.7,0.6c0.3,0.1,0.6,0.2,1,0.2c0.6,0,1-0.1,1.4-0.4c0.3-0.3,0.5-0.7,0.5-1.2
							c0-0.3-0.1-0.6-0.2-0.8c-0.2-0.2-0.4-0.4-0.6-0.6c-0.3-0.1-0.6-0.2-0.9-0.2c-0.2,0-0.4,0-0.5,0c-0.2,0-0.3,0.1-0.5,0.2
							c-0.2,0.1-0.4,0.2-0.6,0.4c-0.1,0-0.1,0-0.1,0s-0.1,0-0.1,0l-1.4-0.6l0.4-4.8h6l-0.1,1.6h-4.5l-0.2,2.3c0.3-0.2,0.7-0.3,1-0.4
							c0.3-0.1,0.7-0.1,1-0.1c0.6,0,1.2,0.1,1.7,0.4c0.5,0.2,0.9,0.6,1.2,1c0.3,0.5,0.4,1,0.4,1.7c0,0.7-0.1,1.2-0.4,1.7
							c-0.3,0.5-0.7,0.9-1.3,1.1C147.2,177.6,146.6,177.7,145.8,177.7z"/>
					</g>
				</g>
				<g transform="translate(14.926 256.556)">
					<g class="st24">
						<path id="r_00000127750774239888022750000003792848664822898824_" class="st7" d="M-48-55h194c2.8,0,5,2.2,5,5v30
							c0,2.8-2.2,5-5,5H-48c-2.8,0-5-2.2-5-5v-30C-53-52.8-50.8-55-48-55z"/>
					</g>
					<g>
						<path id="r_00000135670827895273698420000012906360333793700755_" class="st8" d="M-48-55h194c2.8,0,5,2.2,5,5v30
							c0,2.8-2.2,5-5,5H-48c-2.8,0-5-2.2-5-5v-30C-53-52.8-50.8-55-48-55z"/>
					</g>
				</g>
				<g>
					<g class="st9">
						<path class="st10" d="M-21.1,221.6v-7.2h0.9v7.2H-21.1z"/>
						<path class="st10" d="M-16.8,220.8l0.1,0.8c-0.2,0.1-0.5,0.1-0.7,0.1c-0.3,0-0.6-0.1-0.7-0.2s-0.3-0.2-0.4-0.4
							c-0.1-0.2-0.1-0.5-0.1-1v-3h-0.6v-0.7h0.6v-1.3l0.9-0.5v1.8h0.9v0.7h-0.9v3c0,0.3,0,0.4,0,0.5s0.1,0.1,0.2,0.2
							s0.2,0.1,0.3,0.1C-17.1,220.8-16.9,220.8-16.8,220.8z"/>
						<path class="st10" d="M-12.4,219.9l0.9,0.1c-0.1,0.5-0.4,0.9-0.8,1.2s-0.9,0.4-1.5,0.4c-0.8,0-1.4-0.2-1.8-0.7
							c-0.4-0.5-0.7-1.1-0.7-2c0-0.9,0.2-1.5,0.7-2c0.4-0.5,1-0.7,1.7-0.7c0.7,0,1.3,0.2,1.7,0.7s0.7,1.1,0.7,2c0,0.1,0,0.1,0,0.2
							h-3.9c0,0.6,0.2,1,0.5,1.3s0.7,0.5,1.1,0.5c0.3,0,0.6-0.1,0.8-0.3S-12.6,220.3-12.4,219.9z M-15.3,218.5h2.9
							c0-0.4-0.1-0.8-0.3-1c-0.3-0.3-0.6-0.5-1.1-0.5c-0.4,0-0.7,0.1-1,0.4S-15.3,218-15.3,218.5z"/>
						<path class="st10" d="M-10.5,221.6v-5.2h0.8v0.7c0.2-0.3,0.4-0.5,0.6-0.6c0.3-0.2,0.6-0.2,0.9-0.2c0.4,0,0.7,0.1,0.9,0.2
							s0.4,0.4,0.5,0.7c0.4-0.6,0.9-0.9,1.6-0.9c0.5,0,0.9,0.1,1.2,0.4c0.3,0.3,0.4,0.7,0.4,1.3v3.6h-0.9v-3.3c0-0.4,0-0.6-0.1-0.8
							c-0.1-0.2-0.2-0.3-0.3-0.4s-0.3-0.1-0.5-0.1c-0.4,0-0.7,0.1-0.9,0.4c-0.2,0.2-0.4,0.6-0.4,1.2v3h-0.9v-3.4
							c0-0.4-0.1-0.7-0.2-0.9S-8,217-8.3,217c-0.2,0-0.5,0.1-0.7,0.2s-0.4,0.3-0.5,0.6s-0.1,0.6-0.1,1.1v2.7H-10.5z"/>
						<path class="st10" d="M0.3,221.7l0.4-2.1h-0.8v-0.7h1l0.4-1.8h-1.3v-0.7h1.5l0.4-2.1h0.7l-0.4,2.1h1.5l0.4-2.1h0.7l-0.4,2.1
							h0.8v0.7h-1l-0.4,1.8h1.4v0.7H3.7l-0.4,2.1H2.6l0.4-2.1H1.5L1,221.7H0.3z M1.6,218.9h1.5l0.4-1.8H2L1.6,218.9z"/>
						<path class="st10" d="M5.7,218c0-0.8,0.1-1.5,0.3-2c0.2-0.5,0.4-0.9,0.8-1.2s0.8-0.4,1.3-0.4c0.4,0,0.7,0.1,1,0.2
							c0.3,0.2,0.5,0.4,0.7,0.7c0.2,0.3,0.3,0.6,0.4,1.1c0.1,0.4,0.2,1,0.2,1.7c0,0.8-0.1,1.5-0.3,2c-0.2,0.5-0.4,0.9-0.8,1.2
							c-0.3,0.3-0.8,0.4-1.3,0.4c-0.7,0-1.2-0.2-1.6-0.7C5.9,220.3,5.7,219.4,5.7,218z M6.6,218c0,1.2,0.1,2,0.4,2.3
							c0.3,0.4,0.6,0.6,1,0.6c0.4,0,0.7-0.2,1-0.6s0.4-1.2,0.4-2.3c0-1.2-0.1-2-0.4-2.3s-0.6-0.6-1-0.6c-0.4,0-0.7,0.2-1,0.5
							C6.8,216,6.6,216.9,6.6,218z"/>
						<path class="st10" d="M11.2,218c0-0.8,0.1-1.5,0.3-2c0.2-0.5,0.4-0.9,0.8-1.2s0.8-0.4,1.3-0.4c0.4,0,0.7,0.1,1,0.2
							c0.3,0.2,0.5,0.4,0.7,0.7c0.2,0.3,0.3,0.6,0.4,1.1c0.1,0.4,0.2,1,0.2,1.7c0,0.8-0.1,1.5-0.3,2c-0.2,0.5-0.4,0.9-0.8,1.2
							c-0.3,0.3-0.8,0.4-1.3,0.4c-0.7,0-1.2-0.2-1.6-0.7C11.4,220.3,11.2,219.4,11.2,218z M12.1,218c0,1.2,0.1,2,0.4,2.3
							c0.3,0.4,0.6,0.6,1,0.6s0.7-0.2,1-0.6s0.4-1.2,0.4-2.3c0-1.2-0.1-2-0.4-2.3s-0.6-0.6-1-0.6c-0.4,0-0.7,0.2-1,0.5
							C12.3,216,12.1,216.9,12.1,218z"/>
						<path class="st10" d="M16.7,219.7l0.9-0.1c0.1,0.5,0.3,0.9,0.5,1.1c0.2,0.2,0.5,0.3,0.9,0.3c0.4,0,0.8-0.1,1-0.4
							s0.4-0.6,0.4-1.1c0-0.4-0.1-0.7-0.4-1c-0.3-0.3-0.6-0.4-1-0.4c-0.2,0-0.4,0-0.6,0.1l0.1-0.8c0.1,0,0.1,0,0.1,0
							c0.4,0,0.7-0.1,1-0.3s0.4-0.5,0.4-0.9c0-0.3-0.1-0.6-0.3-0.8s-0.5-0.3-0.8-0.3c-0.3,0-0.6,0.1-0.9,0.3s-0.4,0.5-0.4,1
							l-0.9-0.2c0.1-0.6,0.4-1,0.7-1.4c0.4-0.3,0.9-0.5,1.4-0.5c0.4,0,0.8,0.1,1.1,0.3c0.3,0.2,0.6,0.4,0.8,0.7s0.3,0.6,0.3,0.9
							c0,0.3-0.1,0.6-0.2,0.8s-0.4,0.5-0.7,0.6c0.4,0.1,0.8,0.3,1,0.6c0.2,0.3,0.4,0.7,0.4,1.2c0,0.6-0.2,1.2-0.7,1.6
							c-0.5,0.4-1,0.7-1.7,0.7c-0.6,0-1.1-0.2-1.6-0.6S16.8,220.3,16.7,219.7z"/>
					</g>
					<g class="st9">
						<path class="st10" d="M123.4,225.7c-1.1,0-2-0.2-2.7-0.7c-0.7-0.5-1.1-1.2-1.2-2.1l2,0c0.1,0.4,0.3,0.8,0.7,1
							c0.3,0.2,0.8,0.3,1.3,0.3c0.3,0,0.6-0.1,0.8-0.2c0.2-0.1,0.4-0.2,0.6-0.4s0.2-0.4,0.2-0.6c0-0.3-0.1-0.6-0.3-0.8
							c-0.2-0.2-0.6-0.3-1-0.4l-1.5-0.3c-0.7-0.1-1.3-0.4-1.7-0.9s-0.7-1-0.7-1.7c0-0.6,0.2-1.1,0.5-1.5c0.3-0.4,0.8-0.8,1.3-1
							s1.2-0.4,1.9-0.4c0.7,0,1.3,0.1,1.8,0.4c0.5,0.3,0.9,0.6,1.2,1s0.4,0.9,0.4,1.4l-1.9,0c-0.1-0.4-0.2-0.7-0.4-1
							s-0.6-0.4-1.1-0.4c-0.3,0-0.5,0-0.7,0.1c-0.2,0.1-0.4,0.1-0.5,0.2c-0.1,0.1-0.3,0.2-0.3,0.4s-0.1,0.3-0.1,0.5
							c0,0.3,0.1,0.5,0.3,0.6c0.2,0.2,0.5,0.3,1,0.4l1.5,0.4c0.9,0.2,1.5,0.6,1.8,1c0.4,0.5,0.6,1.1,0.6,1.8c0,0.5-0.1,1-0.4,1.4
							c-0.3,0.4-0.7,0.7-1.3,0.9C124.8,225.6,124.1,225.7,123.4,225.7z M122.6,226.8v-1.7h1.6v1.7H122.6z M122.6,216.5v-1.7h1.6v1.7
							H122.6z"/>
						<path class="st10" d="M131.9,225.7c-0.8,0-1.4-0.1-2-0.3c-0.6-0.2-1-0.5-1.3-1s-0.5-0.9-0.5-1.5c0-0.4,0.1-0.7,0.3-1
							c0.2-0.3,0.4-0.6,0.7-0.8s0.6-0.4,0.8-0.4c-0.4-0.2-0.7-0.4-1-0.8s-0.4-0.7-0.4-1.2c0-0.6,0.1-1.1,0.4-1.4
							c0.3-0.4,0.7-0.7,1.2-0.9c0.5-0.2,1.1-0.3,1.7-0.3c0.6,0,1.2,0.1,1.7,0.3c0.5,0.2,0.9,0.5,1.2,0.9c0.3,0.4,0.4,0.9,0.4,1.4
							c0,0.5-0.1,0.9-0.4,1.2s-0.6,0.6-1,0.8c0.3,0.1,0.6,0.2,0.8,0.4c0.3,0.2,0.5,0.5,0.7,0.8c0.2,0.3,0.3,0.7,0.3,1
							c0,0.6-0.2,1-0.5,1.5s-0.8,0.7-1.3,1S132.7,225.7,131.9,225.7z M131.9,224.3c0.6,0,1-0.1,1.3-0.4s0.5-0.6,0.5-1
							c0-0.3-0.1-0.5-0.2-0.7s-0.3-0.4-0.6-0.5c-0.3-0.1-0.6-0.2-0.9-0.2c-0.4,0-0.7,0.1-0.9,0.2s-0.5,0.3-0.6,0.5s-0.2,0.5-0.2,0.7
							c0,0.4,0.2,0.7,0.5,1S131.4,224.3,131.9,224.3z M131.9,219.9c0.4,0,0.8-0.1,1.1-0.3c0.3-0.2,0.4-0.6,0.4-1
							c0-0.4-0.1-0.7-0.4-1s-0.6-0.4-1.1-0.4c-0.4,0-0.8,0.1-1.1,0.4s-0.4,0.6-0.4,1c0,0.4,0.1,0.7,0.4,1
							C131.1,219.8,131.5,219.9,131.9,219.9z"/>
						<path class="st10" d="M138.4,225.6v-7h-1.7v-1.1c0.5,0,1-0.1,1.3-0.2s0.6-0.2,0.7-0.4c0.2-0.2,0.3-0.4,0.3-0.7h1.3v9.4H138.4z
							"/>
						<path class="st10" d="M145.9,225.7c-1.1,0-2-0.4-2.7-1.2c-0.6-0.8-1-2-1-3.6c0-1,0.1-1.9,0.4-2.6c0.3-0.7,0.7-1.3,1.3-1.6
							c0.5-0.4,1.2-0.6,1.9-0.6c1.1,0,2,0.4,2.6,1.3c0.6,0.8,1,2,1,3.6c0,1.6-0.3,2.7-1,3.6C147.9,225.3,147,225.7,145.9,225.7z
							 M145.9,224.1c0.6,0,1-0.3,1.2-0.8c0.3-0.5,0.4-1.3,0.4-2.5c0-1.2-0.1-2.1-0.4-2.6c-0.3-0.5-0.7-0.8-1.2-0.8s-1,0.3-1.2,0.8
							c-0.3,0.5-0.4,1.4-0.4,2.6c0,1.2,0.1,2,0.4,2.5C144.9,223.9,145.3,224.1,145.9,224.1z"/>
					</g>
				</g>
				<g transform="translate(14.926 304.556)">
					<g class="st25">
						<path id="t_00000080904564448730423480000006406158244755115665_" class="st7" d="M-48-55h194c2.8,0,5,2.2,5,5v30
							c0,2.8-2.2,5-5,5H-48c-2.8,0-5-2.2-5-5v-30C-53-52.8-50.8-55-48-55z"/>
					</g>
					<g>
						<path id="t_00000022541671981634738300000005185750383720482181_" class="st8" d="M-48-55h194c2.8,0,5,2.2,5,5v30
							c0,2.8-2.2,5-5,5H-48c-2.8,0-5-2.2-5-5v-30C-53-52.8-50.8-55-48-55z"/>
					</g>
				</g>
				<g>
					<g class="st9">
						<path class="st10" d="M-21.1,269.6v-7.2h0.9v7.2H-21.1z"/>
						<path class="st10" d="M-16.8,268.8l0.1,0.8c-0.2,0.1-0.5,0.1-0.7,0.1c-0.3,0-0.6-0.1-0.7-0.2s-0.3-0.2-0.4-0.4
							c-0.1-0.2-0.1-0.5-0.1-1v-3h-0.6v-0.7h0.6v-1.3l0.9-0.5v1.8h0.9v0.7h-0.9v3c0,0.3,0,0.4,0,0.5s0.1,0.1,0.2,0.2
							s0.2,0.1,0.3,0.1C-17.1,268.8-16.9,268.8-16.8,268.8z"/>
						<path class="st10" d="M-12.4,267.9l0.9,0.1c-0.1,0.5-0.4,0.9-0.8,1.2s-0.9,0.4-1.5,0.4c-0.8,0-1.4-0.2-1.8-0.7
							c-0.4-0.5-0.7-1.1-0.7-2c0-0.9,0.2-1.5,0.7-2c0.4-0.5,1-0.7,1.7-0.7c0.7,0,1.3,0.2,1.7,0.7s0.7,1.1,0.7,2c0,0.1,0,0.1,0,0.2
							h-3.9c0,0.6,0.2,1,0.5,1.3s0.7,0.5,1.1,0.5c0.3,0,0.6-0.1,0.8-0.3S-12.6,268.3-12.4,267.9z M-15.3,266.5h2.9
							c0-0.4-0.1-0.8-0.3-1c-0.3-0.3-0.6-0.5-1.1-0.5c-0.4,0-0.7,0.1-1,0.4S-15.3,266-15.3,266.5z"/>
						<path class="st10" d="M-10.5,269.6v-5.2h0.8v0.7c0.2-0.3,0.4-0.5,0.6-0.6c0.3-0.2,0.6-0.2,0.9-0.2c0.4,0,0.7,0.1,0.9,0.2
							s0.4,0.4,0.5,0.7c0.4-0.6,0.9-0.9,1.6-0.9c0.5,0,0.9,0.1,1.2,0.4c0.3,0.3,0.4,0.7,0.4,1.3v3.6h-0.9v-3.3c0-0.4,0-0.6-0.1-0.8
							c-0.1-0.2-0.2-0.3-0.3-0.4s-0.3-0.1-0.5-0.1c-0.4,0-0.7,0.1-0.9,0.4c-0.2,0.2-0.4,0.6-0.4,1.2v3h-0.9v-3.4
							c0-0.4-0.1-0.7-0.2-0.9S-8,265-8.3,265c-0.2,0-0.5,0.1-0.7,0.2s-0.4,0.3-0.5,0.6s-0.1,0.6-0.1,1.1v2.7H-10.5z"/>
						<path class="st10" d="M0.3,269.7l0.4-2.1h-0.8v-0.7h1l0.4-1.8h-1.3v-0.7h1.5l0.4-2.1h0.7l-0.4,2.1h1.5l0.4-2.1h0.7l-0.4,2.1
							h0.8v0.7h-1l-0.4,1.8h1.4v0.7H3.7l-0.4,2.1H2.6l0.4-2.1H1.5L1,269.7H0.3z M1.6,266.9h1.5l0.4-1.8H2L1.6,266.9z"/>
						<path class="st10" d="M5.7,266c0-0.8,0.1-1.5,0.3-2c0.2-0.5,0.4-0.9,0.8-1.2s0.8-0.4,1.3-0.4c0.4,0,0.7,0.1,1,0.2
							c0.3,0.2,0.5,0.4,0.7,0.7c0.2,0.3,0.3,0.6,0.4,1.1c0.1,0.4,0.2,1,0.2,1.7c0,0.8-0.1,1.5-0.3,2c-0.2,0.5-0.4,0.9-0.8,1.2
							c-0.3,0.3-0.8,0.4-1.3,0.4c-0.7,0-1.2-0.2-1.6-0.7C5.9,268.3,5.7,267.4,5.7,266z M6.6,266c0,1.2,0.1,2,0.4,2.3
							c0.3,0.4,0.6,0.6,1,0.6c0.4,0,0.7-0.2,1-0.6s0.4-1.2,0.4-2.3c0-1.2-0.1-2-0.4-2.3s-0.6-0.6-1-0.6c-0.4,0-0.7,0.2-1,0.5
							C6.8,264,6.6,264.9,6.6,266z"/>
						<path class="st10" d="M11.2,266c0-0.8,0.1-1.5,0.3-2c0.2-0.5,0.4-0.9,0.8-1.2s0.8-0.4,1.3-0.4c0.4,0,0.7,0.1,1,0.2
							c0.3,0.2,0.5,0.4,0.7,0.7c0.2,0.3,0.3,0.6,0.4,1.1c0.1,0.4,0.2,1,0.2,1.7c0,0.8-0.1,1.5-0.3,2c-0.2,0.5-0.4,0.9-0.8,1.2
							c-0.3,0.3-0.8,0.4-1.3,0.4c-0.7,0-1.2-0.2-1.6-0.7C11.4,268.3,11.2,267.4,11.2,266z M12.1,266c0,1.2,0.1,2,0.4,2.3
							c0.3,0.4,0.6,0.6,1,0.6s0.7-0.2,1-0.6s0.4-1.2,0.4-2.3c0-1.2-0.1-2-0.4-2.3s-0.6-0.6-1-0.6c-0.4,0-0.7,0.2-1,0.5
							C12.3,264,12.1,264.9,12.1,266z"/>
						<path class="st10" d="M19.5,269.6v-1.7h-3.1V267l3.3-4.6h0.7v4.6h1v0.8h-1v1.7H19.5z M19.5,267v-3.2l-2.2,3.2H19.5z"/>
					</g>
					<g class="st9">
						<path class="st10" d="M115.2,273.7c-1.1,0-2-0.2-2.7-0.7c-0.7-0.5-1.1-1.2-1.2-2.1l2,0c0.1,0.4,0.3,0.8,0.7,1
							c0.3,0.2,0.8,0.3,1.3,0.3c0.3,0,0.6-0.1,0.8-0.2c0.2-0.1,0.4-0.2,0.6-0.4s0.2-0.4,0.2-0.6c0-0.3-0.1-0.6-0.3-0.8
							c-0.2-0.2-0.6-0.3-1-0.4l-1.5-0.3c-0.7-0.1-1.3-0.4-1.7-0.9s-0.7-1-0.7-1.7c0-0.6,0.2-1.1,0.5-1.5c0.3-0.4,0.8-0.8,1.3-1
							s1.2-0.4,1.9-0.4c0.7,0,1.3,0.1,1.8,0.4c0.5,0.3,0.9,0.6,1.2,1s0.4,0.9,0.4,1.4l-1.9,0c-0.1-0.4-0.2-0.7-0.4-1
							s-0.6-0.4-1.1-0.4c-0.3,0-0.5,0-0.7,0.1c-0.2,0.1-0.4,0.1-0.5,0.2c-0.1,0.1-0.3,0.2-0.3,0.4s-0.1,0.3-0.1,0.5
							c0,0.3,0.1,0.5,0.3,0.6c0.2,0.2,0.5,0.3,1,0.4l1.5,0.4c0.9,0.2,1.5,0.6,1.8,1c0.4,0.5,0.6,1.1,0.6,1.8c0,0.5-0.1,1-0.4,1.4
							c-0.3,0.4-0.7,0.7-1.3,0.9C116.6,273.6,116,273.7,115.2,273.7z M114.4,274.8v-1.7h1.6v1.7H114.4z M114.4,264.5v-1.7h1.6v1.7
							H114.4z"/>
						<path class="st10" d="M121.6,273.6v-7h-1.7v-1.1c0.5,0,1-0.1,1.3-0.2s0.6-0.2,0.7-0.4c0.2-0.2,0.3-0.4,0.3-0.7h1.3v9.4H121.6z
							"/>
						<path class="st10" d="M129.1,273.7c-1.1,0-2-0.4-2.7-1.2c-0.6-0.8-1-2-1-3.6c0-1,0.1-1.9,0.4-2.6c0.3-0.7,0.7-1.3,1.3-1.6
							c0.5-0.4,1.2-0.6,1.9-0.6c1.1,0,2,0.4,2.6,1.3c0.6,0.8,1,2,1,3.6c0,1.6-0.3,2.7-1,3.6C131.1,273.3,130.2,273.7,129.1,273.7z
							 M129.1,272.1c0.6,0,1-0.3,1.2-0.8c0.3-0.5,0.4-1.3,0.4-2.5c0-1.2-0.1-2.1-0.4-2.6c-0.3-0.5-0.7-0.8-1.2-0.8s-1,0.3-1.2,0.8
							c-0.3,0.5-0.4,1.4-0.4,2.6c0,1.2,0.1,2,0.4,2.5C128.1,271.9,128.5,272.1,129.1,272.1z"/>
						<path class="st10" d="M138,273.6l0-2.1h-4.3v-1.6l4.3-5.8h1.9v5.7h1.4v1.6h-1.4v2.1H138z M135.4,269.9h2.6v-3.4L135.4,269.9z"
							/>
						<path class="st10" d="M146.4,273.6l0-2.1h-4.3v-1.6l4.3-5.8h1.9v5.7h1.4v1.6h-1.4v2.1H146.4z M143.8,269.9h2.6v-3.4
							L143.8,269.9z"/>
					</g>
				</g>
				<g>
					<g transform="translate(14.926 352.556)">
						<g class="st26">
							<path id="v_00000169530687667087332470000006502395307603145908_" class="st7" d="M-48-55h194c2.8,0,5,2.2,5,5v30
								c0,2.8-2.2,5-5,5H-48c-2.8,0-5-2.2-5-5v-30C-53-52.8-50.8-55-48-55z"/>
						</g>
						<g>
							<path id="v_00000019646014888312828870000006317006221222948270_" class="st8" d="M-48-55h194c2.8,0,5,2.2,5,5v30
								c0,2.8-2.2,5-5,5H-48c-2.8,0-5-2.2-5-5v-30C-53-52.8-50.8-55-48-55z"/>
						</g>
					</g>
					<g>
						<g class="st9">
							<path class="st10" d="M-21.1,317.6v-7.2h0.9v7.2H-21.1z"/>
							<path class="st10" d="M-16.8,316.8l0.1,0.8c-0.2,0.1-0.5,0.1-0.7,0.1c-0.3,0-0.6-0.1-0.7-0.2s-0.3-0.2-0.4-0.4
								c-0.1-0.2-0.1-0.5-0.1-1v-3h-0.6v-0.7h0.6v-1.3l0.9-0.5v1.8h0.9v0.7h-0.9v3c0,0.3,0,0.4,0,0.5s0.1,0.1,0.2,0.2
								s0.2,0.1,0.3,0.1C-17.1,316.8-16.9,316.8-16.8,316.8z"/>
							<path class="st10" d="M-12.4,315.9l0.9,0.1c-0.1,0.5-0.4,0.9-0.8,1.2s-0.9,0.4-1.5,0.4c-0.8,0-1.4-0.2-1.8-0.7
								c-0.4-0.5-0.7-1.1-0.7-2c0-0.9,0.2-1.5,0.7-2c0.4-0.5,1-0.7,1.7-0.7c0.7,0,1.3,0.2,1.7,0.7s0.7,1.1,0.7,2c0,0.1,0,0.1,0,0.2
								h-3.9c0,0.6,0.2,1,0.5,1.3s0.7,0.5,1.1,0.5c0.3,0,0.6-0.1,0.8-0.3S-12.6,316.3-12.4,315.9z M-15.3,314.5h2.9
								c0-0.4-0.1-0.8-0.3-1c-0.3-0.3-0.6-0.5-1.1-0.5c-0.4,0-0.7,0.1-1,0.4S-15.3,314-15.3,314.5z"/>
							<path class="st10" d="M-10.5,317.6v-5.2h0.8v0.7c0.2-0.3,0.4-0.5,0.6-0.6c0.3-0.2,0.6-0.2,0.9-0.2c0.4,0,0.7,0.1,0.9,0.2
								s0.4,0.4,0.5,0.7c0.4-0.6,0.9-0.9,1.6-0.9c0.5,0,0.9,0.1,1.2,0.4c0.3,0.3,0.4,0.7,0.4,1.3v3.6h-0.9v-3.3c0-0.4,0-0.6-0.1-0.8
								c-0.1-0.2-0.2-0.3-0.3-0.4s-0.3-0.1-0.5-0.1c-0.4,0-0.7,0.1-0.9,0.4c-0.2,0.2-0.4,0.6-0.4,1.2v3h-0.9v-3.4
								c0-0.4-0.1-0.7-0.2-0.9S-8,313-8.3,313c-0.2,0-0.5,0.1-0.7,0.2s-0.4,0.3-0.5,0.6s-0.1,0.6-0.1,1.1v2.7H-10.5z"/>
							<path class="st10" d="M0.3,317.7l0.4-2.1h-0.8v-0.7h1l0.4-1.8h-1.3v-0.7h1.5l0.4-2.1h0.7l-0.4,2.1h1.5l0.4-2.1h0.7l-0.4,2.1
								h0.8v0.7h-1l-0.4,1.8h1.4v0.7H3.7l-0.4,2.1H2.6l0.4-2.1H1.5L1,317.7H0.3z M1.6,314.9h1.5l0.4-1.8H2L1.6,314.9z"/>
							<path class="st10" d="M5.7,314c0-0.8,0.1-1.5,0.3-2c0.2-0.5,0.4-0.9,0.8-1.2s0.8-0.4,1.3-0.4c0.4,0,0.7,0.1,1,0.2
								c0.3,0.2,0.5,0.4,0.7,0.7c0.2,0.3,0.3,0.6,0.4,1.1c0.1,0.4,0.2,1,0.2,1.7c0,0.8-0.1,1.5-0.3,2c-0.2,0.5-0.4,0.9-0.8,1.2
								c-0.3,0.3-0.8,0.4-1.3,0.4c-0.7,0-1.2-0.2-1.6-0.7C5.9,316.3,5.7,315.4,5.7,314z M6.6,314c0,1.2,0.1,2,0.4,2.3
								c0.3,0.4,0.6,0.6,1,0.6c0.4,0,0.7-0.2,1-0.6s0.4-1.2,0.4-2.3c0-1.2-0.1-2-0.4-2.3s-0.6-0.6-1-0.6c-0.4,0-0.7,0.2-1,0.5
								C6.8,312,6.6,312.9,6.6,314z"/>
							<path class="st10" d="M11.2,314c0-0.8,0.1-1.5,0.3-2c0.2-0.5,0.4-0.9,0.8-1.2s0.8-0.4,1.3-0.4c0.4,0,0.7,0.1,1,0.2
								c0.3,0.2,0.5,0.4,0.7,0.7c0.2,0.3,0.3,0.6,0.4,1.1c0.1,0.4,0.2,1,0.2,1.7c0,0.8-0.1,1.5-0.3,2c-0.2,0.5-0.4,0.9-0.8,1.2
								c-0.3,0.3-0.8,0.4-1.3,0.4c-0.7,0-1.2-0.2-1.6-0.7C11.4,316.3,11.2,315.4,11.2,314z M12.1,314c0,1.2,0.1,2,0.4,2.3
								c0.3,0.4,0.6,0.6,1,0.6s0.7-0.2,1-0.6s0.4-1.2,0.4-2.3c0-1.2-0.1-2-0.4-2.3s-0.6-0.6-1-0.6c-0.4,0-0.7,0.2-1,0.5
								C12.3,312,12.1,312.9,12.1,314z"/>
							<path class="st10" d="M16.7,315.7l0.9-0.1c0.1,0.4,0.2,0.8,0.5,1c0.2,0.2,0.5,0.3,0.9,0.3c0.4,0,0.8-0.2,1.1-0.5
								s0.4-0.7,0.4-1.3c0-0.5-0.1-0.9-0.4-1.2s-0.7-0.4-1.1-0.4c-0.3,0-0.5,0.1-0.8,0.2c-0.2,0.1-0.4,0.3-0.5,0.5l-0.8-0.1l0.7-3.7
								h3.6v0.8h-2.9l-0.4,1.9c0.4-0.3,0.9-0.4,1.4-0.4c0.6,0,1.2,0.2,1.6,0.6s0.6,1,0.6,1.7c0,0.6-0.2,1.2-0.6,1.7
								c-0.5,0.6-1.1,0.9-1.9,0.9c-0.7,0-1.2-0.2-1.6-0.5S16.8,316.3,16.7,315.7z"/>
						</g>
						<g class="st9">
							<path class="st10" d="M129.1,321.7c-1.1,0-2-0.2-2.7-0.7c-0.7-0.5-1.1-1.2-1.2-2.1l2,0c0.1,0.4,0.3,0.8,0.7,1
								c0.3,0.2,0.8,0.3,1.3,0.3c0.3,0,0.6-0.1,0.8-0.2c0.2-0.1,0.4-0.2,0.6-0.4s0.2-0.4,0.2-0.6c0-0.3-0.1-0.6-0.3-0.8
								c-0.2-0.2-0.6-0.3-1-0.4l-1.5-0.3c-0.7-0.1-1.3-0.4-1.7-0.9s-0.7-1-0.7-1.7c0-0.6,0.2-1.1,0.5-1.5c0.3-0.4,0.8-0.8,1.3-1
								s1.2-0.4,1.9-0.4c0.7,0,1.3,0.1,1.8,0.4c0.5,0.3,0.9,0.6,1.2,1s0.4,0.9,0.4,1.4l-1.9,0c-0.1-0.4-0.2-0.7-0.4-1
								s-0.6-0.4-1.1-0.4c-0.3,0-0.5,0-0.7,0.1c-0.2,0.1-0.4,0.1-0.5,0.2c-0.1,0.1-0.3,0.2-0.3,0.4s-0.1,0.3-0.1,0.5
								c0,0.3,0.1,0.5,0.3,0.6c0.2,0.2,0.5,0.3,1,0.4l1.5,0.4c0.9,0.2,1.5,0.6,1.8,1c0.4,0.5,0.6,1.1,0.6,1.8c0,0.5-0.1,1-0.4,1.4
								c-0.3,0.4-0.7,0.7-1.3,0.9C130.4,321.6,129.8,321.7,129.1,321.7z M128.2,322.8v-1.7h1.6v1.7H128.2z M128.3,312.5v-1.7h1.6
								v1.7H128.3z"/>
							<path class="st10" d="M138.1,321.6l0-2.1h-4.3v-1.6l4.3-5.8h1.9v5.7h1.4v1.6h-1.4v2.1H138.1z M135.5,317.9h2.6v-3.4
								L135.5,317.9z"/>
							<path class="st10" d="M145.9,321.7c-1.1,0-2-0.4-2.7-1.2c-0.6-0.8-1-2-1-3.6c0-1,0.1-1.9,0.4-2.6c0.3-0.7,0.7-1.3,1.3-1.6
								c0.5-0.4,1.2-0.6,1.9-0.6c1.1,0,2,0.4,2.6,1.3c0.6,0.8,1,2,1,3.6c0,1.6-0.3,2.7-1,3.6C147.9,321.3,147,321.7,145.9,321.7z
								 M145.9,320.1c0.6,0,1-0.3,1.2-0.8c0.3-0.5,0.4-1.3,0.4-2.5c0-1.2-0.1-2.1-0.4-2.6c-0.3-0.5-0.7-0.8-1.2-0.8s-1,0.3-1.2,0.8
								c-0.3,0.5-0.4,1.4-0.4,2.6c0,1.2,0.1,2,0.4,2.5C144.9,319.9,145.3,320.1,145.9,320.1z"/>
						</g>
					</g>
				</g>
				<g>
					<g transform="translate(14.926 400.556)">
						<g class="st27">
							<path id="x_00000075883825199069981140000010652257497534510767_" class="st7" d="M-48-55h194c2.8,0,5,2.2,5,5v30
								c0,2.8-2.2,5-5,5H-48c-2.8,0-5-2.2-5-5v-30C-53-52.8-50.8-55-48-55z"/>
						</g>
						<g>
							<path id="x_00000021819863028351559290000007930928992590523289_" class="st8" d="M-48-55h194c2.8,0,5,2.2,5,5v30
								c0,2.8-2.2,5-5,5H-48c-2.8,0-5-2.2-5-5v-30C-53-52.8-50.8-55-48-55z"/>
						</g>
					</g>
					<g>
						<g class="st9">
							<path class="st10" d="M-21.1,365.6v-7.2h0.9v7.2H-21.1z"/>
							<path class="st10" d="M-16.8,364.8l0.1,0.8c-0.2,0.1-0.5,0.1-0.7,0.1c-0.3,0-0.6-0.1-0.7-0.2s-0.3-0.2-0.4-0.4
								c-0.1-0.2-0.1-0.5-0.1-1v-3h-0.6v-0.7h0.6v-1.3l0.9-0.5v1.8h0.9v0.7h-0.9v3c0,0.3,0,0.4,0,0.5s0.1,0.1,0.2,0.2
								s0.2,0.1,0.3,0.1C-17.1,364.8-16.9,364.8-16.8,364.8z"/>
							<path class="st10" d="M-12.4,363.9l0.9,0.1c-0.1,0.5-0.4,0.9-0.8,1.2s-0.9,0.4-1.5,0.4c-0.8,0-1.4-0.2-1.8-0.7
								c-0.4-0.5-0.7-1.1-0.7-2c0-0.9,0.2-1.5,0.7-2c0.4-0.5,1-0.7,1.7-0.7c0.7,0,1.3,0.2,1.7,0.7s0.7,1.1,0.7,2c0,0.1,0,0.1,0,0.2
								h-3.9c0,0.6,0.2,1,0.5,1.3s0.7,0.5,1.1,0.5c0.3,0,0.6-0.1,0.8-0.3S-12.6,364.3-12.4,363.9z M-15.3,362.5h2.9
								c0-0.4-0.1-0.8-0.3-1c-0.3-0.3-0.6-0.5-1.1-0.5c-0.4,0-0.7,0.1-1,0.4S-15.3,362-15.3,362.5z"/>
							<path class="st10" d="M-10.5,365.6v-5.2h0.8v0.7c0.2-0.3,0.4-0.5,0.6-0.6c0.3-0.2,0.6-0.2,0.9-0.2c0.4,0,0.7,0.1,0.9,0.2
								s0.4,0.4,0.5,0.7c0.4-0.6,0.9-0.9,1.6-0.9c0.5,0,0.9,0.1,1.2,0.4c0.3,0.3,0.4,0.7,0.4,1.3v3.6h-0.9v-3.3c0-0.4,0-0.6-0.1-0.8
								c-0.1-0.2-0.2-0.3-0.3-0.4s-0.3-0.1-0.5-0.1c-0.4,0-0.7,0.1-0.9,0.4c-0.2,0.2-0.4,0.6-0.4,1.2v3h-0.9v-3.4
								c0-0.4-0.1-0.7-0.2-0.9S-8,361-8.3,361c-0.2,0-0.5,0.1-0.7,0.2s-0.4,0.3-0.5,0.6s-0.1,0.6-0.1,1.1v2.7H-10.5z"/>
							<path class="st10" d="M0.3,365.7l0.4-2.1h-0.8v-0.7h1l0.4-1.8h-1.3v-0.7h1.5l0.4-2.1h0.7l-0.4,2.1h1.5l0.4-2.1h0.7l-0.4,2.1
								h0.8v0.7h-1l-0.4,1.8h1.4v0.7H3.7l-0.4,2.1H2.6l0.4-2.1H1.5L1,365.7H0.3z M1.6,362.9h1.5l0.4-1.8H2L1.6,362.9z"/>
							<path class="st10" d="M5.7,362c0-0.8,0.1-1.5,0.3-2c0.2-0.5,0.4-0.9,0.8-1.2s0.8-0.4,1.3-0.4c0.4,0,0.7,0.1,1,0.2
								c0.3,0.2,0.5,0.4,0.7,0.7c0.2,0.3,0.3,0.6,0.4,1.1c0.1,0.4,0.2,1,0.2,1.7c0,0.8-0.1,1.5-0.3,2c-0.2,0.5-0.4,0.9-0.8,1.2
								c-0.3,0.3-0.8,0.4-1.3,0.4c-0.7,0-1.2-0.2-1.6-0.7C5.9,364.3,5.7,363.4,5.7,362z M6.6,362c0,1.2,0.1,2,0.4,2.3
								c0.3,0.4,0.6,0.6,1,0.6c0.4,0,0.7-0.2,1-0.6s0.4-1.2,0.4-2.3c0-1.2-0.1-2-0.4-2.3s-0.6-0.6-1-0.6c-0.4,0-0.7,0.2-1,0.5
								C6.8,360,6.6,360.9,6.6,362z"/>
							<path class="st10" d="M11.2,362c0-0.8,0.1-1.5,0.3-2c0.2-0.5,0.4-0.9,0.8-1.2s0.8-0.4,1.3-0.4c0.4,0,0.7,0.1,1,0.2
								c0.3,0.2,0.5,0.4,0.7,0.7c0.2,0.3,0.3,0.6,0.4,1.1c0.1,0.4,0.2,1,0.2,1.7c0,0.8-0.1,1.5-0.3,2c-0.2,0.5-0.4,0.9-0.8,1.2
								c-0.3,0.3-0.8,0.4-1.3,0.4c-0.7,0-1.2-0.2-1.6-0.7C11.4,364.3,11.2,363.4,11.2,362z M12.1,362c0,1.2,0.1,2,0.4,2.3
								c0.3,0.4,0.6,0.6,1,0.6s0.7-0.2,1-0.6s0.4-1.2,0.4-2.3c0-1.2-0.1-2-0.4-2.3s-0.6-0.6-1-0.6c-0.4,0-0.7,0.2-1,0.5
								C12.3,360,12.1,360.9,12.1,362z"/>
							<path class="st10" d="M21.3,360.2l-0.9,0.1c-0.1-0.3-0.2-0.6-0.3-0.8c-0.2-0.3-0.5-0.4-0.9-0.4c-0.3,0-0.5,0.1-0.7,0.2
								c-0.3,0.2-0.5,0.5-0.7,0.9s-0.2,0.9-0.2,1.7c0.2-0.3,0.5-0.6,0.8-0.7s0.6-0.2,1-0.2c0.6,0,1.1,0.2,1.5,0.6
								c0.4,0.4,0.6,1,0.6,1.7c0,0.4-0.1,0.9-0.3,1.3c-0.2,0.4-0.5,0.7-0.8,0.9s-0.7,0.3-1.2,0.3c-0.7,0-1.3-0.3-1.8-0.8
								c-0.5-0.5-0.7-1.4-0.7-2.7c0-1.4,0.3-2.4,0.8-3c0.4-0.5,1-0.8,1.8-0.8c0.6,0,1,0.2,1.4,0.5S21.2,359.6,21.3,360.2z
								 M17.7,363.2c0,0.3,0.1,0.6,0.2,0.9s0.3,0.5,0.5,0.6c0.2,0.1,0.5,0.2,0.7,0.2c0.4,0,0.7-0.1,1-0.4s0.4-0.7,0.4-1.2
								c0-0.5-0.1-0.9-0.4-1.2c-0.3-0.3-0.6-0.4-1-0.4c-0.4,0-0.7,0.1-1,0.4C17.8,362.4,17.7,362.8,17.7,363.2z"/>
						</g>
						<g class="st9">
							<path class="st10" d="M112,369.7c-1.1,0-2-0.2-2.7-0.7c-0.7-0.5-1.1-1.2-1.2-2.1l2,0c0.1,0.4,0.3,0.8,0.7,1
								c0.3,0.2,0.8,0.3,1.3,0.3c0.3,0,0.6-0.1,0.8-0.2c0.2-0.1,0.4-0.2,0.6-0.4s0.2-0.4,0.2-0.6c0-0.3-0.1-0.6-0.3-0.8
								c-0.2-0.2-0.6-0.3-1-0.4l-1.5-0.3c-0.7-0.1-1.3-0.4-1.7-0.9c-0.4-0.4-0.7-1-0.7-1.7c0-0.6,0.2-1.1,0.5-1.5
								c0.3-0.4,0.8-0.8,1.3-1s1.2-0.4,1.9-0.4c0.7,0,1.3,0.1,1.8,0.4c0.5,0.3,0.9,0.6,1.2,1s0.4,0.9,0.4,1.4l-1.9,0
								c-0.1-0.4-0.2-0.7-0.4-1s-0.6-0.4-1.1-0.4c-0.3,0-0.5,0-0.7,0.1c-0.2,0.1-0.4,0.1-0.5,0.2c-0.1,0.1-0.3,0.2-0.3,0.4
								c-0.1,0.1-0.1,0.3-0.1,0.5c0,0.3,0.1,0.5,0.3,0.6s0.5,0.3,1,0.4l1.5,0.4c0.9,0.2,1.5,0.6,1.8,1c0.4,0.5,0.6,1.1,0.6,1.8
								c0,0.5-0.1,1-0.4,1.4c-0.3,0.4-0.7,0.7-1.3,0.9C113.4,369.6,112.7,369.7,112,369.7z M111.2,370.8v-1.7h1.6v1.7H111.2z
								 M111.2,360.5v-1.7h1.6v1.7H111.2z"/>
							<path class="st10" d="M116.9,369.6v-0.9v-0.5c0-0.5,0.1-0.9,0.3-1.2s0.4-0.7,0.7-0.9c0.3-0.3,0.6-0.5,1-0.7
								c0.3-0.2,0.7-0.4,1-0.6c0.4-0.2,0.7-0.3,1-0.5c0.3-0.2,0.5-0.4,0.7-0.6s0.3-0.5,0.3-0.8c0-0.4-0.1-0.7-0.4-0.9
								c-0.3-0.2-0.6-0.4-1.1-0.4c-0.5,0-0.9,0.1-1.2,0.4c-0.3,0.3-0.5,0.7-0.6,1.2h-1.8c0-0.6,0.1-1.1,0.4-1.6
								c0.3-0.5,0.7-0.9,1.2-1.2c0.5-0.3,1.2-0.4,2-0.4c0.7,0,1.3,0.1,1.8,0.4c0.5,0.2,0.9,0.6,1.2,1s0.4,0.9,0.4,1.5
								c0,0.5-0.1,0.9-0.3,1.2c-0.2,0.3-0.4,0.6-0.7,0.9c-0.3,0.2-0.6,0.5-0.9,0.6c-0.3,0.2-0.7,0.4-1,0.5c-0.3,0.2-0.7,0.3-0.9,0.5
								c-0.3,0.2-0.5,0.3-0.7,0.5c-0.2,0.2-0.3,0.4-0.3,0.7v0.1h4.8v1.6H116.9z"/>
							<path class="st10" d="M128.9,369.7c-0.6,0-1.2-0.1-1.7-0.3c-0.5-0.2-1-0.5-1.4-0.8c-0.4-0.3-0.7-0.7-0.9-1.1l1.5-0.9
								c0.2,0.3,0.4,0.6,0.6,0.8c0.2,0.2,0.5,0.4,0.7,0.6c0.3,0.1,0.6,0.2,1,0.2c0.6,0,1-0.1,1.4-0.4c0.3-0.3,0.5-0.7,0.5-1.2
								c0-0.3-0.1-0.6-0.2-0.8c-0.2-0.2-0.4-0.4-0.6-0.6s-0.6-0.2-0.9-0.2c-0.2,0-0.4,0-0.5,0s-0.3,0.1-0.5,0.2
								c-0.2,0.1-0.4,0.2-0.6,0.4c-0.1,0-0.1,0-0.1,0c0,0-0.1,0-0.1,0l-1.4-0.6l0.4-4.8h6l-0.1,1.6h-4.5l-0.2,2.3
								c0.3-0.2,0.7-0.3,1-0.4c0.3-0.1,0.7-0.1,1-0.1c0.6,0,1.2,0.1,1.7,0.4s0.9,0.6,1.2,1s0.4,1,0.4,1.7c0,0.7-0.1,1.2-0.4,1.7
								c-0.3,0.5-0.7,0.9-1.3,1.1C130.3,369.6,129.6,369.7,128.9,369.7z"/>
							<path class="st10" d="M137.5,369.7c-0.8,0-1.5-0.2-2.1-0.6c-0.6-0.4-1-0.9-1.3-1.6c-0.3-0.7-0.5-1.5-0.5-2.5
								c0-1,0.2-1.9,0.5-2.7c0.3-0.7,0.8-1.3,1.4-1.7c0.6-0.4,1.3-0.6,2.1-0.6c0.6,0,1.1,0.1,1.6,0.3c0.5,0.2,0.9,0.5,1.2,0.9
								c0.3,0.4,0.5,0.9,0.5,1.5h-1.7c-0.1-0.4-0.3-0.7-0.6-0.9s-0.6-0.3-1-0.3c-0.5,0-0.8,0.1-1.1,0.4c-0.3,0.3-0.5,0.6-0.6,1.1
								c-0.1,0.5-0.2,1-0.1,1.6c0.1-0.2,0.3-0.4,0.5-0.5c0.2-0.1,0.5-0.3,0.7-0.3c0.3-0.1,0.6-0.1,0.9-0.1c0.6,0,1.2,0.1,1.7,0.4
								c0.5,0.2,0.8,0.6,1.1,1c0.3,0.4,0.4,0.9,0.4,1.5c0,0.6-0.2,1.2-0.5,1.6c-0.3,0.5-0.7,0.9-1.3,1.1
								C138.8,369.6,138.2,369.7,137.5,369.7z M137.4,368.2c0.3,0,0.6-0.1,0.8-0.2c0.2-0.1,0.4-0.3,0.6-0.6s0.2-0.5,0.2-0.9
								c0-0.3-0.1-0.6-0.2-0.9c-0.1-0.2-0.3-0.4-0.6-0.5c-0.2-0.1-0.5-0.2-0.8-0.2c-0.3,0-0.5,0.1-0.8,0.2s-0.5,0.3-0.6,0.5
								c-0.2,0.2-0.2,0.4-0.2,0.6c0,0.4,0.1,0.8,0.2,1.1c0.1,0.3,0.3,0.5,0.6,0.7C136.8,368.2,137.1,368.2,137.4,368.2z"/>
							<path class="st10" d="M145.9,369.7c-0.8,0-1.5-0.2-2.1-0.6c-0.6-0.4-1-0.9-1.3-1.6c-0.3-0.7-0.5-1.5-0.5-2.5
								c0-1,0.2-1.9,0.5-2.7c0.3-0.7,0.8-1.3,1.4-1.7c0.6-0.4,1.3-0.6,2.1-0.6c0.6,0,1.1,0.1,1.6,0.3c0.5,0.2,0.9,0.5,1.2,0.9
								c0.3,0.4,0.5,0.9,0.5,1.5h-1.7c-0.1-0.4-0.3-0.7-0.6-0.9c-0.3-0.2-0.6-0.3-1-0.3c-0.5,0-0.8,0.1-1.1,0.4
								c-0.3,0.3-0.5,0.6-0.6,1.1c-0.1,0.5-0.2,1-0.1,1.6c0.1-0.2,0.3-0.4,0.5-0.5c0.2-0.1,0.5-0.3,0.7-0.3c0.3-0.1,0.6-0.1,0.9-0.1
								c0.6,0,1.2,0.1,1.7,0.4c0.5,0.2,0.8,0.6,1.1,1s0.4,0.9,0.4,1.5c0,0.6-0.2,1.2-0.5,1.6c-0.3,0.5-0.7,0.9-1.3,1.1
								S146.6,369.7,145.9,369.7z M145.8,368.2c0.3,0,0.6-0.1,0.8-0.2s0.4-0.3,0.6-0.6c0.1-0.3,0.2-0.5,0.2-0.9
								c0-0.3-0.1-0.6-0.2-0.9c-0.1-0.2-0.3-0.4-0.6-0.5c-0.2-0.1-0.5-0.2-0.8-0.2c-0.3,0-0.5,0.1-0.8,0.2c-0.2,0.1-0.5,0.3-0.6,0.5
								c-0.2,0.2-0.2,0.4-0.2,0.6c0,0.4,0.1,0.8,0.2,1.1c0.1,0.3,0.3,0.5,0.6,0.7C145.2,368.2,145.5,368.2,145.8,368.2z"/>
						</g>
					</g>
				</g>
				<g>
					<g transform="translate(14.926 448.556)">
						<g class="st28">
							<path id="z_00000012451700138096005930000002015595908314441380_" class="st7" d="M-48-55h194c2.8,0,5,2.2,5,5v30
								c0,2.8-2.2,5-5,5H-48c-2.8,0-5-2.2-5-5v-30C-53-52.8-50.8-55-48-55z"/>
						</g>
						<g>
							<path id="z_00000050656378062965069260000017844604754149239742_" class="st8" d="M-48-55h194c2.8,0,5,2.2,5,5v30
								c0,2.8-2.2,5-5,5H-48c-2.8,0-5-2.2-5-5v-30C-53-52.8-50.8-55-48-55z"/>
						</g>
					</g>
					<g>
						<g class="st9">
							<path class="st10" d="M-21.1,413.6v-7.2h0.9v7.2H-21.1z"/>
							<path class="st10" d="M-16.8,412.8l0.1,0.8c-0.2,0.1-0.5,0.1-0.7,0.1c-0.3,0-0.6-0.1-0.7-0.2s-0.3-0.2-0.4-0.4
								c-0.1-0.2-0.1-0.5-0.1-1v-3h-0.6v-0.7h0.6v-1.3l0.9-0.5v1.8h0.9v0.7h-0.9v3c0,0.3,0,0.4,0,0.5s0.1,0.1,0.2,0.2
								s0.2,0.1,0.3,0.1C-17.1,412.8-16.9,412.8-16.8,412.8z"/>
							<path class="st10" d="M-12.4,411.9l0.9,0.1c-0.1,0.5-0.4,0.9-0.8,1.2s-0.9,0.4-1.5,0.4c-0.8,0-1.4-0.2-1.8-0.7
								c-0.4-0.5-0.7-1.1-0.7-2c0-0.9,0.2-1.5,0.7-2c0.4-0.5,1-0.7,1.7-0.7c0.7,0,1.3,0.2,1.7,0.7s0.7,1.1,0.7,2c0,0.1,0,0.1,0,0.2
								h-3.9c0,0.6,0.2,1,0.5,1.3s0.7,0.5,1.1,0.5c0.3,0,0.6-0.1,0.8-0.3S-12.6,412.3-12.4,411.9z M-15.3,410.5h2.9
								c0-0.4-0.1-0.8-0.3-1c-0.3-0.3-0.6-0.5-1.1-0.5c-0.4,0-0.7,0.1-1,0.4S-15.3,410-15.3,410.5z"/>
							<path class="st10" d="M-10.5,413.6v-5.2h0.8v0.7c0.2-0.3,0.4-0.5,0.6-0.6c0.3-0.2,0.6-0.2,0.9-0.2c0.4,0,0.7,0.1,0.9,0.2
								s0.4,0.4,0.5,0.7c0.4-0.6,0.9-0.9,1.6-0.9c0.5,0,0.9,0.1,1.2,0.4c0.3,0.3,0.4,0.7,0.4,1.3v3.6h-0.9v-3.3c0-0.4,0-0.6-0.1-0.8
								c-0.1-0.2-0.2-0.3-0.3-0.4s-0.3-0.1-0.5-0.1c-0.4,0-0.7,0.1-0.9,0.4c-0.2,0.2-0.4,0.6-0.4,1.2v3h-0.9v-3.4
								c0-0.4-0.1-0.7-0.2-0.9S-8,409-8.3,409c-0.2,0-0.5,0.1-0.7,0.2s-0.4,0.3-0.5,0.6s-0.1,0.6-0.1,1.1v2.7H-10.5z"/>
							<path class="st10" d="M0.3,413.7l0.4-2.1h-0.8v-0.7h1l0.4-1.8h-1.3v-0.7h1.5l0.4-2.1h0.7l-0.4,2.1h1.5l0.4-2.1h0.7l-0.4,2.1
								h0.8v0.7h-1l-0.4,1.8h1.4v0.7H3.7l-0.4,2.1H2.6l0.4-2.1H1.5L1,413.7H0.3z M1.6,410.9h1.5l0.4-1.8H2L1.6,410.9z"/>
							<path class="st10" d="M5.7,410c0-0.8,0.1-1.5,0.3-2c0.2-0.5,0.4-0.9,0.8-1.2s0.8-0.4,1.3-0.4c0.4,0,0.7,0.1,1,0.2
								c0.3,0.2,0.5,0.4,0.7,0.7c0.2,0.3,0.3,0.6,0.4,1.1c0.1,0.4,0.2,1,0.2,1.7c0,0.8-0.1,1.5-0.3,2c-0.2,0.5-0.4,0.9-0.8,1.2
								c-0.3,0.3-0.8,0.4-1.3,0.4c-0.7,0-1.2-0.2-1.6-0.7C5.9,412.3,5.7,411.4,5.7,410z M6.6,410c0,1.2,0.1,2,0.4,2.3
								c0.3,0.4,0.6,0.6,1,0.6c0.4,0,0.7-0.2,1-0.6s0.4-1.2,0.4-2.3c0-1.2-0.1-2-0.4-2.3s-0.6-0.6-1-0.6c-0.4,0-0.7,0.2-1,0.5
								C6.8,408,6.6,408.9,6.6,410z"/>
							<path class="st10" d="M11.2,410c0-0.8,0.1-1.5,0.3-2c0.2-0.5,0.4-0.9,0.8-1.2s0.8-0.4,1.3-0.4c0.4,0,0.7,0.1,1,0.2
								c0.3,0.2,0.5,0.4,0.7,0.7c0.2,0.3,0.3,0.6,0.4,1.1c0.1,0.4,0.2,1,0.2,1.7c0,0.8-0.1,1.5-0.3,2c-0.2,0.5-0.4,0.9-0.8,1.2
								c-0.3,0.3-0.8,0.4-1.3,0.4c-0.7,0-1.2-0.2-1.6-0.7C11.4,412.3,11.2,411.4,11.2,410z M12.1,410c0,1.2,0.1,2,0.4,2.3
								c0.3,0.4,0.6,0.6,1,0.6s0.7-0.2,1-0.6s0.4-1.2,0.4-2.3c0-1.2-0.1-2-0.4-2.3s-0.6-0.6-1-0.6c-0.4,0-0.7,0.2-1,0.5
								C12.3,408,12.1,408.9,12.1,410z"/>
							<path class="st10" d="M20,413.6h-0.9V408c-0.2,0.2-0.5,0.4-0.8,0.6s-0.7,0.4-0.9,0.5v-0.8c0.5-0.2,0.9-0.5,1.3-0.8
								s0.6-0.6,0.8-1H20V413.6z"/>
						</g>
						<g class="st9">
							<path class="st10" d="M115,417.7c-1.1,0-2-0.2-2.7-0.7c-0.7-0.5-1.1-1.2-1.2-2.1l2,0c0.1,0.4,0.3,0.8,0.7,1
								c0.3,0.2,0.8,0.3,1.3,0.3c0.3,0,0.6-0.1,0.8-0.2c0.2-0.1,0.4-0.2,0.6-0.4s0.2-0.4,0.2-0.6c0-0.3-0.1-0.6-0.3-0.8
								c-0.2-0.2-0.6-0.3-1-0.4l-1.5-0.3c-0.7-0.1-1.3-0.4-1.7-0.9s-0.7-1-0.7-1.7c0-0.6,0.2-1.1,0.5-1.5c0.3-0.4,0.8-0.8,1.3-1
								s1.2-0.4,1.9-0.4c0.7,0,1.3,0.1,1.8,0.4c0.5,0.3,0.9,0.6,1.2,1s0.4,0.9,0.4,1.4l-1.9,0c-0.1-0.4-0.2-0.7-0.4-1
								s-0.6-0.4-1.1-0.4c-0.3,0-0.5,0-0.7,0.1c-0.2,0.1-0.4,0.1-0.5,0.2c-0.1,0.1-0.3,0.2-0.3,0.4s-0.1,0.3-0.1,0.5
								c0,0.3,0.1,0.5,0.3,0.6c0.2,0.2,0.5,0.3,1,0.4l1.5,0.4c0.9,0.2,1.5,0.6,1.8,1c0.4,0.5,0.6,1.1,0.6,1.8c0,0.5-0.1,1-0.4,1.4
								c-0.3,0.4-0.7,0.7-1.3,0.9C116.4,417.6,115.7,417.7,115,417.7z M114.1,418.8v-1.7h1.6v1.7H114.1z M114.2,408.5v-1.7h1.6v1.7
								H114.2z"/>
							<path class="st10" d="M124,417.6l0-2.1h-4.3v-1.6l4.3-5.8h1.9v5.7h1.4v1.6h-1.4v2.1H124z M121.5,413.9h2.6v-3.4L121.5,413.9z
								"/>
							<path class="st10" d="M129.8,417.6v-7h-1.7v-1.1c0.5,0,1-0.1,1.3-0.2s0.6-0.2,0.7-0.4c0.2-0.2,0.3-0.4,0.3-0.7h1.3v9.4H129.8
								z"/>
							<path class="st10" d="M137.1,417.7c-0.6,0-1.1-0.1-1.6-0.3c-0.5-0.2-0.9-0.5-1.2-1c-0.3-0.4-0.5-0.9-0.5-1.4h1.8
								c0.1,0.4,0.3,0.7,0.5,0.9c0.3,0.2,0.6,0.3,1,0.3c0.5,0,0.8-0.1,1.2-0.3c0.3-0.2,0.6-0.6,0.8-1c0.2-0.5,0.2-1.1,0.2-1.8
								c-0.1,0.2-0.3,0.4-0.5,0.6c-0.2,0.2-0.5,0.3-0.8,0.4c-0.3,0.1-0.6,0.1-1,0.1c-0.6,0-1.2-0.1-1.7-0.4s-0.9-0.6-1.2-1
								c-0.3-0.4-0.4-1-0.4-1.6c0-0.6,0.1-1.2,0.4-1.6c0.3-0.5,0.7-0.9,1.2-1.1c0.5-0.3,1.1-0.4,1.9-0.4c0.8,0,1.5,0.2,2.1,0.6
								c0.6,0.4,1,0.9,1.3,1.6c0.3,0.7,0.5,1.5,0.5,2.5c0,1.1-0.2,2.1-0.5,2.8c-0.3,0.7-0.8,1.3-1.4,1.7
								C138.6,417.5,137.9,417.7,137.1,417.7z M137.2,412.7c0.3,0,0.5-0.1,0.8-0.2c0.2-0.1,0.5-0.3,0.6-0.5c0.2-0.2,0.2-0.4,0.2-0.6
								c0-0.4-0.1-0.8-0.2-1.1c-0.1-0.3-0.3-0.5-0.6-0.7c-0.2-0.2-0.5-0.2-0.9-0.2c-0.3,0-0.6,0.1-0.8,0.2s-0.4,0.3-0.6,0.6
								c-0.1,0.3-0.2,0.5-0.2,0.9c0,0.5,0.1,0.9,0.4,1.1C136.4,412.5,136.8,412.7,137.2,412.7z"/>
							<path class="st10" d="M145.5,417.7c-0.6,0-1.1-0.1-1.6-0.3c-0.5-0.2-0.9-0.5-1.2-1c-0.3-0.4-0.5-0.9-0.5-1.4h1.8
								c0.1,0.4,0.3,0.7,0.5,0.9c0.3,0.2,0.6,0.3,1,0.3c0.5,0,0.8-0.1,1.2-0.3c0.3-0.2,0.6-0.6,0.8-1c0.2-0.5,0.2-1.1,0.2-1.8
								c-0.1,0.2-0.3,0.4-0.5,0.6c-0.2,0.2-0.5,0.3-0.8,0.4c-0.3,0.1-0.6,0.1-1,0.1c-0.6,0-1.2-0.1-1.7-0.4s-0.9-0.6-1.2-1
								c-0.3-0.4-0.4-1-0.4-1.6c0-0.6,0.1-1.2,0.4-1.6c0.3-0.5,0.7-0.9,1.2-1.1c0.5-0.3,1.1-0.4,1.9-0.4c0.8,0,1.5,0.2,2.1,0.6
								c0.6,0.4,1,0.9,1.3,1.6c0.3,0.7,0.5,1.5,0.5,2.5c0,1.1-0.2,2.1-0.5,2.8c-0.3,0.7-0.8,1.3-1.4,1.7
								C147,417.5,146.3,417.7,145.5,417.7z M145.7,412.7c0.3,0,0.5-0.1,0.8-0.2c0.2-0.1,0.5-0.3,0.6-0.5c0.2-0.2,0.2-0.4,0.2-0.6
								c0-0.4-0.1-0.8-0.2-1.1c-0.1-0.3-0.3-0.5-0.6-0.7c-0.2-0.2-0.5-0.2-0.9-0.2c-0.3,0-0.6,0.1-0.8,0.2s-0.4,0.3-0.6,0.6
								c-0.1,0.3-0.2,0.5-0.2,0.9c0,0.5,0.1,0.9,0.4,1.1C144.8,412.5,145.2,412.7,145.7,412.7z"/>
						</g>
					</g>
				</g>
			</g>
			<defs>
				
					<filter id="Adobe_OpacityMaskFilter_00000165219918785363737560000002759685019528812734_" filterUnits="userSpaceOnUse" x="-53" y="-55" width="233" height="114">
					<feColorMatrix  type="matrix" values="1 0 0 0 0  0 1 0 0 0  0 0 1 0 0  0 0 0 1 0"/>
				</filter>
			</defs>
			
				<mask maskUnits="userSpaceOnUse" x="-53" y="-55" width="233" height="114" id="l_00000060014973294160352570000012120880128026779790_">
				<g style="filter:url(#Adobe_OpacityMaskFilter_00000165219918785363737560000002759685019528812734_);">
					<path id="k_00000130643101929488296700000006368241813021967787_" class="st20" d="M40.6-55h-74.4C-44.9-55-53-47.4-53-37.6
						v422.4c0,12.9,12.5,24.3,26.6,24.3H153c13.6,0,26.6-11.5,26.6-24.3V-36.4c0-11.8-8.8-18.5-19.2-18.6H84.8
						c-0.3,0-5.5,2.2-7.7,7.6c-2.2,5.4-6.6,9.7-11.4,9.7h-5.6c-2.3,0-8.3-2.2-11.4-9.7C45.6-54.9,40.9-55,40.6-55z"/>
				</g>
			</mask>
			<path class="st30" d="M-53-55h233V59H-53V-55z"/>
			<defs>
				
					<filter id="Adobe_OpacityMaskFilter_00000121979043821639228210000014746404569210848952_" filterUnits="userSpaceOnUse" x="-55.6" y="8.1" width="259" height="111">
					<feColorMatrix  type="matrix" values="1 0 0 0 0  0 1 0 0 0  0 0 1 0 0  0 0 0 1 0"/>
				</filter>
			</defs>
			
				<mask maskUnits="userSpaceOnUse" x="-55.6" y="8.1" width="259" height="111" id="l_00000040538538105823556380000014324774730606646182_">
				<g style="filter:url(#Adobe_OpacityMaskFilter_00000121979043821639228210000014746404569210848952_);">
					<path id="k_00000142898166374709401990000007783935274154364833_" class="st20" d="M40.6-55h-74.4C-44.9-55-53-47.4-53-37.6
						v422.4c0,12.9,12.5,24.3,26.6,24.3H153c13.6,0,26.6-11.5,26.6-24.3V-36.4c0-11.8-8.8-18.5-19.2-18.6H84.8
						c-0.3,0-5.5,2.2-7.7,7.6c-2.2,5.4-6.6,9.7-11.4,9.7h-5.6c-2.3,0-8.3-2.2-11.4-9.7C45.6-54.9,40.9-55,40.6-55z"/>
				</g>
			</mask>
			<g class="st32">
				<g transform="translate(14.926 80.556)">
					<g class="st33">
						<path id="B_00000183236108067518238270000014150116634030488765_" class="st7" d="M-48-55h194c2.8,0,5,2.2,5,5v46
							c0,2.8-2.2,5-5,5H-48c-2.8,0-5-2.2-5-5v-46C-53-52.8-50.8-55-48-55z"/>
					</g>
					<g>
						<path id="B_00000121972501987089307020000014529231499642498954_" class="st8" d="M-48-55h194c2.8,0,5,2.2,5,5v46
							c0,2.8-2.2,5-5,5H-48c-2.8,0-5-2.2-5-5v-46C-53-52.8-50.8-55-48-55z"/>
					</g>
				</g>
				<g class="st9">
					<path class="st10" d="M-19.3,53.6v-6.3h-2.4v-0.8h5.7v0.8h-2.4v6.3H-19.3z"/>
					<path class="st10" d="M-16.6,51c0-1,0.3-1.7,0.8-2.1c0.4-0.4,1-0.6,1.6-0.6c0.7,0,1.3,0.2,1.7,0.7c0.5,0.5,0.7,1.1,0.7,1.9
						c0,0.7-0.1,1.2-0.3,1.6c-0.2,0.4-0.5,0.7-0.9,0.9s-0.8,0.3-1.3,0.3c-0.7,0-1.3-0.2-1.8-0.7C-16.4,52.5-16.6,51.8-16.6,51z
						 M-15.7,51c0,0.7,0.1,1.2,0.4,1.5c0.3,0.3,0.7,0.5,1.1,0.5c0.4,0,0.8-0.2,1.1-0.5s0.4-0.8,0.4-1.5c0-0.6-0.1-1.1-0.4-1.5
						c-0.3-0.3-0.7-0.5-1.1-0.5c-0.4,0-0.8,0.2-1.1,0.5S-15.7,50.3-15.7,51z"/>
					<path class="st10" d="M-8.8,52.8l0.1,0.8c-0.2,0.1-0.5,0.1-0.7,0.1c-0.3,0-0.6-0.1-0.7-0.2s-0.3-0.2-0.4-0.4
						c-0.1-0.2-0.1-0.5-0.1-1v-3h-0.6v-0.7h0.6v-1.3l0.9-0.5v1.8h0.9v0.7h-0.9v3c0,0.3,0,0.4,0,0.5s0.1,0.1,0.2,0.2s0.2,0.1,0.3,0.1
						C-9.1,52.8-9,52.8-8.8,52.8z"/>
					<path class="st10" d="M-4.7,52.9c-0.3,0.3-0.6,0.5-0.9,0.6s-0.6,0.2-1,0.2c-0.6,0-1-0.1-1.3-0.4c-0.3-0.3-0.5-0.6-0.5-1.1
						c0-0.3,0.1-0.5,0.2-0.7c0.1-0.2,0.3-0.4,0.5-0.5s0.4-0.2,0.6-0.3c0.2,0,0.4-0.1,0.8-0.1c0.7-0.1,1.2-0.2,1.6-0.3
						c0-0.1,0-0.2,0-0.2c0-0.4-0.1-0.6-0.2-0.8C-5.2,49.1-5.5,49-6,49c-0.4,0-0.7,0.1-0.9,0.2c-0.2,0.1-0.3,0.4-0.4,0.8l-0.9-0.1
						c0.1-0.4,0.2-0.7,0.4-0.9c0.2-0.2,0.4-0.4,0.8-0.5c0.3-0.1,0.7-0.2,1.2-0.2c0.4,0,0.8,0.1,1.1,0.2s0.5,0.2,0.6,0.4
						C-4,49-4,49.2-3.9,49.4c0,0.1,0,0.4,0,0.8v1.2c0,0.8,0,1.3,0.1,1.5c0,0.2,0.1,0.4,0.2,0.6h-0.9C-4.6,53.4-4.6,53.2-4.7,52.9z
						 M-4.7,51c-0.3,0.1-0.8,0.2-1.4,0.3c-0.4,0.1-0.6,0.1-0.8,0.2s-0.3,0.2-0.3,0.3c-0.1,0.1-0.1,0.3-0.1,0.4
						c0,0.2,0.1,0.4,0.3,0.6S-6.7,53-6.4,53c0.3,0,0.6-0.1,0.9-0.2c0.3-0.1,0.5-0.4,0.6-0.6c0.1-0.2,0.1-0.5,0.1-0.9V51z"/>
					<path class="st10" d="M-2.6,53.6v-7.2h0.9v7.2H-2.6z"/>
					<path class="st10" d="M2.3,55.5v-7.2h0.8V49c0.2-0.3,0.4-0.5,0.6-0.6c0.2-0.1,0.5-0.2,0.9-0.2c0.4,0,0.8,0.1,1.2,0.3
						s0.6,0.5,0.8,1c0.2,0.4,0.3,0.9,0.3,1.4c0,0.5-0.1,1-0.3,1.4c-0.2,0.4-0.5,0.8-0.8,1c-0.4,0.2-0.7,0.3-1.1,0.3
						c-0.3,0-0.6-0.1-0.8-0.2S3.3,53.2,3.2,53v2.5H2.3z M3.1,51c0,0.7,0.1,1.2,0.4,1.5s0.6,0.5,1,0.5c0.4,0,0.7-0.2,1-0.5
						c0.3-0.3,0.4-0.8,0.4-1.5c0-0.7-0.1-1.2-0.4-1.5s-0.6-0.5-1-0.5c-0.4,0-0.7,0.2-1,0.5C3.2,49.8,3.1,50.3,3.1,51z"/>
					<path class="st10" d="M11.2,52.9c-0.3,0.3-0.6,0.5-0.9,0.6s-0.6,0.2-1,0.2c-0.6,0-1-0.1-1.3-0.4c-0.3-0.3-0.5-0.6-0.5-1.1
						c0-0.3,0.1-0.5,0.2-0.7c0.1-0.2,0.3-0.4,0.5-0.5c0.2-0.1,0.4-0.2,0.6-0.3c0.2,0,0.4-0.1,0.8-0.1c0.7-0.1,1.2-0.2,1.6-0.3
						c0-0.1,0-0.2,0-0.2c0-0.4-0.1-0.6-0.2-0.8c-0.2-0.2-0.6-0.3-1-0.3c-0.4,0-0.7,0.1-0.9,0.2c-0.2,0.1-0.3,0.4-0.4,0.8l-0.9-0.1
						C7.7,49.5,7.8,49.2,8,49c0.2-0.2,0.4-0.4,0.8-0.5c0.3-0.1,0.7-0.2,1.2-0.2c0.4,0,0.8,0.1,1.1,0.2s0.5,0.2,0.6,0.4
						c0.1,0.2,0.2,0.4,0.3,0.6c0,0.1,0,0.4,0,0.8v1.2c0,0.8,0,1.3,0.1,1.5c0,0.2,0.1,0.4,0.2,0.6h-0.9
						C11.3,53.4,11.2,53.2,11.2,52.9z M11.1,51c-0.3,0.1-0.8,0.2-1.4,0.3c-0.4,0.1-0.6,0.1-0.8,0.2s-0.3,0.2-0.3,0.3
						c-0.1,0.1-0.1,0.3-0.1,0.4c0,0.2,0.1,0.4,0.3,0.6S9.1,53,9.5,53c0.3,0,0.6-0.1,0.9-0.2c0.3-0.1,0.5-0.4,0.6-0.6
						c0.1-0.2,0.1-0.5,0.1-0.9V51z"/>
					<path class="st10" d="M13.2,55.6l-0.1-0.8c0.2,0.1,0.4,0.1,0.5,0.1c0.2,0,0.4,0,0.5-0.1s0.2-0.2,0.3-0.3
						c0.1-0.1,0.1-0.3,0.3-0.7c0,0,0-0.1,0.1-0.2l-2-5.2h0.9l1.1,3c0.1,0.4,0.3,0.8,0.4,1.2c0.1-0.4,0.2-0.8,0.4-1.2l1.1-3h0.9
						l-2,5.3c-0.2,0.6-0.4,1-0.5,1.2c-0.2,0.3-0.3,0.5-0.5,0.6c-0.2,0.1-0.4,0.2-0.7,0.2C13.6,55.7,13.4,55.6,13.2,55.6z"/>
					<path class="st10" d="M18.2,53.6v-5.2H19v0.7c0.2-0.3,0.4-0.5,0.6-0.6c0.3-0.2,0.6-0.2,0.9-0.2c0.4,0,0.7,0.1,0.9,0.2
						s0.4,0.4,0.5,0.7c0.4-0.6,0.9-0.9,1.6-0.9c0.5,0,0.9,0.1,1.2,0.4c0.3,0.3,0.4,0.7,0.4,1.3v3.6h-0.9v-3.3c0-0.4,0-0.6-0.1-0.8
						c-0.1-0.2-0.2-0.3-0.3-0.4S23.6,49,23.4,49c-0.4,0-0.7,0.1-0.9,0.4c-0.2,0.2-0.4,0.6-0.4,1.2v3h-0.9v-3.4
						c0-0.4-0.1-0.7-0.2-0.9S20.7,49,20.4,49c-0.2,0-0.5,0.1-0.7,0.2s-0.4,0.3-0.5,0.6s-0.1,0.6-0.1,1.1v2.7H18.2z"/>
					<path class="st10" d="M30,51.9l0.9,0.1c-0.1,0.5-0.4,0.9-0.8,1.2s-0.9,0.4-1.5,0.4c-0.8,0-1.4-0.2-1.8-0.7
						c-0.4-0.5-0.7-1.1-0.7-2c0-0.9,0.2-1.5,0.7-2s1-0.7,1.7-0.7c0.7,0,1.3,0.2,1.7,0.7s0.7,1.1,0.7,2c0,0.1,0,0.1,0,0.2h-3.9
						c0,0.6,0.2,1,0.5,1.3s0.7,0.5,1.1,0.5c0.3,0,0.6-0.1,0.8-0.3S29.9,52.3,30,51.9z M27.1,50.5H30c0-0.4-0.1-0.8-0.3-1
						c-0.3-0.3-0.6-0.5-1.1-0.5c-0.4,0-0.7,0.1-1,0.4S27.2,50,27.1,50.5z"/>
					<path class="st10" d="M32,53.6v-5.2h0.8v0.7c0.4-0.6,0.9-0.9,1.7-0.9c0.3,0,0.6,0.1,0.9,0.2c0.3,0.1,0.5,0.3,0.6,0.4
						s0.2,0.4,0.3,0.6c0,0.2,0,0.4,0,0.9v3.2h-0.9v-3.2c0-0.4,0-0.6-0.1-0.8c-0.1-0.2-0.2-0.3-0.4-0.4c-0.2-0.1-0.4-0.2-0.6-0.2
						c-0.4,0-0.7,0.1-1,0.4s-0.4,0.7-0.4,1.4v2.8H32z"/>
					<path class="st10" d="M39.4,52.8l0.1,0.8c-0.2,0.1-0.5,0.1-0.7,0.1c-0.3,0-0.6-0.1-0.7-0.2s-0.3-0.2-0.4-0.4
						c-0.1-0.2-0.1-0.5-0.1-1v-3H37v-0.7h0.6v-1.3l0.9-0.5v1.8h0.9v0.7h-0.9v3c0,0.3,0,0.4,0,0.5s0.1,0.1,0.2,0.2s0.2,0.1,0.3,0.1
						C39.1,52.8,39.2,52.8,39.4,52.8z"/>
				</g>
				<g class="st9">
					<path class="st34" d="M92.3,60.8c-1.7,0-3.1-0.3-4.2-1c-1.1-0.7-1.7-1.8-1.9-3.2l3-0.1c0.2,0.7,0.5,1.2,1,1.5
						c0.5,0.3,1.2,0.5,2,0.5c0.5,0,0.9-0.1,1.3-0.2c0.4-0.2,0.7-0.4,0.9-0.6c0.2-0.3,0.3-0.6,0.3-0.9c0-0.5-0.2-0.9-0.5-1.2
						c-0.3-0.3-0.9-0.5-1.6-0.6l-2.4-0.5c-1.1-0.2-2-0.7-2.6-1.3c-0.7-0.7-1-1.5-1-2.6c0-0.9,0.2-1.7,0.7-2.4c0.5-0.7,1.2-1.2,2-1.5
						c0.9-0.4,1.8-0.5,2.9-0.5c1.1,0,2,0.2,2.8,0.6c0.8,0.4,1.4,0.9,1.8,1.6c0.4,0.7,0.6,1.4,0.6,2.2l-3,0c-0.1-0.6-0.3-1.1-0.6-1.5
						c-0.3-0.4-0.9-0.6-1.7-0.6c-0.4,0-0.8,0-1.1,0.1c-0.3,0.1-0.6,0.2-0.8,0.4c-0.2,0.2-0.4,0.3-0.5,0.6c-0.1,0.2-0.2,0.5-0.2,0.7
						c0,0.4,0.1,0.8,0.4,1c0.3,0.2,0.8,0.5,1.6,0.7l2.3,0.6c1.3,0.3,2.3,0.8,2.8,1.6s0.9,1.7,0.9,2.8c0,0.8-0.2,1.6-0.7,2.2
						s-1.1,1.1-1.9,1.4C94.4,60.6,93.5,60.8,92.3,60.8z M91,62.5v-2.6h2.5v2.6H91z M91.1,46.6V44h2.5v2.6H91.1z"/>
					<path class="st34" d="M104.9,60.8c-0.9,0-1.7-0.2-2.5-0.5c-0.8-0.3-1.4-0.8-1.9-1.5c-0.5-0.6-0.8-1.4-0.8-2.2h2.8
						c0.1,0.6,0.4,1,0.8,1.4c0.4,0.4,0.9,0.5,1.6,0.5c0.7,0,1.3-0.2,1.8-0.5c0.5-0.3,0.9-0.8,1.2-1.6c0.3-0.7,0.4-1.6,0.3-2.8
						c-0.2,0.4-0.4,0.7-0.8,0.9c-0.3,0.3-0.7,0.5-1.2,0.6c-0.4,0.1-0.9,0.2-1.5,0.2c-1,0-1.8-0.2-2.6-0.6c-0.8-0.4-1.4-0.9-1.8-1.6
						c-0.4-0.7-0.6-1.5-0.6-2.4c0-0.9,0.2-1.8,0.7-2.5c0.5-0.7,1.1-1.3,1.9-1.7s1.8-0.6,2.9-0.6c1.2,0,2.3,0.3,3.2,0.9
						c0.9,0.6,1.6,1.4,2,2.5c0.5,1.1,0.7,2.3,0.7,3.8c0,1.7-0.2,3.2-0.7,4.3c-0.5,1.1-1.2,2-2.1,2.6
						C107.3,60.5,106.2,60.8,104.9,60.8z M105.2,53c0.4,0,0.8-0.1,1.2-0.3s0.7-0.4,0.9-0.7c0.2-0.3,0.4-0.6,0.4-0.9
						c0-0.6-0.1-1.2-0.3-1.7c-0.2-0.5-0.5-0.8-0.9-1.1c-0.4-0.2-0.8-0.4-1.3-0.4c-0.5,0-0.9,0.1-1.2,0.3c-0.4,0.2-0.6,0.5-0.9,0.9
						c-0.2,0.4-0.3,0.8-0.3,1.3c0,0.8,0.2,1.3,0.7,1.8C103.9,52.8,104.5,53,105.2,53z"/>
					<path class="st34" d="M112.9,60.6v-1.4v-0.7c0-0.7,0.1-1.4,0.4-1.9c0.3-0.5,0.6-1,1.1-1.4c0.5-0.4,0.9-0.7,1.5-1
						s1.1-0.6,1.6-0.8c0.5-0.3,1-0.5,1.5-0.8c0.4-0.3,0.8-0.6,1.1-0.9s0.4-0.7,0.4-1.2c0-0.6-0.2-1.1-0.6-1.4
						c-0.4-0.4-1-0.5-1.7-0.5c-0.7,0-1.3,0.2-1.9,0.6c-0.5,0.4-0.8,1.1-0.9,1.9h-2.8c0-0.9,0.2-1.8,0.6-2.5s1-1.3,1.9-1.8
						s1.9-0.7,3.1-0.7c1.1,0,2,0.2,2.8,0.5c0.8,0.4,1.4,0.9,1.8,1.5s0.6,1.4,0.6,2.3c0,0.7-0.1,1.4-0.4,1.9c-0.3,0.5-0.6,1-1.1,1.4
						c-0.4,0.4-0.9,0.7-1.5,1c-0.5,0.3-1.1,0.5-1.6,0.8c-0.5,0.2-1,0.5-1.4,0.7s-0.8,0.5-1.1,0.8s-0.4,0.7-0.4,1.1v0.1h7.4v2.5
						H112.9z"/>
					<path class="st34" d="M130.8,60.8c-1.8,0-3.1-0.6-4.1-1.9c-1-1.3-1.5-3.1-1.5-5.5c0-1.6,0.2-3,0.7-4.1c0.5-1.1,1.1-2,1.9-2.5
						c0.8-0.6,1.8-0.9,3-0.9c1.7,0,3.1,0.6,4.1,1.9c1,1.3,1.5,3.1,1.5,5.5c0,2.4-0.5,4.2-1.5,5.5C133.9,60.1,132.5,60.8,130.8,60.8z
						 M130.8,58.4c0.9,0,1.5-0.4,1.9-1.2c0.4-0.8,0.6-2.1,0.6-3.9c0-1.8-0.2-3.2-0.6-4s-1-1.2-1.9-1.2c-0.9,0-1.5,0.4-1.9,1.2
						s-0.6,2.1-0.6,4c0,1.8,0.2,3.1,0.6,3.9C129.3,58,129.9,58.4,130.8,58.4z"/>
					<path class="st34" d="M144.5,60.6l0-3.2h-6.7V55l6.6-8.9h2.9v8.8h2.2v2.5h-2.2v3.2H144.5z M140.6,54.9h4v-5.3L140.6,54.9z"/>
				</g>
			</g>
			<defs>
				
					<filter id="Adobe_OpacityMaskFilter_00000005258355128958671300000017371602178102177157_" filterUnits="userSpaceOnUse" x="-53" y="-55" width="96.8" height="56.5">
					<feColorMatrix  type="matrix" values="1 0 0 0 0  0 1 0 0 0  0 0 1 0 0  0 0 0 1 0"/>
				</filter>
			</defs>
			
				<mask maskUnits="userSpaceOnUse" x="-53" y="-55" width="96.8" height="56.5" id="l_00000008127251066465242660000003225772225993786294_">
				<g style="filter:url(#Adobe_OpacityMaskFilter_00000005258355128958671300000017371602178102177157_);">
					<path id="k_00000000935474498536794560000018215959573672403859_" class="st20" d="M40.6-55h-74.4C-44.9-55-53-47.4-53-37.6
						v422.4c0,12.9,12.5,24.3,26.6,24.3H153c13.6,0,26.6-11.5,26.6-24.3V-36.4c0-11.8-8.8-18.5-19.2-18.6H84.8
						c-0.3,0-5.5,2.2-7.7,7.6c-2.2,5.4-6.6,9.7-11.4,9.7h-5.6c-2.3,0-8.3-2.2-11.4-9.7C45.6-54.9,40.9-55,40.6-55z"/>
				</g>
			</mask>
			<g class="st36">
				<path class="st34" d="M-53-55"/>
				<g transform="translate(73.926 33.556)">
					<circle class="st20" cx="-40.9" cy="-51.8" r="1.9"/>
					<circle class="st20" cx="-36.4" cy="-47.4" r="1.9"/>
					<circle class="st20" cx="-32" cy="-42.9" r="1.9"/>
					<circle class="st20" cx="-45.4" cy="-47.4" r="1.9"/>
					<circle class="st37" cx="-40.9" cy="-42.9" r="1.9"/>
					<circle class="st37" cx="-36.4" cy="-38.4" r="1.9"/>
					<circle class="st20" cx="-49.8" cy="-42.9" r="1.9"/>
					<circle class="st37" cx="-45.4" cy="-38.4" r="1.9"/>
					<circle class="st38" cx="-40.9" cy="-34" r="1.9"/>
				</g>
			</g>
		</g>
	</g>
</g>
</svg>
