<?xml version="1.0" encoding="utf-8"?>
<!-- Generator: Adobe Illustrator 28.0.0, SVG Export Plug-In . SVG Version: 6.00 Build 0)  -->
<svg version="1.1" id="Layer_1" xmlns="http://www.w3.org/2000/svg" xmlns:xlink="http://www.w3.org/1999/xlink" x="0px" y="0px"
	 viewBox="0 0 565.5 499.4" style="enable-background:new 0 0 565.5 499.4;" xml:space="preserve">
<style type="text/css">
	.st0{fill-rule:evenodd;clip-rule:evenodd;}
	.st1{fill-rule:evenodd;clip-rule:evenodd;fill:#213648;}
	.st2{opacity:0.596;fill-rule:evenodd;clip-rule:evenodd;fill:url(#SVGID_1_);fill-opacity:0.65;enable-background:new    ;}
	
		.st3{opacity:0.75;fill-rule:evenodd;clip-rule:evenodd;fill:url(#SVGID_00000102533138189541916420000000757063186573713283_);enable-background:new    ;}
	
		.st4{opacity:0.75;fill-rule:evenodd;clip-rule:evenodd;fill:url(#SVGID_00000098937925958693292910000016078403562794880693_);enable-background:new    ;}
	.st5{fill-rule:evenodd;clip-rule:evenodd;fill:#2E423C;}
	.st6{fill-rule:evenodd;clip-rule:evenodd;fill:#36536B;}
	.st7{fill-rule:evenodd;clip-rule:evenodd;fill:#FBFCFE;}
	.st8{fill:#36536B;}
	.st9{font-family:'ArialMT';}
	.st10{font-size:13px;}
	.st11{font-family:'PublicSans-Bold';}
	.st12{opacity:0.25;fill-rule:evenodd;clip-rule:evenodd;fill:#BA4270;enable-background:new    ;}
	.st13{fill:none;stroke:#BA4270;stroke-width:3;}
	.st14{fill-rule:evenodd;clip-rule:evenodd;fill:#BA4270;}
	.st15{fill:#FBFCFE;}
	.st16{font-size:11px;}
	
		.st17{opacity:0.596;fill-rule:evenodd;clip-rule:evenodd;fill:url(#SVGID_00000007423891203104885310000008673771153871188671_);fill-opacity:0.65;enable-background:new    ;}
	
		.st18{opacity:0.75;fill-rule:evenodd;clip-rule:evenodd;fill:url(#SVGID_00000112628152350995314050000002082222256415867024_);enable-background:new    ;}
	
		.st19{opacity:0.75;fill-rule:evenodd;clip-rule:evenodd;fill:url(#SVGID_00000046328600746749708700000009730203962400041642_);enable-background:new    ;}
	.st20{fill-rule:evenodd;clip-rule:evenodd;fill:#EDF3F8;}
	.st21{filter:url(#Adobe_OpacityMaskFilter);}
	.st22{fill-rule:evenodd;clip-rule:evenodd;fill:#FFFFFF;}
	.st23{mask:url(#l_00000013173384492234512980000011133513449632452526_);}
	.st24{enable-background:new    ;}
	.st25{font-size:10px;}
	.st26{filter:url(#Adobe_OpacityMaskFilter_00000144336316288200242750000016948423027059021234_);}
	.st27{mask:url(#l_00000098195998686202064240000018015843886174634913_);fill-rule:evenodd;clip-rule:evenodd;fill:#36536B;}
	.st28{filter:url(#Adobe_OpacityMaskFilter_00000163037094256904886550000011746238265972043445_);}
	.st29{mask:url(#l_00000130642169822278340350000002558543077518594703_);}
	.st30{fill:#BA4270;}
	.st31{font-size:20px;}
	.st32{filter:url(#Adobe_OpacityMaskFilter_00000172430179362809468380000001345902810337601958_);}
	.st33{mask:url(#l_00000021813194607453282490000004785585626797599142_);}
	.st34{opacity:0.5;fill-rule:evenodd;clip-rule:evenodd;fill:#FFFFFF;enable-background:new    ;}
	.st35{opacity:0.25;fill-rule:evenodd;clip-rule:evenodd;fill:#FFFFFF;enable-background:new    ;}
</style>
<g>
	<g transform="translate(356 55)">
		<g>
			<path id="b" class="st0" d="M-17.2-54.4H174c18.3,0,33.2,14.2,33.2,31.8v435.3c0,17.6-14.9,31.8-33.2,31.8H-17.2
				c-18.3,0-33.2-14.2-33.2-31.8V-22.6C-50.4-40.2-35.6-54.4-17.2-54.4L-17.2-54.4z"/>
		</g>
		<g>
			<path id="b_00000111184334160308766220000012880689541120895625_" class="st1" d="M-17.2-54.4H174c18.3,0,33.2,14.2,33.2,31.8
				v435.3c0,17.6-14.9,31.8-33.2,31.8H-17.2c-18.3,0-33.2-14.2-33.2-31.8V-22.6C-50.4-40.2-35.6-54.4-17.2-54.4L-17.2-54.4z"/>
		</g>
	</g>
	
		<linearGradient id="SVGID_1_" gradientUnits="userSpaceOnUse" x1="2.2733" y1="666.7258" x2="2.2733" y2="665.7258" gradientTransform="matrix(242.642 0 0 -12.324 -117.269 8216.7285)">
		<stop  offset="0" style="stop-color:#454545"/>
		<stop  offset="0.2263" style="stop-color:#999999"/>
		<stop  offset="1" style="stop-color:#FFFFFF"/>
	</linearGradient>
	<path class="st2" d="M530.7,0H337.9c-9,0.5-17.3,4.7-24.9,12.3c4.9-4.3,13.6-10,25.1-10h192.4c11.5,0,20.2,5.7,25.1,10
		C548.1,4.7,539.8,0.5,530.7,0z"/>
	
		<linearGradient id="SVGID_00000104664505519915063120000009571265934317563819_" gradientUnits="userSpaceOnUse" x1="-1.0287" y1="671.3619" x2="-1.7216" y2="671.3619" gradientTransform="matrix(13.6522 0 0 -470.6551 577.1465 316228.75)">
		<stop  offset="0" style="stop-color:#FFFFFF;stop-opacity:0"/>
		<stop  offset="0.2222" style="stop-color:#BABABA"/>
		<stop  offset="0.5468" style="stop-color:#FFFFFF;stop-opacity:0"/>
		<stop  offset="1" style="stop-color:#FFFFFF;stop-opacity:0"/>
	</linearGradient>
	
		<path style="opacity:0.75;fill-rule:evenodd;clip-rule:evenodd;fill:url(#SVGID_00000104664505519915063120000009571265934317563819_);enable-background:new    ;" d="
		M558,462.7V35c0-11.5-4.2-15.7-6.7-18.4c-2.5-2.7-2.6-4.1,1-2.1c3.6,2.1,10.8,8,10.8,20.5v427.7c0,12.5-7.2,18.4-10.8,20.5
		c-3.6,2.1-3.5,0.7-1-2.1S558,474.1,558,462.7L558,462.7z"/>
	
		<linearGradient id="SVGID_00000021809637736166200600000007064746665044332962_" gradientUnits="userSpaceOnUse" x1="7.0287" y1="671.3619" x2="6.3346" y2="671.3619" gradientTransform="matrix(-13.6522 0 0 -470.6551 401.5245 316228.75)">
		<stop  offset="0" style="stop-color:#FFFFFF;stop-opacity:0"/>
		<stop  offset="0.2222" style="stop-color:#BABABA"/>
		<stop  offset="0.5468" style="stop-color:#FFFFFF;stop-opacity:0"/>
		<stop  offset="1" style="stop-color:#FFFFFF;stop-opacity:0"/>
	</linearGradient>
	
		<path style="opacity:0.75;fill-rule:evenodd;clip-rule:evenodd;fill:url(#SVGID_00000021809637736166200600000007064746665044332962_);enable-background:new    ;" d="
		M310.7,462.7V35c0-11.5,4.2-15.7,6.7-18.4c2.5-2.7,2.6-4.1-1-2.1c-3.6,2.1-10.8,8-10.8,20.5v427.7c0,12.5,7.2,18.4,10.8,20.5
		c3.6,2.1,3.5,0.7,1-2.1S310.7,474.1,310.7,462.7L310.7,462.7z"/>
	<g>
		<path class="st5" d="M305,101.6h1c1.1,0,2,0.9,2,2v60.4c0,1.1-0.9,2-2,2h-1c-1.1,0-2-0.9-2-2v-60.3
			C303,102.5,303.9,101.6,305,101.6L305,101.6z M562.5,154h1c1.1,0,2,0.9,2,2V199c0,1.1-0.9,2-2,2h-1c-1.1,0-2-0.9-2-2V156
			C560.5,154.9,561.4,154,562.5,154z"/>
	</g>
	<g transform="translate(371.074 67.444)">
		<g>
			<path id="f" class="st6" d="M40.6-55h-74.4C-44.9-55-53-47.4-53-37.6v422.4c0,12.9,12.5,24.3,26.6,24.3H153
				c13.6,0,26.6-11.5,26.6-24.3V-36.4c0-11.8-8.8-18.5-19.2-18.6H84.8c-0.3,0-5.5,2.2-7.7,7.6c-2.2,5.4-6.6,9.7-11.4,9.7h-5.6
				c-2.3,0-8.3-2.2-11.4-9.7C45.6-54.9,40.9-55,40.6-55z"/>
		</g>
	</g>
	<g>
		<g transform="translate(399 197)">
			<g>
				<path id="h" class="st0" d="M-48-55h166c2.8,0,5,2.2,5,5v181c0,2.8-2.2,5-5,5H-48c-2.8,0-5-2.2-5-5V-50C-53-52.8-50.8-55-48-55z
					"/>
			</g>
			<g>
				<path id="h_00000012457592324659184220000016769080138375528876_" class="st7" d="M-48-55h166c2.8,0,5,2.2,5,5v181
					c0,2.8-2.2,5-5,5H-48c-2.8,0-5-2.2-5-5V-50C-53-52.8-50.8-55-48-55z"/>
			</g>
		</g>
		<text transform="matrix(1 0 0 1 378.222 258)" class="st8 st9 st10">Payment of </text>
		<text transform="matrix(1 0 0 1 448.749 258)" class="st8 st11 st10">$9204</text>
		<text transform="matrix(1 0 0 1 490.7781 258)" class="st8 st9 st10"> </text>
		<text transform="matrix(1 0 0 1 383.736 276)" class="st8 st9 st10">is completed and </text>
		<text transform="matrix(1 0 0 1 364.676 294)" class="st8 st9 st10">processed successfully</text>
		<g transform="translate(458 233)">
			<circle class="st12" cx="-25" cy="-27" r="28"/>
			<path class="st13" d="M-34-25.3l4.6,4.6L-16.2-34"/>
		</g>
		<g transform="translate(422 373)">
			<path class="st14" d="M-38-55H63c8.3,0,15,6.7,15,15l0,0c0,8.3-6.7,15-15,15H-38c-8.3,0-15-6.7-15-15l0,0C-53-48.3-46.3-55-38-55
				z"/>
			<text transform="matrix(1 0 0 1 -7.274 -36)" class="st15 st11 st16">Dismiss</text>
		</g>
	</g>
	<g>
		<g transform="translate(53 55)">
			<g>
				<path id="j" class="st0" d="M-17.2-54.4H174c18.3,0,33.2,14.2,33.2,31.8v435.3c0,17.6-14.9,31.8-33.2,31.8H-17.2
					c-18.3,0-33.2-14.2-33.2-31.8V-22.6C-50.4-40.2-35.6-54.4-17.2-54.4L-17.2-54.4z"/>
			</g>
			<g>
				<path id="j_00000114780728824574812790000013033133302924524421_" class="st1" d="M-17.2-54.4H174c18.3,0,33.2,14.2,33.2,31.8
					v435.3c0,17.6-14.9,31.8-33.2,31.8H-17.2c-18.3,0-33.2-14.2-33.2-31.8V-22.6C-50.4-40.2-35.6-54.4-17.2-54.4L-17.2-54.4z"/>
			</g>
		</g>
		
			<linearGradient id="SVGID_00000016790627506335128980000000814842200034357411_" gradientUnits="userSpaceOnUse" x1="2.2733" y1="666.7258" x2="2.2733" y2="665.7258" gradientTransform="matrix(242.642 0 0 -12.324 -420.269 8216.7285)">
			<stop  offset="0" style="stop-color:#454545"/>
			<stop  offset="0.2263" style="stop-color:#999999"/>
			<stop  offset="1" style="stop-color:#FFFFFF"/>
		</linearGradient>
		
			<path style="opacity:0.596;fill-rule:evenodd;clip-rule:evenodd;fill:url(#SVGID_00000016790627506335128980000000814842200034357411_);fill-opacity:0.65;enable-background:new    ;" d="
			M227.7,0H34.9c-9,0.5-17.3,4.7-24.9,12.3c4.9-4.3,13.6-10,25.1-10h192.4c11.5,0,20.2,5.7,25.1,10C245.1,4.7,236.8,0.5,227.7,0z"/>
		
			<linearGradient id="SVGID_00000097474035097390516170000008498748308191698309_" gradientUnits="userSpaceOnUse" x1="-1.0287" y1="671.3619" x2="-1.7216" y2="671.3619" gradientTransform="matrix(13.6522 0 0 -470.6551 274.1465 316228.75)">
			<stop  offset="0" style="stop-color:#FFFFFF;stop-opacity:0"/>
			<stop  offset="0.2222" style="stop-color:#BABABA"/>
			<stop  offset="0.5468" style="stop-color:#FFFFFF;stop-opacity:0"/>
			<stop  offset="1" style="stop-color:#FFFFFF;stop-opacity:0"/>
		</linearGradient>
		
			<path style="opacity:0.75;fill-rule:evenodd;clip-rule:evenodd;fill:url(#SVGID_00000097474035097390516170000008498748308191698309_);enable-background:new    ;" d="
			M255,462.7V35c0-11.5-4.2-15.7-6.7-18.4c-2.5-2.7-2.6-4.1,1-2.1c3.6,2.1,10.8,8,10.8,20.5v427.7c0,12.5-7.2,18.4-10.8,20.5
			c-3.6,2.1-3.5,0.7-1-2.1S255,474.1,255,462.7L255,462.7z"/>
		
			<linearGradient id="SVGID_00000119103048080874206490000003454464612740882102_" gradientUnits="userSpaceOnUse" x1="7.0287" y1="671.3619" x2="6.3346" y2="671.3619" gradientTransform="matrix(-13.6522 0 0 -470.6551 98.5245 316228.75)">
			<stop  offset="0" style="stop-color:#FFFFFF;stop-opacity:0"/>
			<stop  offset="0.2222" style="stop-color:#BABABA"/>
			<stop  offset="0.5468" style="stop-color:#FFFFFF;stop-opacity:0"/>
			<stop  offset="1" style="stop-color:#FFFFFF;stop-opacity:0"/>
		</linearGradient>
		
			<path style="opacity:0.75;fill-rule:evenodd;clip-rule:evenodd;fill:url(#SVGID_00000119103048080874206490000003454464612740882102_);enable-background:new    ;" d="
			M7.7,462.7V35c0-11.5,4.2-15.7,6.7-18.4c2.5-2.7,2.6-4.1-1-2.1C9.8,16.5,2.6,22.5,2.6,35v427.7c0,12.5,7.2,18.4,10.8,20.5
			c3.6,2.1,3.5,0.7,1-2.1S7.7,474.1,7.7,462.7L7.7,462.7z"/>
		<g>
			<path class="st5" d="M2,101.6h1c1.1,0,2,0.9,2,2v60.4c0,1.1-0.9,2-2,2H2c-1.1,0-2-0.9-2-2v-60.3C0,102.5,0.9,101.6,2,101.6
				L2,101.6z M259.5,154h1c1.1,0,2,0.9,2,2V199c0,1.1-0.9,2-2,2h-1c-1.1,0-2-0.9-2-2V156C257.5,154.9,258.4,154,259.5,154z"/>
		</g>
		<g transform="translate(68.074 67.444)">
			<g>
				<path id="k_00000168113267450703022520000003192416993268022712_" class="st20" d="M40.6-55h-74.4C-44.9-55-53-47.4-53-37.6
					v422.4c0,12.9,12.5,24.3,26.6,24.3H153c13.6,0,26.6-11.5,26.6-24.3V-36.4c0-11.8-8.8-18.5-19.2-18.6H84.8
					c-0.3,0-5.5,2.2-7.7,7.6c-2.2,5.4-6.6,9.7-11.4,9.7h-5.6c-2.3,0-8.3-2.2-11.4-9.7C45.6-54.9,40.9-55,40.6-55z"/>
			</g>
			<defs>
				<filter id="Adobe_OpacityMaskFilter" filterUnits="userSpaceOnUse" x="-38.1" y="105.6" width="204" height="328">
					<feColorMatrix  type="matrix" values="1 0 0 0 0  0 1 0 0 0  0 0 1 0 0  0 0 0 1 0"/>
				</filter>
			</defs>
			
				<mask maskUnits="userSpaceOnUse" x="-38.1" y="105.6" width="204" height="328" id="l_00000013173384492234512980000011133513449632452526_">
				<g class="st21">
					<path id="k_00000017479717492821757680000015079385804528700041_" class="st22" d="M40.6-55h-74.4C-44.9-55-53-47.4-53-37.6
						v422.4c0,12.9,12.5,24.3,26.6,24.3H153c13.6,0,26.6-11.5,26.6-24.3V-36.4c0-11.8-8.8-18.5-19.2-18.6H84.8
						c-0.3,0-5.5,2.2-7.7,7.6c-2.2,5.4-6.6,9.7-11.4,9.7h-5.6c-2.3,0-8.3-2.2-11.4-9.7C45.6-54.9,40.9-55,40.6-55z"/>
				</g>
			</mask>
			<g class="st23">
				<g transform="translate(14.926 160.556)">
					<g>
						<path id="n" class="st0" d="M-48-55h194c2.8,0,5,2.2,5,5v30c0,2.8-2.2,5-5,5H-48c-2.8,0-5-2.2-5-5v-30C-53-52.8-50.8-55-48-55
							z"/>
					</g>
					<g>
						<path id="n_00000159469841392966467820000007141703188116739463_" class="st7" d="M-48-55h194c2.8,0,5,2.2,5,5v30
							c0,2.8-2.2,5-5,5H-48c-2.8,0-5-2.2-5-5v-30C-53-52.8-50.8-55-48-55z"/>
					</g>
				</g>
				<g>
					<g class="st24">
						<text transform="matrix(1 0 0 1 -22.074 125.556)" class="st8 st9 st25">Item #001</text>
					</g>
					<g class="st24">
						<text transform="matrix(1 0 0 1 124.557 129.556)" class="st8 st11 st10">$29</text>
					</g>
				</g>
				<g transform="translate(14.926 208.556)">
					<g>
						<path id="p" class="st0" d="M-48-55h194c2.8,0,5,2.2,5,5v30c0,2.8-2.2,5-5,5H-48c-2.8,0-5-2.2-5-5v-30C-53-52.8-50.8-55-48-55
							z"/>
					</g>
					<g>
						<path id="p_00000089555845268878881020000017080223046182843552_" class="st7" d="M-48-55h194c2.8,0,5,2.2,5,5v30
							c0,2.8-2.2,5-5,5H-48c-2.8,0-5-2.2-5-5v-30C-53-52.8-50.8-55-48-55z"/>
					</g>
				</g>
				<g>
					<g class="st24">
						<text transform="matrix(1 0 0 1 -22.074 173.556)" class="st8 st9 st25">Item #002</text>
					</g>
					<g class="st24">
						<text transform="matrix(1 0 0 1 118.762 177.556)" class="st8 st11 st10">$105</text>
					</g>
				</g>
				<g transform="translate(14.926 256.556)">
					<g>
						<path id="r" class="st0" d="M-48-55h194c2.8,0,5,2.2,5,5v30c0,2.8-2.2,5-5,5H-48c-2.8,0-5-2.2-5-5v-30C-53-52.8-50.8-55-48-55
							z"/>
					</g>
					<g>
						<path id="r_00000053533246391954238780000009154752102939912094_" class="st7" d="M-48-55h194c2.8,0,5,2.2,5,5v30
							c0,2.8-2.2,5-5,5H-48c-2.8,0-5-2.2-5-5v-30C-53-52.8-50.8-55-48-55z"/>
					</g>
				</g>
				<g>
					<g class="st24">
						<text transform="matrix(1 0 0 1 -22.074 221.556)" class="st8 st9 st25">Item #003</text>
					</g>
					<g class="st24">
						<text transform="matrix(1 0 0 1 118.814 225.556)" class="st8 st11 st10">$810</text>
					</g>
				</g>
				<g transform="translate(14.926 304.556)">
					<g>
						<path id="t" class="st0" d="M-48-55h194c2.8,0,5,2.2,5,5v30c0,2.8-2.2,5-5,5H-48c-2.8,0-5-2.2-5-5v-30C-53-52.8-50.8-55-48-55
							z"/>
					</g>
					<g>
						<path id="t_00000085950658109834657210000013818503497819695009_" class="st7" d="M-48-55h194c2.8,0,5,2.2,5,5v30
							c0,2.8-2.2,5-5,5H-48c-2.8,0-5-2.2-5-5v-30C-53-52.8-50.8-55-48-55z"/>
					</g>
				</g>
				<g>
					<g class="st24">
						<text transform="matrix(1 0 0 1 -22.074 269.556)" class="st8 st9 st25">Item #004</text>
					</g>
					<g class="st24">
						<text transform="matrix(1 0 0 1 110.627 273.556)" class="st8 st11 st10">$1044</text>
					</g>
				</g>
				<g>
					<g transform="translate(14.926 352.556)">
						<g>
							<path id="v" class="st0" d="M-48-55h194c2.8,0,5,2.2,5,5v30c0,2.8-2.2,5-5,5H-48c-2.8,0-5-2.2-5-5v-30
								C-53-52.8-50.8-55-48-55z"/>
						</g>
						<g>
							<path id="v_00000176011555401250136110000008707705401863514769_" class="st7" d="M-48-55h194c2.8,0,5,2.2,5,5v30
								c0,2.8-2.2,5-5,5H-48c-2.8,0-5-2.2-5-5v-30C-53-52.8-50.8-55-48-55z"/>
						</g>
					</g>
					<g>
						<g class="st24">
							<text transform="matrix(1 0 0 1 -22.074 317.556)" class="st8 st9 st25">Item #005</text>
						</g>
						<g class="st24">
							<text transform="matrix(1 0 0 1 124.473 321.556)" class="st8 st11 st10">$40</text>
						</g>
					</g>
				</g>
				<g>
					<g transform="translate(14.926 400.556)">
						<g>
							<path id="x" class="st0" d="M-48-55h194c2.8,0,5,2.2,5,5v30c0,2.8-2.2,5-5,5H-48c-2.8,0-5-2.2-5-5v-30
								C-53-52.8-50.8-55-48-55z"/>
						</g>
						<g>
							<path id="x_00000024001843361713857960000014623157993083978900_" class="st7" d="M-48-55h194c2.8,0,5,2.2,5,5v30
								c0,2.8-2.2,5-5,5H-48c-2.8,0-5-2.2-5-5v-30C-53-52.8-50.8-55-48-55z"/>
						</g>
					</g>
					<g>
						<g class="st24">
							<text transform="matrix(1 0 0 1 -22.074 365.556)" class="st8 st9 st25">Item #006</text>
						</g>
						<g class="st24">
							<text transform="matrix(1 0 0 1 107.415 369.556)" class="st8 st11 st10">$2566</text>
						</g>
					</g>
				</g>
				<g>
					<g transform="translate(14.926 448.556)">
						<g>
							<path id="z" class="st0" d="M-48-55h194c2.8,0,5,2.2,5,5v30c0,2.8-2.2,5-5,5H-48c-2.8,0-5-2.2-5-5v-30
								C-53-52.8-50.8-55-48-55z"/>
						</g>
						<g>
							<path id="z_00000031905776327305158990000000014409777592257466_" class="st7" d="M-48-55h194c2.8,0,5,2.2,5,5v30
								c0,2.8-2.2,5-5,5H-48c-2.8,0-5-2.2-5-5v-30C-53-52.8-50.8-55-48-55z"/>
						</g>
					</g>
					<g>
						<g class="st24">
							<text transform="matrix(1 0 0 1 -22.074 413.556)" class="st8 st9 st25">Item #001</text>
						</g>
						<g class="st24">
							<text transform="matrix(1 0 0 1 110.392 417.556)" class="st8 st11 st10">$4199</text>
						</g>
					</g>
				</g>
			</g>
			<defs>
				
					<filter id="Adobe_OpacityMaskFilter_00000005245489088623891770000008096802563598797970_" filterUnits="userSpaceOnUse" x="-53" y="-55" width="233" height="114">
					<feColorMatrix  type="matrix" values="1 0 0 0 0  0 1 0 0 0  0 0 1 0 0  0 0 0 1 0"/>
				</filter>
			</defs>
			
				<mask maskUnits="userSpaceOnUse" x="-53" y="-55" width="233" height="114" id="l_00000098195998686202064240000018015843886174634913_">
				<g style="filter:url(#Adobe_OpacityMaskFilter_00000005245489088623891770000008096802563598797970_);">
					<path id="k_00000129925724739164086740000007855883336784322467_" class="st22" d="M40.6-55h-74.4C-44.9-55-53-47.4-53-37.6
						v422.4c0,12.9,12.5,24.3,26.6,24.3H153c13.6,0,26.6-11.5,26.6-24.3V-36.4c0-11.8-8.8-18.5-19.2-18.6H84.8
						c-0.3,0-5.5,2.2-7.7,7.6c-2.2,5.4-6.6,9.7-11.4,9.7h-5.6c-2.3,0-8.3-2.2-11.4-9.7C45.6-54.9,40.9-55,40.6-55z"/>
				</g>
			</mask>
			<path class="st27" d="M-53-55h233V59H-53V-55z"/>
			<defs>
				
					<filter id="Adobe_OpacityMaskFilter_00000044883903602057241000000004323901882437156794_" filterUnits="userSpaceOnUse" x="-38.1" y="25.6" width="204" height="56">
					<feColorMatrix  type="matrix" values="1 0 0 0 0  0 1 0 0 0  0 0 1 0 0  0 0 0 1 0"/>
				</filter>
			</defs>
			
				<mask maskUnits="userSpaceOnUse" x="-38.1" y="25.6" width="204" height="56" id="l_00000130642169822278340350000002558543077518594703_">
				<g style="filter:url(#Adobe_OpacityMaskFilter_00000044883903602057241000000004323901882437156794_);">
					<path id="k_00000057848316713386597510000004354604277213723527_" class="st22" d="M40.6-55h-74.4C-44.9-55-53-47.4-53-37.6
						v422.4c0,12.9,12.5,24.3,26.6,24.3H153c13.6,0,26.6-11.5,26.6-24.3V-36.4c0-11.8-8.8-18.5-19.2-18.6H84.8
						c-0.3,0-5.5,2.2-7.7,7.6c-2.2,5.4-6.6,9.7-11.4,9.7h-5.6c-2.3,0-8.3-2.2-11.4-9.7C45.6-54.9,40.9-55,40.6-55z"/>
				</g>
			</mask>
			<g class="st29">
				<g transform="translate(14.926 80.556)">
					<g>
						<path id="B" class="st0" d="M-48-55h194c2.8,0,5,2.2,5,5v46c0,2.8-2.2,5-5,5H-48c-2.8,0-5-2.2-5-5v-46C-53-52.8-50.8-55-48-55
							z"/>
					</g>
					<g>
						<path id="B_00000159466620788502780980000000786895383346029708_" class="st7" d="M-48-55h194c2.8,0,5,2.2,5,5v46
							c0,2.8-2.2,5-5,5H-48c-2.8,0-5-2.2-5-5v-46C-53-52.8-50.8-55-48-55z"/>
					</g>
				</g>
				<g class="st24">
					<text transform="matrix(1 0 0 1 -21.843 53.556)" class="st8 st9 st25">Total payment</text>
				</g>
				<g class="st24">
					<text transform="matrix(1 0 0 1 85.265 60.556)" class="st30 st11 st31">$9204</text>
				</g>
			</g>
			<defs>
				
					<filter id="Adobe_OpacityMaskFilter_00000039833878479986288570000013207516133196412858_" filterUnits="userSpaceOnUse" x="-53" y="-55" width="96.8" height="56.5">
					<feColorMatrix  type="matrix" values="1 0 0 0 0  0 1 0 0 0  0 0 1 0 0  0 0 0 1 0"/>
				</filter>
			</defs>
			
				<mask maskUnits="userSpaceOnUse" x="-53" y="-55" width="96.8" height="56.5" id="l_00000021813194607453282490000004785585626797599142_">
				<g style="filter:url(#Adobe_OpacityMaskFilter_00000039833878479986288570000013207516133196412858_);">
					<path id="k_00000001647988693450547060000008138845238070112905_" class="st22" d="M40.6-55h-74.4C-44.9-55-53-47.4-53-37.6
						v422.4c0,12.9,12.5,24.3,26.6,24.3H153c13.6,0,26.6-11.5,26.6-24.3V-36.4c0-11.8-8.8-18.5-19.2-18.6H84.8
						c-0.3,0-5.5,2.2-7.7,7.6c-2.2,5.4-6.6,9.7-11.4,9.7h-5.6c-2.3,0-8.3-2.2-11.4-9.7C45.6-54.9,40.9-55,40.6-55z"/>
				</g>
			</mask>
			<g class="st33">
				<path class="st30" d="M-53-55"/>
				<g transform="translate(73.926 33.556)">
					<circle class="st22" cx="-40.9" cy="-51.8" r="1.9"/>
					<circle class="st22" cx="-36.4" cy="-47.4" r="1.9"/>
					<circle class="st22" cx="-32" cy="-42.9" r="1.9"/>
					<circle class="st22" cx="-45.4" cy="-47.4" r="1.9"/>
					<circle class="st34" cx="-40.9" cy="-42.9" r="1.9"/>
					<circle class="st34" cx="-36.4" cy="-38.4" r="1.9"/>
					<circle class="st22" cx="-49.8" cy="-42.9" r="1.9"/>
					<circle class="st34" cx="-45.4" cy="-38.4" r="1.9"/>
					<circle class="st35" cx="-40.9" cy="-34" r="1.9"/>
				</g>
			</g>
		</g>
	</g>
</g>
</svg>
